<?xml version="1.0" encoding="UTF-8" standalone="no"?>
<!-- Created with Inkscape (http://www.inkscape.org/) -->

<svg
   xmlns:dc="http://purl.org/dc/elements/1.1/"
   xmlns:cc="http://creativecommons.org/ns#"
   xmlns:rdf="http://www.w3.org/1999/02/22-rdf-syntax-ns#"
   xmlns:svg="http://www.w3.org/2000/svg"
   xmlns="http://www.w3.org/2000/svg"
   version="1.1"
   width="100%"
   height="100%"
   viewBox="0 0 700 700"
   id="Layer_1"
   xml:space="preserve"><metadata
     id="metadata23"><rdf:RDF><cc:Work
         rdf:about=""><dc:format>image/svg+xml</dc:format><dc:type
           rdf:resource="http://purl.org/dc/dcmitype/StillImage" /><dc:title></dc:title></cc:Work></rdf:RDF></metadata><defs
     id="defs21" /><g
     transform="matrix(1.0382676,0,0,1.0382676,-65.266282,-75.066746)"
     id="g3"><g
       id="g5"><path
         d="m 462,117.2 c -1.4,0 -2.9,-0.2 -4.5,-0.7 -16.5,-4.7 -32.4,-7 -47.8,-7 -8,0 -16.7,0.7 -26.2,2.2 -9.5,1.5 -19.7,3.7 -30.6,6.7 0.9,6.3 1.3,11.4 1.3,15.2 0,13.6 -0.8,32.2 -2.5,56 l 64.2,-6.2 c 18.8,-2 30.4,-2.9 34.7,-2.9 4.3,0 7.9,1.4 10.8,4.1 2.9,2.7 4.4,6.4 4.4,11 0,8.9 -4.5,13.9 -13.5,14.9 l -34.9,3.1 -67.7,6.2 c -0.4,6.9 -0.7,13.5 -1,19.7 -0.2,6.2 -0.4,12 -0.4,17.4 0,21.6 1.6,34.3 4.7,38.1 2.3,2.7 10,4.1 23,4.1 6.1,0 15.2,-0.2 27.3,-0.5 12.2,-0.3 21.3,-0.5 27.5,-0.5 2,0 4.8,-0.3 8.6,-1 3.8,-0.6 6.6,-1 8.5,-1 10.3,0 15.5,5.1 15.5,15.2 0,8.2 -4.2,13.1 -12.5,14.8 -9.2,1.9 -29.1,2.8 -59.6,2.8 -30.3,0 -49.7,-4 -58.3,-12 -9.4,-8.7 -14.1,-28.7 -14.1,-60.1 0,-6.2 0.1,-13.1 0.4,-20.5 0.3,-7.4 0.7,-15.4 1.2,-24 -1.1,-2.2 -1.6,-4.6 -1.6,-7.2 0,-3.3 0.9,-6.3 2.8,-8.9 2,-28.2 2.9,-49.1 2.9,-62.5 0,-3.6 -0.5,-8.9 -1.5,-15.9 -1,-7 -1.5,-12.3 -1.5,-15.9 0,-11.6 4.9,-17.4 14.6,-17.4 4.1,0 7.6,1.4 10.5,4.2 11.7,-3.1 22.8,-5.5 33.2,-7 10.4,-1.6 20.2,-2.3 29.4,-2.3 23.7,0 42.7,2.8 56.8,8.5 6.5,2.6 9.8,7.3 9.8,14.1 0,3.9 -1.3,7.4 -3.8,10.4 -2.3,3.2 -5.9,4.8 -10.1,4.8 z"
         id="path7"
         style="fill:#333333" /></g><g
       id="g9"><path
         d="m 406.6,139.6 c 0.3,-8 0.7,-13.5 1.1,-16.6 0.4,-2.8 1.9,-4.1 4.6,-4.1 1.4,0 2.5,0.4 3.3,1.3 0.8,0.9 1.3,2 1.3,3.3 0,3.4 -0.3,8.5 -0.8,15.3 -0.5,6.8 -0.8,11.9 -0.8,15.3 0,8.4 0.3,14 0.8,16.8 0.1,0.4 0.1,0.7 0.1,1 0,1.3 -0.5,2.4 -1.4,3.2 -0.9,0.8 -2,1.3 -3.3,1.3 -1.7,0 -3,-0.8 -3.9,-2.3 -1.6,1 -3.2,1.6 -5,1.9 -1.7,0.3 -3.5,0.4 -5.3,0.4 -5.3,0 -9.6,-1.7 -13.1,-5 -3.5,-3.4 -5.3,-7.8 -5.3,-13.1 0,-6.3 1.8,-11.4 5.3,-15.3 3.6,-3.9 8.2,-5.8 14,-5.8 1.8,0 3.3,0.2 4.7,0.6 1.5,0.5 2.7,1.1 3.7,1.8 z m -0.7,11.1 c -0.8,-1.5 -1.8,-2.6 -3,-3.3 -1.2,-0.7 -2.7,-1.1 -4.4,-1.1 -3.5,0 -6.1,1 -7.8,3 -1.7,2 -2.6,5 -2.6,9 0,2.5 0.9,4.7 2.8,6.5 1.9,1.8 4.1,2.7 6.5,2.7 1.8,0 3.2,-0.2 4.1,-0.6 0.6,-0.3 1.7,-1 3.2,-2.3 0.4,-0.3 0.8,-0.7 1.2,-1.1 0,-1 0,-5.3 0,-12.8 z"
         id="path11"
         style="fill:#333333" /></g><g
       id="g13"><path
         d="m 406.6,247.4 c 0.3,-8 0.7,-13.5 1.1,-16.6 0.4,-2.8 1.9,-4.1 4.6,-4.1 1.4,0 2.5,0.4 3.3,1.3 0.8,0.9 1.3,2 1.3,3.3 0,3.4 -0.3,8.5 -0.8,15.3 -0.5,6.8 -0.8,11.9 -0.8,15.3 0,8.4 0.3,14 0.8,16.8 0.1,0.4 0.1,0.7 0.1,1 0,1.3 -0.5,2.4 -1.4,3.2 -0.9,0.8 -2,1.3 -3.3,1.3 -1.7,0 -3,-0.8 -3.9,-2.3 -1.6,1 -3.2,1.6 -5,1.9 -1.7,0.3 -3.5,0.4 -5.3,0.4 -5.3,0 -9.6,-1.7 -13.1,-5 -3.5,-3.4 -5.3,-7.8 -5.3,-13.1 0,-6.3 1.8,-11.4 5.3,-15.3 3.6,-3.9 8.2,-5.8 14,-5.8 1.8,0 3.3,0.2 4.7,0.6 1.5,0.5 2.7,1 3.7,1.8 z m -0.7,11.1 c -0.8,-1.5 -1.8,-2.6 -3,-3.3 -1.2,-0.7 -2.7,-1.1 -4.4,-1.1 -3.5,0 -6.1,1 -7.8,3 -1.7,2 -2.6,5 -2.6,9 0,2.5 0.9,4.7 2.8,6.5 1.9,1.8 4.1,2.7 6.5,2.7 1.8,0 3.2,-0.2 4.1,-0.6 0.6,-0.3 1.7,-1 3.2,-2.3 0.4,-0.3 0.8,-0.7 1.2,-1.1 0,-1.1 0,-5.4 0,-12.8 z"
         id="path15"
         style="fill:#333333" /></g><path
       d="m 552,136 c -0.2,-13.5 -0.2,-23.6 -0.2,-30.3 0,-22.3 -8.1,-33.4 -24.4,-33.4 -9,0 -15.7,4.9 -20.3,14.6 -3.6,7.7 -5.4,16.5 -5.4,26.6 0,3.3 0.1,9.8 0.2,19.5 0,9.8 0,17.7 0,23.9 0,166 -32.5,249 -97.4,249 C 335.5,405.9 301,356.6 301,258 V 114.8 c 0,-27.5 -7.5,-41.3 -22.5,-41.3 -10.6,0 -17.9,5.9 -22,17.8 -2,5.9 -3.4,16.2 -4.4,31 -1,14 -1.5,32.4 -1.5,55.2 0,61.9 1.2,103.1 3.7,123.8 5.2,45.9 17.9,80.6 38.1,104 24.9,29.1 62.7,43.7 113.3,43.7 39.7,0 71.3,-15.6 94.8,-46.8 -0.3,19.1 0,45.8 -1.4,78.5 l 0,0 c -4.1,145.6 -37.6,222.9 -98.2,222.9 -69,0 -103.5,-49.3 -103.5,-147.9 v -60.2 c 0,-27.5 -7.5,-41.3 -22.5,-41.3 -10.6,0 -17.9,5.9 -22,17.8 -2,5.9 -3.4,16.2 -4.4,31 -1,14 -0.4,32.4 -0.4,55.2 0,0 0.2,20 2.6,40.6 5.2,45.9 17.9,80.6 38.1,104 24.9,29.1 62.7,43.7 113.3,43.7 86,0 133,-84.9 142.9,-234.1 l 0.1,0.1 0.1,-2.4 c 1.2,-19.3 1.8,-39.7 1.8,-61.1 l 0,0 1.7,-57.8 c 0,-25.7 0.4,-55.1 1.2,-88.3 0.8,-33.1 1.2,-62.5 1.2,-88.3 0,-1.3 -0.1,-2.6 -0.2,-3.8 0.7,-14.2 1,-29.1 1,-44.6 0.1,-6.6 0.1,-16.7 0.1,-30.2 z"
       id="path17"
       style="fill:#333333" /></g></svg>