<?xml version="1.0" encoding="UTF-8" standalone="no"?>
<!-- Generator: Adobe Illustrator 18.1.1, SVG Export Plug-In . SVG Version: 6.00 Build 0)  -->

<svg
   xmlns:dc="http://purl.org/dc/elements/1.1/"
   xmlns:cc="http://creativecommons.org/ns#"
   xmlns:rdf="http://www.w3.org/1999/02/22-rdf-syntax-ns#"
   xmlns:svg="http://www.w3.org/2000/svg"
   xmlns="http://www.w3.org/2000/svg"
   xmlns:sodipodi="http://sodipodi.sourceforge.net/DTD/sodipodi-0.dtd"
   xmlns:inkscape="http://www.inkscape.org/namespaces/inkscape"
   version="1.1"
   id="Layer_1"
   x="0px"
   y="0px"
   viewBox="-329 -89 400 400"
   enable-background="new -329 -89 300 480"
   xml:space="preserve"
   inkscape:version="0.48.4 r9939"
   width="100%"
   height="100%"
   sodipodi:docname="gfc.svg"><metadata
     id="metadata130"><rdf:RDF><cc:Work
         rdf:about=""><dc:format>image/svg+xml</dc:format><dc:type
           rdf:resource="http://purl.org/dc/dcmitype/StillImage" /></cc:Work></rdf:RDF></metadata><defs
     id="defs128" /><sodipodi:namedview
     pagecolor="#ffffff"
     bordercolor="#666666"
     borderopacity="1"
     objecttolerance="10"
     gridtolerance="10"
     guidetolerance="10"
     inkscape:pageopacity="0"
     inkscape:pageshadow="2"
     inkscape:window-width="1280"
     inkscape:window-height="745"
     id="namedview126"
     showgrid="false"
     fit-margin-top="0"
     fit-margin-left="0"
     fit-margin-right="0"
     fit-margin-bottom="0"
     inkscape:zoom="0.49166667"
     inkscape:cx="-96.733911"
     inkscape:cy="204.2"
     inkscape:window-x="0"
     inkscape:window-y="27"
     inkscape:window-maximized="1"
     inkscape:current-layer="Layer_1" /><g
     id="g3107"
     transform="matrix(0.97991181,0,0,0.97991181,49.931902,6.2474275)"><circle
       transform="translate(-4.7000122,-44.2)"
       style="fill:#ab182f"
       sodipodi:ry="146.39999"
       sodipodi:rx="146.39999"
       sodipodi:cy="140"
       sodipodi:cx="-177.89999"
       id="circle3"
       r="146.39999"
       cy="140"
       cx="-177.89999"
       d="m -31.5,140 c 0,80.85448 -65.54551,146.39999 -146.39999,146.39999 -80.85449,0 -146.4,-65.54551 -146.4,-146.39999 0,-80.854484 65.54551,-146.3999939 146.4,-146.3999939 C -97.04551,-6.3999939 -31.5,59.145516 -31.5,140 z" /><g
       transform="translate(-4.7000122,-44.2)"
       id="g5"><path
         style="fill:#ffc107"
         inkscape:connector-curvature="0"
         id="path7"
         d="m -193.8,196.7 c -5.1,0 -10.2,0 -15.3,0 -0.3,-0.2 -0.7,-0.3 -1.1,-0.3 -3.6,-0.1 -7.1,-0.4 -10.7,-0.3 -2.1,0 -4.1,-0.6 -6.1,-0.4 -0.3,0 -0.6,-0.1 -0.8,-0.2 -1.3,-1.2 -3.2,-1.6 -4.4,-3.1 -0.2,-0.3 -0.5,-0.5 -0.8,-0.6 -2.8,-0.5 -4.8,-2.8 -7.6,-3.3 -0.2,0 -0.5,-0.1 -0.6,-0.3 -1.2,-1.5 -3,-2.3 -4.5,-3.4 -1.2,-0.9 -2.4,-1.2 -3.9,-1.2 -2.4,0 -2.5,-0.1 -2.8,-2.4 -0.1,-0.8 -0.5,-1.4 -1.1,-2 -2.7,-2.5 -5.4,-5 -7.8,-7.9 -2.3,-2.8 -4.6,-5.7 -6.4,-8.8 -1.3,-2.4 -2.7,-4.7 -3.7,-7.2 -1.1,-2.7 -2.4,-5.2 -3.2,-8 -0.9,-2.7 -1.8,-5.4 -2.2,-8.3 -0.4,-2.9 -0.8,-5.7 -0.7,-8.6 0,-0.3 -0.1,-0.5 -0.3,-0.8 0,-2.9 0,-5.7 0,-8.6 0.4,-0.5 0.2,-1.1 0.3,-1.6 0.1,-2.4 0,-4.7 0.2,-7.1 0.3,-3.5 1.2,-6.8 2.4,-9.9 2.5,-6.3 5.7,-12.2 9.7,-17.7 3.1,-4.2 6.8,-7.8 10.5,-11.4 2.1,-2 4.7,-3.6 7.1,-5.3 3.8,-2.9 7.9,-5.1 12.2,-7.2 1.6,-0.8 1.7,-1.2 1.1,-2.9 -0.6,-1.6 -1.5,-2.9 -2.6,-4.1 -3.4,-3.8 -7.4,-7.1 -11.2,-10.5 -2,-1.8 -4.1,-3.6 -5.9,-5.6 -2.6,-2.8 -4.9,-5.7 -6.6,-9.2 -0.5,-1.1 -1.2,-2.1 -1.7,-3.1 -1.7,-3.6 -2.4,-7.6 -3.6,-11.3 -0.2,-0.6 -0.2,-1.3 -0.2,-1.9 0,-3.7 0,-7.5 0,-11.2 0,-1.9 0.5,-3.6 0.9,-5.4 0.7,-3.6 1.9,-7.1 3.6,-10.3 1.3,-2.5 2.6,-5.1 4.2,-7.5 2.5,-3.8 5.7,-6.9 8.9,-10 3.7,-3.5 7.8,-6.5 12.3,-9 0.9,-0.5 2,-0.8 2.9,-1.2 0.7,-0.3 1.4,-0.7 1.3,-1.6 -0.1,-0.9 -0.3,-1.8 -1.3,-2.1 -1.3,-0.4 -1.5,-1.5 -1.7,-2.6 -0.3,-1.4 0.3,-2.1 1.7,-2.2 1.1,-0.1 2,-0.3 2.5,-1.4 0.2,-0.4 0.5,-0.5 0.8,-0.7 0.6,0 1.3,0 1.9,0 1.2,0.6 2.5,0.7 3.8,0.6 1,-0.1 1.6,0.2 2.3,1 0.9,1 1.9,1.8 2.5,3.1 0.5,1 1.7,0.8 2.6,0.7 3.1,-0.5 6.3,-1 9.5,-0.9 2.7,0.1 5.3,0.5 8,0.8 2.9,0.3 5.7,1.1 8.5,2.1 4.6,1.6 9.1,3.6 13.3,6.2 3.5,2.3 6.8,4.9 9.6,7.9 3.3,3.6 6.3,7.5 8.5,11.9 1.6,3.3 2.6,6.8 4,10.2 0.4,1.1 0.4,2.3 0.6,3.4 0.3,2 0.9,4 0.8,6 -0.1,2.1 -0.1,4.3 0,6.4 0.1,3.3 -0.7,6.4 -1.3,9.6 -0.9,5 -2.8,9.6 -5,14.1 -1.4,2.9 -3,5.8 -4.8,8.6 -2.1,3.2 -4,6.4 -6,9.6 -0.9,1.4 -1.3,3.1 -1.6,4.7 -0.3,1.4 0.2,2.2 1.6,2.6 2.1,0.5 4,1.3 6.1,1.8 2.1,0.5 4.1,1.3 6,2.1 4.4,2 8.7,4 12.7,6.8 2.6,1.8 5.2,3.6 7.5,6 1.7,1.9 3.5,3.7 5.4,5.4 4.5,4 7.8,8.9 10.3,14.3 2.7,5.8 5.1,11.7 6.2,18.1 0.5,3.2 0.6,6.5 0.4,9.8 0,0.5 -0.2,1.1 0.3,1.6 0,1.2 0,2.4 0,3.6 -0.5,0.7 -0.3,1.4 -0.3,2.2 0.3,4.4 -0.6,8.7 -2,12.8 -0.9,2.8 -1.8,5.6 -3.3,8.2 -1.3,2.2 -2.1,4.6 -3.4,6.8 -2.3,3.7 -4.6,7.4 -7.8,10.5 -1.5,1.4 -2.6,3.1 -4,4.6 -3.8,4.1 -8.3,7.2 -12.8,10.4 -2.9,2 -5.7,4.1 -8.9,5.6 -2.5,1.1 -4.8,2.6 -7.5,3.3 -0.3,0.1 -0.6,0.2 -0.9,0.3 -3.1,1.9 -6.6,2.8 -10,4.2 -3,1.2 -6.2,1.8 -9.4,2.4 -1.7,0.4 -3.6,0.3 -5.4,0.4 -0.7,-0.3 -1.3,-0.5 -1.8,-0.1 z" /></g><path
       style="fill:#ffffff"
       inkscape:connector-curvature="0"
       id="path9"
       d="m -219.10001,154.8 c -0.2,0.1 -0.4,0.2 -0.5,0.2 0.1,-0.1 0.3,-0.2 0.5,-0.2" /><path
       style="fill:#ffffff"
       inkscape:connector-curvature="0"
       id="path11"
       d="M -219.70001,155" /><path
       style="fill:#ffffff"
       inkscape:connector-curvature="0"
       id="path13"
       d="m -279.40001,171.2 c 0.6,0.1 1.2,0.3 1.8,0.4 -1.3,-0.3 -2.8,-0.6 -3.6,-0.8 -0.4,-0.1 -1,-0.2 -1.8,-0.1 -1.2,0 -2.8,0.3 -4,0.9 -1.6,0.8 -11.5,5.8 -15.7,7.9 4.8,6.8 10.1,13.2 15.9,19.1 0.4,-1.5 6.9,-8.3 7.8,-12.3 1.3,-5.5 -1.9,-12.8 -0.4,-15.1" /><path
       style="fill:#ffffff"
       inkscape:connector-curvature="0"
       id="path15"
       d="m -113.70001,187.1 -7.8,1 c 0,0 5.6,26.1 7.2,32.6 l 0.9,4.2 c 2.7,-1.5 5.4,-3 8,-4.7 -3.3,-12 -8.3,-33.1 -8.3,-33.1 l 0,0 z" /><g
       transform="translate(-4.7000122,-44.2)"
       id="g17"><polygon
         style="fill:none"
         id="polygon19"
         points="-158.1,210 -158.1,213.1 -157.5,213.1 -157.5,210.6 -156.6,213.1 -156.1,213.1 -155.3,210.6 -155.3,213.1 -154.7,213.1 -154.7,210 -155.6,210 -156.4,212.2 -157.2,210 " /><polygon
         style="fill:none"
         id="polygon21"
         points="-161.3,210 -161.3,210.5 -160.3,210.5 -160.3,213.1 -159.6,213.1 -159.6,210.5 -158.6,210.5 -158.6,210 " /></g><path
       style="fill:#ffffff"
       inkscape:connector-curvature="0"
       id="path23"
       d="m -68.200012,82.8 c -4,3 -6.2,7 -6.1,11.1 0,6 4.9,11.8 16.1,11.7 2.8,0 5.3,-0.3 7.5,-0.7 0.7,-0.1 1.3,-0.2 1.9,-0.3 l 1.3,-5.6 c -2.2,0.7 -4.9,1.3 -7.1,1.3 -6,0 -10,-3.5 -10,-8.2 0,-2.5 1,-4.7 2.9,-6.3 2,-1.7 4.9,-2.7 8.5,-2.7 2.9,0 4.6,0.8 5.7,1.9 0.2,0.2 0.4,0.5 0.6,0.7 h 0.9 l 1.8,-6.6 c -1.9,-0.6 -4.7,-1.1 -7.7,-1.2 -6.8,0.1 -12.4,2 -16.3,4.9" /><path
       style="fill:#ffffff"
       inkscape:connector-curvature="0"
       id="path25"
       d="m -77.600012,83.7 c 0.8,0 1.5,0.3 1.9,0.7 0.4,0.3 0.6,0.7 0.6,1.1 h 0.9 l 1.8,-7.2 h -24.3 l -0.4,1.4 -0.1,0.3 c 0,0 2.7,0.3 1.8,3 l -6.099998,22 10.299998,0 h 1.8 l 0.5,-1.9 c 0,0 -2.3,-0.5 -1.7,-2.6 0,-0.1 0.9,-3.3 1.4,-5.1 0.2,-0.8 0.4,-1.4 0.4,-1.4 l 5.6,0 c 0.9,0 1.6,0.2 2.1,0.4 1.1,0.4 1.5,1.1 1.5,1.1 l 1.6,-6.5 h -9.4 l 1,-3.7 0.4,-1.4 8.4,-0.2 z" /><path
       style="fill:#ffffff"
       inkscape:connector-curvature="0"
       id="path27"
       d="m -40.300012,78.8 c -0.4,-0.3 -0.8,-0.5 -1.3,-0.5 -0.5,0 -0.9,0.2 -1.3,0.5 -0.3,0.3 -0.5,0.8 -0.5,1.3 0,0.5 0.2,0.9 0.5,1.3 0.3,0.3 0.8,0.5 1.3,0.5 0.5,0 0.9,-0.2 1.3,-0.5 0.3,-0.4 0.5,-0.8 0.5,-1.3 0,-0.5 -0.2,-1 -0.5,-1.3 m -0.2,2.3 c -0.3,0.3 -0.7,0.5 -1.1,0.5 -0.4,0 -0.8,-0.2 -1.1,-0.5 -0.3,-0.3 -0.5,-0.7 -0.5,-1.1 0,-0.4 0.2,-0.8 0.5,-1.1 0.3,-0.3 0.7,-0.5 1.1,-0.5 0.4,0 0.8,0.2 1.1,0.5 0.3,0.3 0.4,0.7 0.4,1.1 0.1,0.5 -0.1,0.8 -0.4,1.1" /><path
       style="fill:#ffffff"
       inkscape:connector-curvature="0"
       id="path29"
       d="m -40.800012,79.6 c 0,-0.2 -0.1,-0.4 -0.3,-0.5 -0.1,0 -0.3,-0.1 -0.5,-0.1 h -0.7 v 2 h 0.3 v -0.8 h 0.3 c 0.2,0 0.3,0 0.4,0.1 0.1,0.1 0.2,0.2 0.2,0.5 V 81 l 0,0.1 c 0,0 0,0 0,0 0,0 0,0 0,0 h 0.3 l 0,0 c 0,0 0,0 0,-0.1 v -0.2 -0.1 c 0,-0.1 0,-0.2 -0.1,-0.3 -0.1,-0.1 -0.2,-0.2 -0.3,-0.2 0.1,0 0.2,0 0.3,-0.1 0.1,-0.2 0.1,-0.3 0.1,-0.5 m -0.5,0.4 c -0.1,0 -0.2,0 -0.3,0 h -0.3 v -0.7 h 0.3 c 0.2,0 0.3,0 0.4,0.1 0.1,0 0.1,0.1 0.1,0.3 0,0.1 -0.1,0.2 -0.2,0.3" /><path
       style="fill:#ffffff"
       inkscape:connector-curvature="0"
       id="path31"
       d="m -60.200012,133.9 c -18.7,-5.7 -56.999998,-4.3 -56.999998,-4.3 l 31.299998,73.8 c 0,0 2.9,-1.5 3.3,-0.7 17,-15.9 30.2,-35.8 38.1,-58.1 -0.6,-0.5 3,-5 -15.7,-10.7 z" /><g
       transform="translate(-4.7000122,-44.2)"
       id="g33"><polygon
         style="fill:none"
         id="polygon35"
         points="-154.7,210.3 -154.7,210 -155,210 " /><g
         id="g37"><polygon
           style="fill:none"
           id="polygon39"
           points="-154.7,210.3 -154.7,210 -155,210 " /><path
           style="fill:#ffffff"
           inkscape:connector-curvature="0"
           id="path41"
           d="m -119.2,265.2 c -1.4,-7.4 -7,-31.7 -7,-31.7 0,0 7.4,-1.9 9.1,-6.2 1.7,-4.2 -2.2,-10.7 -2.4,-13.3 -0.8,-7.7 -3.8,-39.1 -8.8,-45.6 -2.9,-3.8 -16.1,-11.3 -17.1,-11.2 -4.8,0.2 -14.3,20.9 -22.2,22.8 -5.3,1.3 -9,-3.9 -8.2,-3.5 0,0 0,0 0,0 0,0 0,-0.6 -0.9,-3.4 -0.9,-2.8 -2.7,-5.7 -3.1,-6.4 -0.3,-0.7 -1.3,-2.1 -1.4,-2.3 0,-0.2 -0.4,-1.1 -0.7,-2.8 -0.5,-3.3 -0.3,-5.5 -0.2,-5.7 0,-0.2 0.1,-0.8 0.1,-0.9 0,-0.1 0,-0.3 -0.2,-0.4 -0.2,0 -0.6,-0.1 -1,0.3 -0.9,0.9 -1,1.1 -1,1.3 0,0.1 0.1,0.4 0,0.8 -0.1,1 -0.3,1.8 -0.7,2.6 -0.5,0.8 -0.8,1 -1.4,1 -0.7,-0.1 -1.2,-0.6 -1.3,-1.9 -0.1,-1.4 -0.4,-1.8 -0.6,-2.1 -0.3,-0.3 -0.9,-0.5 -1.1,-0.5 -0.2,0 -0.4,0.2 -1.8,0.5 -1.4,0.4 -3.7,0.5 -4,0.5 -0.3,0 -1.6,0.1 -1.6,0.1 0.3,1 -5.2,-0.5 -6.1,0.2 -1.9,1.5 -2.8,11.2 -3.7,16.3 0,0 0,0 0,0 l -30.7,3.1 -10.8,25 c 0,0 3.3,49.5 3.3,50.3 0,0.8 68,-14.8 68,-14.8 l 25.7,-0.6 c 0,0 0,0 0,0.1 0.2,1.5 3,25.1 3.6,28.8 l 1.9,13.5 c 0.2,1.1 0.3,2.3 0.5,3.4 3,-0.7 5.9,-1.5 8.8,-2.3 -0.2,-1.5 -0.5,-3.1 -0.7,-4.6 -0.4,-1.9 -0.6,-3.8 -1,-5.6 l -0.8,-4.6 c -0.7,-4.4 -5,-29.6 -5,-29.6 l 4.5,-2.8 5.2,1.6 c 0.1,0.6 0.3,1.3 0.4,2.1 1.1,5.2 2.5,13.1 4.8,23.7 l 1.7,10.3 c 0,0.4 0.6,3.4 1.1,6.3 2.7,-1.1 5.4,-2.2 8.1,-3.4 l -1.3,-8.4 z" /></g></g><g
       transform="translate(-4.7000122,-44.2)"
       id="Layer_1_1_"><g
         id="g44"><path
           style="fill:#a3080c"
           inkscape:connector-curvature="0"
           id="path46"
           d="m -36.4,125.2 c 0,0 0,0 0,0 0,0 0,0 0,0 0,0 0,0 0,0 0,0 0,0 0,0" /><path
           inkscape:connector-curvature="0"
           id="path48"
           d="m -42.5,181.2 c -4.3,-2.3 -8,-3.8 -11.9,-4.6 -4.4,-1 -14.9,-3.1 -29.1,-4.4 -14.1,-1.3 -25.7,-2.4 -27.3,-2.6 -1.5,-0.1 -2,-1.5 -3.3,-2.1 -4.8,-2.4 -13.8,-4.6 -19.5,-6.6 -1.4,-0.5 -2.3,-1.7 -4.3,-4.1 -1.2,-1.4 -2,-2.1 -3,-3 -0.1,-0.1 -0.3,-0.3 -0.5,-0.5 -0.7,2.6 -1.4,5.1 -2.3,7.6 0.9,1 2.4,3 3.1,6.6 0.9,5 2.6,12 -0.4,30.3 -1.7,10 -3.7,16 -4.2,17.4 -0.5,1.4 0.3,2.2 1.3,0.9 2.2,-2.9 5,-11.1 7.4,-20.5 2.4,-9.3 3.2,-17.2 3.6,-22.3 v 0 c 0,-0.5 0.1,-0.9 0.1,-1.3 l 0,-0.2 c 0,-0.4 0,-0.8 0.1,-1.2 0,-0.2 0,-0.4 0.1,-0.5 0,0 0,-0.1 0,-0.1 0,-0.1 0,-0.1 0.1,-0.2 0,0 0,0 0,0 0,-0.1 0.1,-0.2 0.2,-0.2 0,0 0,0 0,0 0,0 0.1,-0.1 0.1,-0.1 0,0 0.1,0 0.1,0 0,0 0,0 0.1,0 0.1,0 0.1,0 0.1,0 0,0 0,0 0.1,0 0,0 0.1,0 0.1,0 0,0 0,0 0,0 0.2,0 0.4,0.1 0.5,0.2 0.5,0.2 2.6,0.8 3.7,5.9 0,0.2 0.1,0.4 0.1,0.6 0,0.1 0,0.2 0,0.2 0.1,0.2 0.1,0.4 0.1,0.6 l 0,0 c 0.9,4 2.6,10.9 5,25 1.1,6.1 2.2,13.4 3.6,22.5 0.1,0.5 0.1,0.9 0.2,1.3 0,0 0,0.1 0,0.1 0,0.4 0.1,0.7 0.1,1 0,0 0,0.1 0,0.1 0,0.1 0,0.3 0,0.4 0,0.1 0,0.2 -0.1,0.3 0,0 0,0.1 0,0.1 0,0.2 -0.1,0.3 -0.2,0.5 0,0 0,0 0,0.1 -0.1,0.1 -0.2,0.2 -0.3,0.3 0,0 -0.1,0 -0.1,0.1 -0.1,0.1 -0.3,0.1 -0.4,0.2 0,0 -0.1,0 -0.2,0 -0.1,0 -0.3,0.1 -0.4,0.1 -0.1,0 -0.2,0 -0.3,0.1 -0.2,0 -0.4,0.1 -0.7,0.1 -0.4,0.1 -1.1,0.2 -1.5,0.2 -0.8,0.1 -1.6,0.1 -2.6,0.2 -9.2,0.8 -27.3,2.7 -41.7,4.5 -0.3,0 -0.6,0.1 -0.8,0.1 -1.1,0.2 -1.8,0 -1.9,-1.1 -0.1,-1 -1.8,-11.1 -6.9,-19.6 -0.5,-0.8 -1,-1.6 -1.5,-2.3 -0.6,-0.8 0.3,-1.5 1.1,-1.2 2.3,0.8 8.7,3.7 17.9,10.3 2.3,1.7 2.9,2.2 3.5,2.6 0.1,0.1 0.2,0.1 0.3,0.2 0,0 0.1,0 0.1,0 0.1,0 0.1,0 0.2,0.1 0,0 0.1,0 0.1,0 0.1,0 0.2,0 0.3,0 0,0 0.1,0 0.1,0 0.1,0 0.2,0 0.3,-0.1 0.2,-0.1 0.3,-0.4 0.1,-0.8 -0.6,-1.6 -3.6,-4.8 -11.5,-12 -1.1,-1 -1.1,-1.5 0,-1.6 1.2,-0.1 4.3,0 6,0 1.7,-0.1 5.4,-0.2 4.7,-5.1 -0.6,-3.8 -1,-7.7 -1.1,-8.9 -0.1,-1 -0.2,-2.7 -2,-3.4 -7.7,1.6 -15.4,2.5 -23.1,3 -0.3,1.2 -0.4,2.3 -0.3,3.6 0,0.3 0,0.6 -0.3,0.7 -1.9,0.7 -4.1,-1.4 -5.8,-2.6 -0.6,-0.4 -1.2,-0.9 -1.8,-1.3 -6.6,0.2 -13.3,0.2 -20,0.2 1.4,0.6 2.3,1 2.6,1.2 0.3,0.4 0.9,1.1 -0.2,1.4 -1.1,0.3 -4.3,0.4 -7.7,1.7 -0.2,0.1 -0.4,0.2 -0.5,0.2 -1.2,0.5 -1.7,1.1 -2,1.6 0,0.1 -0.1,0.2 -0.1,0.3 0,0.1 0,0.2 0,0.3 0,0.1 0,0.3 0,0.4 0,0.1 0,0.2 0,0.3 0,0.2 0,0.3 0,0.5 0,0.3 0.1,0.6 0.1,0.9 0.2,1.8 0.5,3.1 0.7,5.6 0.2,2.5 0.1,4.7 1.3,5.7 1.2,1 2.8,1.6 7.2,0.8 4.1,-0.8 5.5,-1.2 6,-1.2 0.5,0 1.6,-0.2 0.9,1.1 -0.1,0.1 -0.2,0.3 -0.3,0.5 -1,1.7 -3.3,5.5 -4,8 -0.9,2.8 -1,3.6 -1.1,4.1 -0.1,0.5 0.3,1.4 1.1,0.4 0.9,-1 2.5,-4.9 6.8,-9.8 0.6,-0.7 1.1,-1.2 1.6,-1.8 0,0 0,0 0,0 0.4,-0.4 0.7,-0.8 1.1,-1.1 0.1,-0.1 0.2,-0.2 0.3,-0.3 0.3,-0.3 0.6,-0.5 0.8,-0.8 0.1,-0.1 0.1,-0.1 0.2,-0.2 0.6,-0.6 1.2,-1 1.7,-1.4 0,0 0.1,-0.1 0.1,-0.1 0.2,-0.1 0.4,-0.3 0.5,-0.4 0,0 0.1,-0.1 0.1,-0.1 0.2,-0.1 0.3,-0.2 0.5,-0.3 0,0 0.1,0 0.1,-0.1 0,0 0,0 0,0 0.2,-0.1 0.3,-0.2 0.5,-0.2 1.2,-0.6 1.5,0.2 1.1,2.1 -0.3,1.4 -1.4,6.2 -5.6,15.9 -0.3,0.7 -0.6,1.3 -0.8,1.9 -0.1,0.1 -0.1,0.3 -0.2,0.4 -0.1,0.2 -0.2,0.5 -0.3,0.7 0,0 0,0 0,0.1 -0.2,0.3 -0.3,0.7 -0.5,1 0,0 0,0 0,0 0,0 0,0.1 -0.1,0.1 -0.1,0.1 -0.1,0.2 -0.2,0.3 -0.1,0.1 -0.1,0.3 -0.2,0.4 0,0 0,0 0,0 0,0 0,0.1 -0.1,0.1 -0.1,0.1 -0.2,0.3 -0.2,0.3 0,0 0,0 0,0.1 0,0 0,0 0,0 -0.1,0.1 -0.1,0.2 -0.1,0.2 0,0 0,0.1 0,0.1 0,0 0,0 0,0 -0.1,0.1 -0.1,0.2 -0.2,0.3 0,0 0,0 0,0 -0.1,0.1 -0.2,0.2 -0.2,0.3 0,0 0,0 0,0 -0.1,0.1 -0.1,0.2 -0.2,0.3 0,0 0,0 0,0 -0.1,0.1 -0.2,0.2 -0.2,0.3 0,0 0,0 0,0 0,0 -0.1,0.1 -0.1,0.1 h 0 c 0,0 0,0.1 -0.1,0.1 0,0 0,0 -0.1,0 -0.1,0.1 -0.2,0.1 -0.2,0.2 0,0 0,0 0,0 -0.1,0.1 -0.1,0.1 -0.2,0.2 0,0 0,0 -0.1,0 0,0 0,0 0,0 0,0 0,0 0,0 -0.1,0 -0.1,0.1 -0.2,0.1 0,0 0,0 0,0 -0.1,0 -0.2,0.1 -0.2,0.1 0,0 0,0 -0.1,0 -0.1,0 -0.2,0.1 -0.3,0.1 -0.9,0.2 -1.8,0.3 -2.4,0.4 -0.1,0 -0.6,0.1 -0.7,0.1 -0.2,0 -0.5,0.1 -0.7,0.1 0,0 0,0 0,0 -6.3,1.1 -23.6,4 -31.5,5.6 -5.3,1.1 -4.8,-1.6 -6.1,-6.4 -0.6,-2 -2.5,-19.9 -1.5,-31.2 0.3,-3.7 0.5,-4.8 1.2,-5.2 0.7,-0.4 1.7,-1.1 2,-1.2 0.3,-0.1 1.2,-0.3 1.6,0.4 0.4,0.8 8.2,16.5 13.2,22.1 4.5,5.1 7.6,8.7 11.4,11.2 0.3,0.2 0.5,0.3 0.7,0.3 0,0 0,0 0.1,0 0.1,0 0.2,0 0.2,0.1 0.1,0 0.1,0 0.2,0 0,0 0,0 0.1,0 0.1,0 0.2,-0.1 0.3,-0.2 0,0 0,0 0,0 0.1,-0.1 0.1,-0.2 0.1,-0.3 0,0 0,0 0,-0.1 0.1,-0.6 -0.2,-1.5 -0.7,-2.1 -0.8,-0.9 -4.3,-4.5 -8.8,-10.9 -5.9,-8.4 -9.9,-20.7 -10.9,-24.6 -0.7,-2.6 -1.1,-6.7 -1,-9.9 0,0 0,0 0,0 0,-0.1 0,-0.3 0,-0.4 0,-0.1 0,-0.2 0,-0.3 0,-0.2 0,-0.4 0,-0.6 0,-0.3 0,-0.6 0.1,-0.9 0,-0.1 0,-0.2 0,-0.3 0,-0.2 0.1,-0.4 0.1,-0.6 0,-0.1 0,-0.2 0.1,-0.3 0.1,-0.3 0.1,-0.5 0.2,-0.7 0.9,-2.6 1.7,-2.3 2.5,-1.5 0.4,0.4 2.4,2.2 5.6,4.6 -3.6,-7 -10.4,-10.9 -16.4,-15.5 -0.6,1.6 -2.7,8.5 -4.3,15.7 -0.3,1.4 -0.8,3.1 -2.5,4 -1.7,0.8 -5.5,2.9 -6.9,3.7 -1.4,0.8 -2.1,1.2 -3.7,3.2 -0.7,0.9 -1.2,1.4 -1.7,2 -0.3,0.3 -0.4,0.5 -1.7,1.2 -1.2,0.6 -18.7,6.8 -37.2,18.1 -0.5,0.3 -0.9,0.5 -1.3,0.8 1.1,1.7 2.2,3.4 3.4,5 4.2,-2.1 14.1,-7.1 15.7,-7.9 1.2,-0.6 2.8,-0.9 4,-0.9 0.7,0 1.4,0 1.8,0.1 0.8,0.2 2.3,0.5 3.6,0.8 0.1,0 0.2,0.1 0.4,0.1 0.1,0 0.2,0 0.2,0.1 0.5,0.1 1.1,0.3 1.5,0.4 0,0 0,0 0.1,0 0.2,0.1 0.4,0.1 0.5,0.1 1.2,0.4 1.8,2.6 1.2,4.6 -0.1,0.4 -0.5,1.7 -1,3.5 -0.3,1 -0.6,2 -0.9,3.3 -0.3,1.2 -0.7,2.6 -1.1,4 -1.4,5 -3,10.9 -4.4,16.3 3.7,3.4 7.6,6.5 11.6,9.5 0.5,-3.5 0.9,-7.1 1.3,-9.8 1,-6.9 6.5,-32.5 8,-38.3 1.1,-4.2 1.7,-6.2 3.2,-6.8 0.4,-0.2 1,-0.5 1.2,-0.6 0.3,-0.1 0.9,-0.3 0.7,0.8 -0.2,1.3 -1.4,6.8 -3.1,24.4 -1.2,12.2 -1.2,23 -0.8,29.5 0.2,2.8 0.2,6.7 4.5,5 5,-2 21.8,-8 30.9,-10.8 14.5,-4.5 41.8,-10.5 68,-14.3 l 7.3,-1 c 0,0 4.3,25.2 5,29.6 l 0.8,4.6 -0.8,-4.6 c -0.7,-4.4 -5,-29.6 -5,-29.6 1,-0.1 2.1,-0.3 3.1,-0.4 2.4,-0.3 4.6,-0.6 6.6,-0.8 l 7.7,-1 c 3.6,-0.5 6.7,-0.9 9.3,-1.2 0,0 5,22.9 6.8,31.1 0.1,0.5 0.2,1 0.3,1.4 l 0.9,4.2 c 0,0 0,0 0,0 l -0.9,-4.2 c -1.5,-6.5 -7.2,-32.6 -7.2,-32.6 l 7.8,-1 c 2.3,-0.3 5.3,-0.7 6.2,-0.7 1.8,-0.1 2.6,-1.1 1.2,-1.5 -1,-0.3 -3.4,-0.5 -4.6,-0.6 -0.5,0 -1.3,0 -1.8,0 -1.8,0 -2.3,-0.4 -2.7,-3.1 -1.1,-7.9 -5.5,-27.3 -8.6,-37.6 -3,-9.9 -3.8,-12.7 -4.5,-14.9 -0.6,-1.9 0.6,-2 1.2,-2 2.2,0.1 5.3,1.3 6.2,3.2 1.9,4.2 15.3,39.1 20.6,52.1 3.4,8.2 7.3,18.1 11,26.8 2.4,-2 4.7,-4 6.9,-6.1 -6.9,-15.2 -22.3,-49.6 -30.4,-67 -0.3,-0.6 -0.7,-1.6 -0.9,-2.2 -0.1,-0.2 -0.1,-0.4 -0.1,-0.5 0,-1.1 1.5,-1.3 2.2,-1.2 2.9,0.3 28.9,2 36,2.7 4.7,0.4 9.4,1.2 12.5,1.7 0.7,0.1 1.4,0.3 1.9,0.4 0.7,0.1 1.2,0.2 1.5,0.3 2.3,0.6 6.4,2.2 10.2,4.3 1.6,0.8 3.3,2 5.3,3.5 0.6,-1.6 1.1,-3.3 1.7,-4.9 -1.9,-0.8 -3.4,-1.7 -4.9,-2.5 z m -140.3,54.5 c -0.7,0.2 -3.6,0.6 -4.1,0.6 -0.4,0 -0.8,-0.4 -0.6,-0.7 0.2,-0.3 2.2,-2.9 3.3,-7.5 0.2,-0.7 0.7,-1.3 1,-0.2 0.2,0.8 1.1,4.7 1.4,6.1 0,0.2 0.2,1.4 -1,1.7 z" /><polygon
           id="polygon50"
           points="-161.3,210 -161.3,210.5 -160.3,210.5 -160.3,213.1 -159.6,213.1 -159.6,210.5 -158.6,210.5 -158.6,210 " /><polygon
           id="polygon52"
           points="-158.1,210 -158.1,213.1 -157.5,213.1 -157.5,210.6 -156.6,213.1 -156.1,213.1 -155.3,210.6 -155.3,213.1 -154.7,213.1 -154.7,210 -155.6,210 -156.4,212.2 -157.2,210 " /></g></g><g
       transform="translate(-4.7000122,-44.2)"
       id="g54"><path
         style="fill:#ab182f"
         inkscape:connector-curvature="0"
         id="path56"
         d="m -248.4,327.1 c 0,2.4 -0.4,4.6 -1.1,6.6 -0.7,2 -1.8,3.7 -3.2,5.2 -1.4,1.5 -3.1,2.6 -5,3.3 -2,0.8 -4.2,1.2 -6.6,1.2 -2.4,0 -4.6,-0.4 -6.5,-1.2 -1.9,-0.8 -3.6,-1.9 -5,-3.4 -1.4,-1.5 -2.5,-3.2 -3.2,-5.2 -0.7,-2 -1.1,-4.2 -1.1,-6.6 0,-2.4 0.4,-4.6 1.1,-6.7 0.7,-2 1.8,-3.7 3.2,-5.2 1.4,-1.4 3.1,-2.5 5,-3.3 2,-0.8 4.1,-1.2 6.5,-1.2 2.4,0 4.6,0.4 6.6,1.2 2,0.8 3.7,1.9 5.1,3.3 1.4,1.4 2.5,3.2 3.2,5.2 0.7,2 1,4.4 1,6.8 z m -8,0 c 0,-3.3 -0.7,-5.8 -2.2,-7.6 -1.5,-1.8 -3.4,-2.7 -5.8,-2.7 -1.6,0 -2.9,0.4 -4.1,1.2 -1.2,0.8 -2.1,2 -2.8,3.6 -0.7,1.6 -1,3.4 -1,5.5 0,2.1 0.3,3.9 1,5.5 0.6,1.6 1.5,2.8 2.7,3.6 1.2,0.8 2.6,1.2 4.2,1.2 2.4,0 4.4,-0.9 5.8,-2.7 1.4,-1.8 2.2,-4.4 2.2,-7.6 z" /><path
         inkscape:connector-curvature="0"
         id="path58"
         d="m -212.7,316.7 v 23.2 c 0,2.7 -0.3,4.9 -0.8,6.9 -0.6,1.9 -1.5,3.5 -2.7,4.7 -1.3,1.3 -2.9,2.2 -4.9,2.8 -2,0.6 -4.5,0.9 -7.5,0.9 -2.8,0 -5.2,-0.4 -7.4,-1.2 -2.2,-0.8 -3.8,-1.8 -5,-3 -1.2,-1.2 -1.8,-2.5 -1.8,-3.8 0,-1 0.3,-1.8 1,-2.4 0.7,-0.6 1.5,-0.9 2.4,-0.9 1.2,0 2.2,0.5 3.1,1.6 0.4,0.5 0.9,1.1 1.3,1.6 0.5,0.5 1,1 1.5,1.4 0.5,0.4 1.2,0.7 2,0.8 0.8,0.2 1.7,0.3 2.7,0.3 2.1,0 3.7,-0.3 4.8,-0.9 1.1,-0.6 1.9,-1.4 2.4,-2.4 0.5,-1 0.7,-2.1 0.8,-3.3 0.1,-1.2 0.1,-3.1 0.2,-5.7 -1.2,1.7 -2.7,3 -4.3,3.9 -1.6,0.9 -3.5,1.3 -5.8,1.3 -2.7,0 -5,-0.7 -7,-2.1 -2,-1.4 -3.5,-3.3 -4.6,-5.7 -1.1,-2.5 -1.6,-5.3 -1.6,-8.5 0,-2.4 0.3,-4.6 1,-6.5 0.7,-1.9 1.6,-3.6 2.8,-4.9 1.2,-1.3 2.6,-2.3 4.2,-3 1.6,-0.7 3.3,-1 5.2,-1 2.3,0 4.2,0.4 5.9,1.3 1.7,0.9 3.2,2.2 4.6,4.1 v -1.1 c 0,-1.4 0.3,-2.5 1,-3.2 0.7,-0.8 1.6,-1.1 2.6,-1.1 1.5,0 2.6,0.5 3.1,1.5 0.6,1 0.8,2.5 0.8,4.4 z m -23.2,10.1 c 0,3.2 0.7,5.7 2.1,7.4 1.4,1.7 3.2,2.5 5.5,2.5 1.3,0 2.6,-0.4 3.8,-1.1 1.2,-0.7 2.1,-1.8 2.9,-3.2 0.7,-1.4 1.1,-3.2 1.1,-5.2 0,-3.3 -0.7,-5.8 -2.2,-7.6 -1.5,-1.8 -3.3,-2.7 -5.7,-2.7 -2.3,0 -4.1,0.9 -5.5,2.6 -1.4,1.7 -2,4.1 -2,7.3 z" /><path
         inkscape:connector-curvature="0"
         id="path60"
         d="m -176.2,327.1 c 0,2.4 -0.4,4.6 -1.1,6.6 -0.7,2 -1.8,3.7 -3.2,5.2 -1.4,1.5 -3.1,2.6 -5,3.3 -2,0.8 -4.2,1.2 -6.6,1.2 -2.4,0 -4.6,-0.4 -6.5,-1.2 -1.9,-0.8 -3.6,-1.9 -5,-3.4 -1.4,-1.5 -2.5,-3.2 -3.2,-5.2 -0.7,-2 -1.1,-4.2 -1.1,-6.6 0,-2.4 0.4,-4.6 1.1,-6.7 0.7,-2 1.8,-3.7 3.2,-5.2 1.4,-1.4 3.1,-2.5 5,-3.3 2,-0.8 4.1,-1.2 6.5,-1.2 2.4,0 4.6,0.4 6.6,1.2 2,0.8 3.7,1.9 5.1,3.3 1.4,1.4 2.5,3.2 3.2,5.2 0.7,2 1,4.4 1,6.8 z m -8,0 c 0,-3.3 -0.7,-5.8 -2.2,-7.6 -1.5,-1.8 -3.4,-2.7 -5.8,-2.7 -1.6,0 -2.9,0.4 -4.1,1.2 -1.2,0.8 -2.1,2 -2.8,3.6 -0.7,1.6 -1,3.4 -1,5.5 0,2.1 0.3,3.9 1,5.5 0.6,1.6 1.5,2.8 2.7,3.6 1.2,0.8 2.6,1.2 4.2,1.2 2.4,0 4.4,-0.9 5.8,-2.7 1.4,-1.8 2.2,-4.4 2.2,-7.6 z" /><path
         inkscape:connector-curvature="0"
         id="path62"
         d="m -149.1,338.8 v -1 c -1,1.2 -2,2.2 -3,3 -1,0.8 -2.2,1.4 -3.5,1.8 -1.3,0.4 -2.7,0.6 -4.3,0.6 -1.9,0 -3.7,-0.4 -5.2,-1.2 -1.5,-0.8 -2.7,-1.9 -3.6,-3.3 -1,-1.7 -1.5,-4.1 -1.5,-7.3 v -15.8 c 0,-1.6 0.4,-2.8 1.1,-3.6 0.7,-0.8 1.7,-1.2 2.9,-1.2 1.2,0 2.2,0.4 2.9,1.2 0.7,0.8 1.1,2 1.1,3.6 v 12.8 c 0,1.9 0.2,3.4 0.5,4.7 0.3,1.3 0.9,2.2 1.7,3 0.8,0.7 1.9,1.1 3.3,1.1 1.3,0 2.6,-0.4 3.8,-1.2 1.2,-0.8 2.1,-1.8 2.6,-3.1 0.4,-1.1 0.7,-3.6 0.7,-7.4 v -9.7 c 0,-1.6 0.4,-2.8 1.1,-3.6 0.7,-0.8 1.7,-1.2 2.9,-1.2 1.2,0 2.1,0.4 2.9,1.2 0.8,0.8 1.1,2 1.1,3.6 V 339 c 0,1.5 -0.3,2.7 -1,3.4 -0.7,0.7 -1.6,1.1 -2.7,1.1 -1.1,0 -2,-0.4 -2.7,-1.2 -0.7,-1 -1.1,-2.1 -1.1,-3.5 z" /><path
         inkscape:connector-curvature="0"
         id="path64"
         d="m -125.7,331.8 v 6.7 c 0,1.6 -0.4,2.8 -1.1,3.6 -0.7,0.8 -1.7,1.2 -2.9,1.2 -1.2,0 -2.1,-0.4 -2.8,-1.2 -0.7,-0.8 -1.1,-2 -1.1,-3.6 v -22.3 c 0,-3.6 1.3,-5.4 3.9,-5.4 1.3,0 2.3,0.4 2.9,1.3 0.6,0.9 0.9,2.1 1,3.7 1,-1.6 1.9,-2.9 2.9,-3.7 1,-0.8 2.3,-1.3 4,-1.3 1.7,0 3.3,0.4 4.9,1.3 1.6,0.9 2.4,2 2.4,3.3 0,1 -0.3,1.8 -1,2.4 -0.7,0.6 -1.4,1 -2.2,1 -0.3,0 -1,-0.2 -2.1,-0.5 -1.1,-0.3 -2.1,-0.5 -3,-0.5 -1.2,0 -2.1,0.3 -2.9,0.9 -0.8,0.6 -1.3,1.5 -1.7,2.7 -0.4,1.2 -0.7,2.7 -0.8,4.3 -0.1,1.6 -0.4,3.7 -0.4,6.1 z" /><path
         inkscape:connector-curvature="0"
         id="path66"
         d="M -87,338.8 V 338 c -1.1,1.2 -2.1,2.2 -3.2,3 -1.1,0.8 -2.2,1.4 -3.4,1.8 -1.2,0.4 -2.6,0.6 -4,0.6 -1.9,0 -3.7,-0.4 -5.3,-1.2 -1.6,-0.8 -3,-2 -4.2,-3.5 -1.2,-1.5 -2.1,-3.3 -2.7,-5.3 -0.6,-2 -0.9,-4.2 -0.9,-6.6 0,-5 1.2,-8.9 3.7,-11.7 2.5,-2.8 5.7,-4.2 9.6,-4.2 2.3,0 4.2,0.4 5.8,1.2 1.6,0.8 3.1,2 4.6,3.6 v -11.8 c 0,-1.6 0.3,-2.9 1,-3.7 0.7,-0.8 1.6,-1.3 2.8,-1.3 1.2,0 2.1,0.4 2.8,1.2 0.7,0.8 1,1.9 1,3.4 v 35.3 c 0,1.5 -0.4,2.7 -1.1,3.4 -0.7,0.7 -1.6,1.1 -2.7,1.1 -1.1,0 -2,-0.4 -2.7,-1.2 -0.7,-0.8 -1.1,-1.9 -1.1,-3.3 z M -102.7,327 c 0,2.2 0.3,4 1,5.5 0.7,1.5 1.6,2.7 2.8,3.4 1.2,0.7 2.5,1.2 3.8,1.2 1.4,0 2.7,-0.4 3.9,-1.1 1.2,-0.7 2.1,-1.9 2.8,-3.4 0.7,-1.5 1,-3.4 1,-5.7 0,-2.1 -0.3,-4 -1,-5.5 -0.7,-1.5 -1.6,-2.7 -2.8,-3.5 -1.2,-0.8 -2.5,-1.2 -3.9,-1.2 -1.5,0 -2.8,0.4 -3.9,1.2 -1.1,0.8 -2,2 -2.7,3.6 -0.7,1.6 -1,3.5 -1,5.5 z" /></g><g
       transform="translate(-4.7000122,-44.2)"
       id="g68"><path
         inkscape:connector-curvature="0"
         id="path70"
         d="m -71.2,299.3 h -1.6 v 5.2 c 0,0.3 -0.1,0.5 -0.2,0.7 -0.1,0.1 -0.3,0.2 -0.5,0.2 -0.2,0 -0.4,-0.1 -0.5,-0.2 -0.1,-0.1 -0.2,-0.4 -0.2,-0.7 v -5.2 h -1.6 c -0.2,0 -0.4,-0.1 -0.6,-0.2 -0.1,-0.1 -0.2,-0.3 -0.2,-0.4 0,-0.2 0.1,-0.3 0.2,-0.4 0.1,-0.1 0.3,-0.2 0.5,-0.2 h 4.6 c 0.3,0 0.4,0.1 0.6,0.2 0.1,0.1 0.2,0.3 0.2,0.4 0,0.1 -0.1,0.3 -0.2,0.4 0,0.1 -0.2,0.2 -0.5,0.2 z" /><path
         inkscape:connector-curvature="0"
         id="path72"
         d="m -67.1,304.2 -1.1,-4.6 v 4.9 c 0,0.3 -0.1,0.5 -0.2,0.6 -0.1,0.1 -0.3,0.2 -0.5,0.2 -0.2,0 -0.4,-0.1 -0.5,-0.2 -0.1,-0.1 -0.2,-0.3 -0.2,-0.6 v -5.7 c 0,-0.3 0.1,-0.5 0.2,-0.6 0.2,-0.1 0.4,-0.2 0.7,-0.2 h 0.4 c 0.3,0 0.5,0 0.6,0.1 0.1,0 0.2,0.1 0.3,0.3 0.1,0.2 0.1,0.3 0.2,0.6 l 1,3.9 1,-3.9 c 0.1,-0.3 0.1,-0.5 0.2,-0.6 0.1,-0.1 0.1,-0.2 0.3,-0.3 0.1,0 0.3,-0.1 0.6,-0.1 h 0.4 c 0.3,0 0.5,0.1 0.7,0.2 0.2,0.1 0.2,0.3 0.2,0.6 v 5.7 c 0,0.3 -0.1,0.5 -0.2,0.6 -0.1,0.1 -0.3,0.2 -0.5,0.2 -0.2,0 -0.3,-0.1 -0.5,-0.2 -0.2,-0.1 -0.2,-0.3 -0.2,-0.6 v -4.9 l -1.1,4.6 c -0.1,0.3 -0.1,0.5 -0.2,0.7 0,0.1 -0.1,0.3 -0.3,0.4 -0.2,0.1 -0.3,0.2 -0.5,0.2 -0.2,0 -0.3,0 -0.4,-0.1 -0.1,-0.1 -0.2,-0.2 -0.3,-0.3 -0.1,-0.1 -0.1,-0.2 -0.2,-0.4 0.1,-0.3 0.1,-0.4 0.1,-0.5 z" /></g><g
       transform="translate(-4.7000122,-44.2)"
       id="g74"><path
         style="fill:#fff1e2"
         inkscape:connector-curvature="0"
         id="path76"
         d="m -194.2,181.7 c -4.5,0 -9,0 -13.4,0 -0.3,-0.2 -0.6,-0.2 -0.9,-0.2 -3.1,-0.1 -6.3,-0.4 -9.4,-0.3 -1.8,0 -3.6,-0.5 -5.4,-0.4 -0.2,0 -0.5,0 -0.7,-0.2 -1.2,-1.1 -2.9,-1.4 -3.9,-2.7 -0.2,-0.2 -0.4,-0.5 -0.7,-0.5 -2.5,-0.5 -4.3,-2.4 -6.7,-2.9 -0.2,0 -0.4,-0.1 -0.5,-0.3 -1.1,-1.3 -2.6,-2 -4,-3 -1.1,-0.8 -2.1,-1.1 -3.4,-1.1 -2.1,0 -2.2,-0.1 -2.5,-2.1 -0.1,-0.7 -0.4,-1.3 -1,-1.8 -2.4,-2.2 -4.8,-4.4 -6.8,-6.9 -2,-2.5 -4.1,-5 -5.7,-7.8 -1.2,-2.1 -2.4,-4.1 -3.3,-6.4 -0.9,-2.3 -2.1,-4.6 -2.9,-7 -0.8,-2.4 -1.6,-4.8 -1.9,-7.3 -0.4,-2.5 -0.7,-5 -0.6,-7.6 0,-0.3 -0.1,-0.5 -0.2,-0.7 0,-2.5 0,-5.1 0,-7.6 0.3,-0.4 0.2,-0.9 0.2,-1.4 0.1,-2.1 0,-4.2 0.2,-6.3 0.3,-3.1 1,-6 2.1,-8.8 2.2,-5.5 5,-10.7 8.5,-15.6 2.7,-3.7 6,-6.9 9.2,-10 1.9,-1.8 4.1,-3.1 6.2,-4.7 3.3,-2.5 7,-4.5 10.7,-6.3 1.4,-0.7 1.5,-1 0.9,-2.5 -0.5,-1.4 -1.3,-2.5 -2.3,-3.6 -3,-3.4 -6.6,-6.2 -9.9,-9.3 -1.8,-1.6 -3.6,-3.2 -5.2,-4.9 -2.3,-2.4 -4.3,-5.1 -5.8,-8.1 -0.5,-0.9 -1.1,-1.8 -1.5,-2.8 -1.5,-3.2 -2.1,-6.7 -3.1,-10 -0.2,-0.6 -0.2,-1.1 -0.2,-1.7 0,-3.3 0,-6.6 0,-9.9 0,-1.6 0.5,-3.2 0.8,-4.8 0.6,-3.2 1.7,-6.2 3.2,-9 1.2,-2.2 2.3,-4.5 3.7,-6.6 2.2,-3.3 5,-6.1 7.9,-8.8 3.2,-3.1 6.8,-5.7 10.8,-7.9 0.8,-0.5 1.7,-0.7 2.6,-1.1 0.6,-0.3 1.2,-0.6 1.2,-1.4 -0.1,-0.8 -0.3,-1.6 -1.1,-1.9 -1.2,-0.4 -1.3,-1.4 -1.5,-2.3 -0.3,-1.2 0.2,-1.8 1.5,-1.9 1,-0.1 1.8,-0.3 2.2,-1.2 0.1,-0.3 0.5,-0.4 0.7,-0.6 0.6,0 1.1,0 1.7,0 1.1,0.5 2.2,0.6 3.4,0.5 0.8,-0.1 1.4,0.2 2,0.9 0.7,0.9 1.7,1.6 2.2,2.7 0.4,0.9 1.5,0.7 2.3,0.6 2.8,-0.4 5.5,-0.9 8.3,-0.8 2.3,0 4.7,0.5 7,0.7 2.6,0.3 5.1,1 7.4,1.8 4.1,1.4 8,3.1 11.7,5.5 3.1,2 5.9,4.3 8.4,7 2.9,3.2 5.5,6.6 7.5,10.5 1.4,2.9 2.3,6 3.5,9 0.4,0.9 0.3,2 0.5,3 0.3,1.8 0.8,3.5 0.7,5.3 -0.1,1.9 -0.1,3.7 0,5.6 0.1,2.9 -0.6,5.6 -1.2,8.4 -0.8,4.4 -2.4,8.4 -4.4,12.4 -1.3,2.6 -2.6,5.1 -4.2,7.6 -1.8,2.8 -3.6,5.6 -5.3,8.5 -0.8,1.2 -1.1,2.7 -1.4,4.1 -0.3,1.2 0.1,1.9 1.4,2.3 1.8,0.5 3.6,1.2 5.4,1.6 1.8,0.5 3.6,1.1 5.3,1.9 3.8,1.8 7.7,3.6 11.2,6 2.3,1.6 4.6,3.2 6.6,5.3 1.5,1.6 3.1,3.3 4.8,4.7 4,3.5 6.9,7.9 9,12.6 2.3,5.1 4.5,10.3 5.4,15.9 0.5,2.8 0.5,5.8 0.4,8.7 0,0.5 -0.1,1 0.2,1.4 0,1.1 0,2.1 0,3.2 -0.4,0.6 -0.3,1.3 -0.2,1.9 0.3,3.9 -0.6,7.7 -1.8,11.3 -0.8,2.4 -1.6,4.9 -2.9,7.2 -1.2,1.9 -1.8,4.1 -3,6 -2,3.3 -4.1,6.5 -6.9,9.3 -1.3,1.2 -2.3,2.7 -3.5,4 -3.3,3.6 -7.3,6.3 -11.3,9.1 -2.5,1.8 -5,3.6 -7.8,4.9 -2.2,1 -4.2,2.3 -6.6,2.9 -0.3,0.1 -0.6,0.1 -0.8,0.3 -2.7,1.7 -5.8,2.5 -8.8,3.7 -2.7,1.1 -5.5,1.6 -8.2,2.1 -1.5,0.3 -3.2,0.3 -4.8,0.4 -0.4,0 -0.9,-0.1 -1.3,0.2 z" /></g><g
       transform="translate(-4.7000122,-44.2)"
       id="g78"><path
         inkscape:connector-curvature="0"
         id="path80"
         d="m -203.9,129.2 6.9,-1.2 c 1.3,-1.4 3.2,-2.1 5.4,-2.1 0.9,0 1.8,0.1 2.6,0.2 l 0.3,0 c 0.8,0.1 1.5,0.1 2.1,0.1 1.2,0 2.8,-0.2 3.4,-1 0.4,-0.5 0.8,-1.8 -0.1,-5.1 -1.7,-1.7 -1.9,-3.9 -1.9,-5.6 -0.2,-0.4 -0.5,-0.8 -0.8,-1.3 -1.2,-1.7 -2.6,-3.8 -2.5,-6.6 l -2.1,-3.2 h -2.6 l -2.2,-4.8 h 7.4 l 4.5,6.8 -0.1,0.9 c -0.2,1.4 0.5,2.6 1.7,4.3 0.5,0.7 0.9,1.4 1.3,2.2 l 0.3,0.5 0,0.6 c 0,1.8 0.1,2.4 0.7,2.9 l 0.6,0.5 0.2,0.7 c 1.4,4.5 1.3,7.8 -0.4,10.1 -1.8,2.5 -5.1,3.4 -10,2.8 l -0.3,0 c -0.7,-0.1 -1.4,-0.2 -2,-0.2 -1.2,0 -1.7,0.3 -2.1,0.9 l -0.6,0.8 -12.4,2.2 2.7,-5.4 z" /><path
         inkscape:connector-curvature="0"
         id="path82"
         d="m -207.1,77 0.2,-0.6 c -1.3,0.4 -2.5,0.3 -3.4,-0.9 -3.8,0 -7.6,0 -11.3,0 0.2,-0.2 0.3,-0.5 0.2,-0.8 -2.8,0.6 -5.6,0.7 -8.4,-0.1 -2.1,0.8 -4.1,1.5 -6.2,2.3 -1.1,1 -2.2,2 -3.3,3 0,1.1 0,2.3 0,3.4 9.3,0.2 18.5,-1.1 27.8,1 3.9,0.9 8.6,0.6 10.8,-4.3 -2.1,-0.9 -4.2,-2 -6.4,-3 z" /><path
         inkscape:connector-curvature="0"
         id="path84"
         d="m -150.8,79.8 0,0 c -8,-2.1 -16.1,-2.2 -24.1,0.1 -0.5,0.1 -0.9,0.2 -1.4,0.3 -0.2,3.4 1.3,4.7 4.7,4.8 6.9,0.4 13.8,1.2 20.6,1.8 2.5,-0.4 3.8,-1.8 3.8,-3.1 0.1,-1.4 0.2,-3.3 -3.6,-3.9 z" /><path
         style="fill:#ffffff"
         inkscape:connector-curvature="0"
         id="path86"
         d="m -172.4,102.3 c 4.1,0.7 8.3,0.5 12.2,-0.5 0.8,-0.2 1.8,-0.8 1.6,-1.6 -0.1,-0.6 -0.8,-0.8 -1.3,-1.2 -1.1,-0.8 -1.4,-2.2 -2.2,-3.2 -1.5,-2 -5.1,-2 -6.6,0.1 -0.7,1 -1,2.4 -1.8,3.4 -0.4,0.5 -1,0.9 -1.2,1.5 -0.2,0.6 0.3,1.5 0.9,1.3" /><path
         inkscape:connector-curvature="0"
         id="path88"
         d="m -161.1,93.7 c -2,-1 -4.1,-1 -5.6,1 -1.1,-0.1 -2.2,-0.1 -3.3,-0.2 -1,-1.5 -2.1,-1.5 -3.2,0 -5.3,-0.5 -4.8,3.4 -5.3,6.7 1.8,2 4.5,1.3 6.7,2 2.4,-1.8 7.2,-1.9 5,-7 1.3,0.3 2.5,0.7 3,2.1 0.9,2.4 2.6,4 5.3,3.5 0.6,-0.1 1.1,-1.7 1.2,-2.6 0.1,-2.8 -1.6,-4.5 -3.8,-5.5 z" /><path
         style="fill:#ffffff"
         inkscape:connector-curvature="0"
         id="path90"
         d="m -227.6,99.4 c 5.6,0.6 11.3,0.9 16.9,0.8 -0.4,-2.1 -3.1,-2.6 -4.3,-4.4 -1.2,-1.7 -0.8,-4.6 -2.7,-5.5 -1.6,-0.7 -3.3,0.6 -4.5,1.8 -1.9,2.1 -3.4,5.3 -5.4,7.3 z" /><path
         inkscape:connector-curvature="0"
         id="path92"
         d="m -216.8,89.7 c -4.8,0.1 -9.5,0.1 -14.3,0.2 -2.3,-2.5 -3,-0.9 -3.4,1.4 l -0.1,0.1 c -4.6,-0.5 -7.8,4.5 -12.6,3.4 -0.1,1.3 0.3,2.3 1.4,3.1 5.3,1.7 10.4,4.5 16.3,3.1 -0.1,-2.5 -3.8,-3 -5.5,-4.6 1.7,1.6 5.5,2.1 5.5,4.6 0.5,0 0.9,-0.1 1.4,-0.1 5,-0.8 7.9,-4.6 11.1,-8 v 0 c 3.9,1.6 0.5,10.4 8.2,8.3 0.6,-1.6 1.2,-3.2 1.8,-4.8 -2.5,-3.5 -2.7,-10.3 -9.8,-6.7 z" /><path
         inkscape:connector-curvature="0"
         id="path94"
         d="m -220,154.9 c 8.8,-2.2 17.8,-3.7 26.8,-4.4 2,-0.2 4,-0.3 5.9,0.1 2.8,0.6 5.2,2.2 7.6,3.9 2,1.4 4.1,2.9 4.7,5.2 -2.8,-0.1 -4.8,2.7 -7.4,3.9 -1.7,0.8 -3.7,1 -5.6,1.1 -5.1,0.3 -10.4,0.5 -15.4,-0.6 -2.6,-0.6 -5,-1.5 -7.4,-2.7 -3.2,-1.6 -6.4,-3.8 -9.2,-6.5 z" /><path
         style="fill:#ffffff"
         inkscape:connector-curvature="0"
         id="path96"
         d="m -202.2,151.5 v 7 h 6.5 v -7.7 c -2.2,0.2 -4.4,0.4 -6.5,0.7 z" /><path
         style="fill:#ffffff"
         inkscape:connector-curvature="0"
         id="path98"
         d="m -193.1,150.5 c -0.6,0.1 -1.2,0.1 -1.8,0.2 v 7.8 h 6.5 v -8.1 c -1.6,-0.1 -3.2,0 -4.7,0.1 z" /></g><g
       transform="translate(-4.7000122,-44.2)"
       id="g100"><path
         style="fill:#ffffff"
         inkscape:connector-curvature="0"
         id="path102"
         d="m -240.7,-7.4 c 3.4,2 7.7,2.1 11.2,0.3 l -3.5,-5.5 -7.7,5.2" /><path
         style="fill:#ffffff"
         inkscape:connector-curvature="0"
         id="path104"
         d="m -191.4,-6.5 c -2.7,-0.4 -5.4,-1 -8.1,-1.6 -0.2,-1.4 0,-2.7 1,-3.7 1,-1 2.7,-1.2 3.7,-0.2 0.3,0.3 0.5,0.7 0.7,1 0.8,1.5 1.9,3.1 2.7,4.5 z" /><g
         id="g106"><g
           id="g108"><path
             inkscape:connector-curvature="0"
             id="path110"
             d="m -241,-7.9 c 0.9,-1.1 1.7,-2.3 2.7,-3.2 3.3,-2.6 7.3,-2.6 11.2,-3 1.4,-0.2 4.5,4.2 4,5.5 -0.1,0.4 -0.6,0.8 -1,0.9 -2.1,0.6 -4.2,1.3 -6.4,1.5 -2.8,0.3 -3.5,-1.8 -3.5,-4.7 -2.3,1.5 -4.2,2.8 -6.1,4 -0.3,-0.4 -0.6,-0.7 -0.9,-1 z" /><path
             inkscape:connector-curvature="0"
             id="path112"
             d="m -215.1,29 c -2.2,1.2 -10.4,1.9 -11.5,0.8 0.3,-0.2 0.5,-0.5 0.8,-0.5 2.2,0.4 3.9,-0.8 5.7,-1.9 2.2,-1.3 4.1,-0.7 5,1.6 z" /><path
             inkscape:connector-curvature="0"
             id="path114"
             d="m -223,-21.4 c -3.2,0.2 -5.7,0.3 -8.6,0.5 1.3,-2.8 6,-3 8.6,-0.5 z" /><path
             inkscape:connector-curvature="0"
             id="path116"
             d="m -172.2,33.8 c -3,0.4 -3.9,-0.9 -2.8,-3.7 0.3,-0.8 0.8,-1.6 1.6,-2 3.1,-1.7 4.5,-4.7 5.8,-7.8 0.3,-0.7 0.2,-1.6 1.3,-1.8 0.6,0.5 1.6,-9.1 -0.3,-13.7 -3.3,-8.1 -2.4,-17.1 -7.6,-23.7 -3.4,-4.7 -14.4,-7 -16.3,-6.8 -4.1,0.5 -8.3,-0.3 -12.3,2.1 -1.6,1 -3.3,1.1 -4.3,3.2 -0.9,1.9 -1.5,3.5 0.2,5.3 0.4,0.4 0.3,1.4 0.1,2 -0.5,1.9 -1.5,3.7 -1.5,5.6 0,2.7 0.9,5.4 1.3,8.1 0.2,1.1 0.4,2.4 0,3.2 -1.9,3.6 -4,7 -6.3,10.4 -0.3,0.5 -1.6,0.5 -2.4,0.4 -0.5,-0.1 -1,-0.7 -1.5,-1 -1.3,-0.7 -2.7,-0.5 -3.2,0.8 -0.3,0.7 0.3,2.3 1,2.7 0.9,0.5 2.2,0.4 3.3,0.1 1.7,-0.5 2.8,-0.2 3.3,1.6 0.2,0.5 0.5,0.9 0.4,0.8 1.7,0.2 2.9,0.1 3.9,0.6 1.7,0.8 3.3,2 4.9,3.1 0.4,0.2 0.5,0.8 1.1,1.8 -1.4,-0.2 -2.1,-0.5 -2.8,-0.5 -1.5,0 -3.2,-0.3 -4.4,0.4 -1.1,0.6 -1.5,2.3 -2.3,3.5 0.9,0.4 1.7,1 2.6,1.3 1.1,0.4 2.4,0.4 3.5,0.8 1.6,0.6 2.1,1.6 0.9,3.1 -2.1,2.5 -4.2,4.7 -7.9,4 -0.7,-0.1 -1.5,-0.1 -2.1,0.1 -0.6,0.2 -1.1,0.9 -1.6,1.3 0.5,0.4 1,1.1 1.5,1.2 2.3,0.3 4.5,0.6 6.8,0.5 3.7,-0.1 6.3,1 7.8,4.1 0.2,0.4 0,1.4 -0.2,1.5 -0.7,0.3 -1.3,0.7 -1.9,1.1 9.3,-0.1 18.6,-1.2 26.6,-5.6 -0.9,-0.1 -1.6,-0.5 -1.6,-1.7 0,-1.4 1,-2.1 2.4,-2.1 0.6,0 1.2,0.1 1.8,0.2 0.4,-1.4 0.8,-3 1.2,-4.5 0,0 0,0 0,0 z m -27.4,-50.5 c 1.6,-1.2 3.4,-2.3 5.1,-3.5 0.1,0.2 0.2,0.4 0.3,0.5 0.2,0 0.5,0 0.7,0 1.5,0.3 3.3,0.3 3.4,2.3 0.1,1.9 -1.7,2.3 -3.1,2.6 -1.7,0.3 -3.4,0.5 -5.2,0.5 -0.6,0 -1.4,-0.4 -1.7,-0.9 -0.2,-0.2 0.2,-1.2 0.5,-1.5 z m 18.8,17.9 c -0.1,4.1 -1.2,8 -2.7,11.9 -1.1,2.8 -1.8,5.7 -2.4,8.6 -0.8,3.7 -1,7.6 -2.3,11.1 -0.9,2.7 -3,4.9 -4.7,7.3 -0.3,0.4 -0.9,0.5 -1.4,0.7 -0.3,-0.5 -0.7,-1 -0.7,-1.6 -0.4,-2.5 -0.8,-5 -3.5,-6.7 2.2,-1.5 2.4,-3.4 1.7,-5.7 -0.2,-0.7 0.3,-1.7 0.6,-2.4 2.5,-4.9 2.2,-9.6 -0.7,-14.4 -2.7,-4.5 -5.1,-9.3 -7.5,-14 -1.3,-2.5 -0.5,-4.2 1.8,-5.3 1.4,0.7 2.8,1.9 3.5,1.6 0.9,-0.3 1.3,-2 1.9,-3 1,1.4 1.5,3.1 2.7,3.7 1.2,0.7 2.9,0.3 4.4,0.4 1.4,0.1 2.9,0.1 4.2,0.4 3.8,0.7 5.2,2.7 5.1,7.4 z" /></g><g
           id="g118"><path
             inkscape:connector-curvature="0"
             id="path120"
             d="m -244.8,38.8 c 0,0 0.3,0.1 0.9,0.3 0.3,0.1 0.6,0.2 1.1,0.4 0.4,0.2 0.9,0.4 1.4,0.7 1,0.6 2.3,1.3 3.5,2.3 1.3,1 2.7,2.2 4.1,3.5 1.4,1.3 2.9,2.8 4.5,4.1 1.6,1.3 3.5,2.5 5.3,3.4 2,0.9 4.1,1.6 6.4,2.1 2.3,0.4 4.6,0.6 7,0.6 2.4,0 4.7,-0.4 7,-0.9 0.6,-0.1 1.1,-0.3 1.7,-0.4 l 0.8,-0.2 0.1,0 c -0.1,0 0,0 0,0 l 0,0 0.1,0 0.2,-0.1 0.4,-0.1 c 0.6,-0.2 1.2,-0.4 1.7,-0.6 0.5,-0.2 1,-0.4 1.6,-0.6 4.2,-1.8 7.9,-4.1 10.9,-6.3 1.5,-1.1 2.9,-2.2 4.1,-3.2 1.2,-1 2.2,-1.9 3.1,-2.6 1.7,-1.5 2.7,-2.4 2.7,-2.4 0,0 -0.2,0.3 -0.4,0.8 -0.3,0.5 -0.7,1.3 -1.3,2.3 -0.6,1 -1.4,2.2 -2.3,3.4 -1,1.3 -2.1,2.7 -3.5,4.2 -1.4,1.5 -3,3 -4.8,4.4 -1.8,1.4 -3.9,2.8 -6.2,4.1 -1.1,0.6 -2.5,1.2 -3.6,1.7 -1.2,0.5 -2.5,1 -3.9,1.3 -2.7,0.7 -5.5,1.1 -8.3,1.2 -2.8,0 -5.6,-0.2 -8.4,-0.9 -2.7,-0.7 -5.3,-1.7 -7.6,-3.1 -2.4,-1.4 -4.3,-3 -5.9,-4.8 -1.6,-1.7 -2.9,-3.5 -4,-5 -1.1,-1.6 -2.1,-3 -3.1,-4.2 -1,-1.2 -1.8,-2.2 -2.6,-3 -0.8,-0.8 -1.4,-1.4 -1.9,-1.7 -0.5,-0.5 -0.8,-0.7 -0.8,-0.7 z" /></g></g></g><g
       transform="translate(-4.7000122,-44.2)"
       id="g122"><path
         style="fill:#ffffff"
         inkscape:connector-curvature="0"
         id="path124"
         d="m -100.3,129.1 c -1,-1.1 -2.2,-1.9 -3.6,-2.5 -1.4,-0.5 -3,-0.8 -4.9,-0.8 -1.8,0 -3.4,0.3 -4.9,0.8 -1.5,0.5 -2.8,1.4 -3.9,2.4 -1.1,1 -1.9,2.3 -2.5,3.7 -0.6,1.4 -0.9,3.1 -0.9,4.8 0,2.6 0.7,4.7 2.1,6.2 1.4,1.5 3.4,2.3 5.9,2.3 0.3,0 0.5,0 0.7,0 0.2,0 0.4,0 0.7,-0.1 l 1.2,-4.3 c 0.2,-0.8 0.4,-1.4 0.5,-1.8 0.1,-0.4 0.2,-0.7 0.2,-1 0,-0.3 0.1,-0.4 0.1,-0.6 0,-0.1 0,-0.3 0,-0.5 0,-0.4 -0.1,-0.8 -0.4,-1.2 -0.2,-0.3 -0.7,-0.8 -1.4,-1.2 h 12.8 c -0.3,0.4 -0.5,0.7 -0.7,1 -0.2,0.3 -0.3,0.5 -0.5,0.8 -0.1,0.3 -0.3,0.7 -0.4,1.1 -0.1,0.4 -0.3,1 -0.5,1.8 l -1.1,3.8 c -0.4,1.4 -0.6,2.6 -0.6,3.4 0,0.3 0.1,0.6 0.2,1 -1.6,0.4 -3.5,0.8 -5.6,1 -2.1,0.2 -4.3,0.4 -6.6,0.4 -5.3,0 -9.5,-1 -12.4,-3 -2.9,-2 -4.4,-4.9 -4.4,-8.7 0,-2.6 0.7,-5.1 2.2,-7.4 1.5,-2.3 3.5,-4.2 6.2,-5.6 3.7,-2.1 8.3,-3.1 13.8,-3.1 1.8,0 3.5,0.1 5,0.3 1.5,0.2 3,0.5 4.6,0.9 l -0.9,6.1 z" /></g></g></svg>