<?xml version="1.0" encoding="UTF-8" standalone="no"?>
<!-- Created with Inkscape (http://www.inkscape.org/) -->

<svg
   xmlns:dc="http://purl.org/dc/elements/1.1/"
   xmlns:cc="http://creativecommons.org/ns#"
   xmlns:rdf="http://www.w3.org/1999/02/22-rdf-syntax-ns#"
   xmlns:svg="http://www.w3.org/2000/svg"
   xmlns="http://www.w3.org/2000/svg"
   version="1.1"
   width="100%"
   height="100%"
   viewBox="-329 -89 400 400"
   id="Layer_1"
   xml:space="preserve"><metadata
     id="metadata130"><rdf:RDF><cc:Work
         rdf:about=""><dc:format>image/svg+xml</dc:format><dc:type
           rdf:resource="http://purl.org/dc/dcmitype/StillImage" /><dc:title></dc:title></cc:Work></rdf:RDF></metadata><defs
     id="defs128" /><circle
     cx="-177.89999"
     cy="140"
     r="146.39999"
     transform="matrix(1.1157601,0,0,1.1157601,69.493719,-29.86471)"
     id="circle3"
     style="fill:#ab182f" /><g
     transform="matrix(1.1157601,0,0,1.1157601,69.493719,-29.86471)"
     id="g5"><path
       d="m -193.8,196.7 c -5.1,0 -10.2,0 -15.3,0 -0.3,-0.2 -0.7,-0.3 -1.1,-0.3 -3.6,-0.1 -7.1,-0.4 -10.7,-0.3 -2.1,0 -4.1,-0.6 -6.1,-0.4 -0.3,0 -0.6,-0.1 -0.8,-0.2 -1.3,-1.2 -3.2,-1.6 -4.4,-3.1 -0.2,-0.3 -0.5,-0.5 -0.8,-0.6 -2.8,-0.5 -4.8,-2.8 -7.6,-3.3 -0.2,0 -0.5,-0.1 -0.6,-0.3 -1.2,-1.5 -3,-2.3 -4.5,-3.4 -1.2,-0.9 -2.4,-1.2 -3.9,-1.2 -2.4,0 -2.5,-0.1 -2.8,-2.4 -0.1,-0.8 -0.5,-1.4 -1.1,-2 -2.7,-2.5 -5.4,-5 -7.8,-7.9 -2.3,-2.8 -4.6,-5.7 -6.4,-8.8 -1.3,-2.4 -2.7,-4.7 -3.7,-7.2 -1.1,-2.7 -2.4,-5.2 -3.2,-8 -0.9,-2.7 -1.8,-5.4 -2.2,-8.3 -0.4,-2.9 -0.8,-5.7 -0.7,-8.6 0,-0.3 -0.1,-0.5 -0.3,-0.8 0,-2.9 0,-5.7 0,-8.6 0.4,-0.5 0.2,-1.1 0.3,-1.6 0.1,-2.4 0,-4.7 0.2,-7.1 0.3,-3.5 1.2,-6.8 2.4,-9.9 2.5,-6.3 5.7,-12.2 9.7,-17.7 3.1,-4.2 6.8,-7.8 10.5,-11.4 2.1,-2 4.7,-3.6 7.1,-5.3 3.8,-2.9 7.9,-5.1 12.2,-7.2 1.6,-0.8 1.7,-1.2 1.1,-2.9 -0.6,-1.6 -1.5,-2.9 -2.6,-4.1 -3.4,-3.8 -7.4,-7.1 -11.2,-10.5 -2,-1.8 -4.1,-3.6 -5.9,-5.6 -2.6,-2.8 -4.9,-5.7 -6.6,-9.2 -0.5,-1.1 -1.2,-2.1 -1.7,-3.1 -1.7,-3.6 -2.4,-7.6 -3.6,-11.3 -0.2,-0.6 -0.2,-1.3 -0.2,-1.9 0,-3.7 0,-7.5 0,-11.2 0,-1.9 0.5,-3.6 0.9,-5.4 0.7,-3.6 1.9,-7.1 3.6,-10.3 1.3,-2.5 2.6,-5.1 4.2,-7.5 2.5,-3.8 5.7,-6.9 8.9,-10 3.7,-3.5 7.8,-6.5 12.3,-9 0.9,-0.5 2,-0.8 2.9,-1.2 0.7,-0.3 1.4,-0.7 1.3,-1.6 -0.1,-0.9 -0.3,-1.8 -1.3,-2.1 -1.3,-0.4 -1.5,-1.5 -1.7,-2.6 -0.3,-1.4 0.3,-2.1 1.7,-2.2 1.1,-0.1 2,-0.3 2.5,-1.4 0.2,-0.4 0.5,-0.5 0.8,-0.7 0.6,0 1.3,0 1.9,0 1.2,0.6 2.5,0.7 3.8,0.6 1,-0.1 1.6,0.2 2.3,1 0.9,1 1.9,1.8 2.5,3.1 0.5,1 1.7,0.8 2.6,0.7 3.1,-0.5 6.3,-1 9.5,-0.9 2.7,0.1 5.3,0.5 8,0.8 2.9,0.3 5.7,1.1 8.5,2.1 4.6,1.6 9.1,3.6 13.3,6.2 3.5,2.3 6.8,4.9 9.6,7.9 3.3,3.6 6.3,7.5 8.5,11.9 1.6,3.3 2.6,6.8 4,10.2 0.4,1.1 0.4,2.3 0.6,3.4 0.3,2 0.9,4 0.8,6 -0.1,2.1 -0.1,4.3 0,6.4 0.1,3.3 -0.7,6.4 -1.3,9.6 -0.9,5 -2.8,9.6 -5,14.1 -1.4,2.9 -3,5.8 -4.8,8.6 -2.1,3.2 -4,6.4 -6,9.6 -0.9,1.4 -1.3,3.1 -1.6,4.7 -0.3,1.4 0.2,2.2 1.6,2.6 2.1,0.5 4,1.3 6.1,1.8 2.1,0.5 4.1,1.3 6,2.1 4.4,2 8.7,4 12.7,6.8 2.6,1.8 5.2,3.6 7.5,6 1.7,1.9 3.5,3.7 5.4,5.4 4.5,4 7.8,8.9 10.3,14.3 2.7,5.8 5.1,11.7 6.2,18.1 0.5,3.2 0.6,6.5 0.4,9.8 0,0.5 -0.2,1.1 0.3,1.6 0,1.2 0,2.4 0,3.6 -0.5,0.7 -0.3,1.4 -0.3,2.2 0.3,4.4 -0.6,8.7 -2,12.8 -0.9,2.8 -1.8,5.6 -3.3,8.2 -1.3,2.2 -2.1,4.6 -3.4,6.8 -2.3,3.7 -4.6,7.4 -7.8,10.5 -1.5,1.4 -2.6,3.1 -4,4.6 -3.8,4.1 -8.3,7.2 -12.8,10.4 -2.9,2 -5.7,4.1 -8.9,5.6 -2.5,1.1 -4.8,2.6 -7.5,3.3 -0.3,0.1 -0.6,0.2 -0.9,0.3 -3.1,1.9 -6.6,2.8 -10,4.2 -3,1.2 -6.2,1.8 -9.4,2.4 -1.7,0.4 -3.6,0.3 -5.4,0.4 -0.7,-0.3 -1.3,-0.5 -1.8,-0.1 z"
       id="path7"
       style="fill:#ffc107" /></g><path
     d="m -169.72525,192.17156 c -0.22315,0.11159 -0.4463,0.22315 -0.55788,0.22315 0.11159,-0.11159 0.33473,-0.22315 0.55788,-0.22315"
     id="path9"
     style="fill:#ffffff" /><path
     d="M -170.3947,192.39471"
     id="path11"
     style="fill:#ffffff" /><path
     d="m -237.00559,210.47002 c 0.66946,0.11159 1.33892,0.33473 2.00837,0.4463 -1.45048,-0.33472 -3.12413,-0.66945 -4.01673,-0.89261 -0.4463,-0.11158 -1.11576,-0.22315 -2.00837,-0.11158 -1.33891,0 -3.12413,0.33473 -4.46304,1.00418 -1.78522,0.89261 -12.83124,6.47141 -17.51743,8.81451 5.35564,7.58717 11.26918,14.72803 17.74059,21.31101 0.4463,-1.67363 7.69874,-9.26081 8.70292,-13.72384 1.45048,-6.13669 -2.11995,-14.28173 -0.44631,-16.84798"
     id="path13"
     style="fill:#ffffff" /><path
     d="m -52.124133,228.21061 -8.702929,1.11576 c 0,0 6.248257,29.12134 8.033473,36.37377 l 1.004185,4.6862 c 3.012552,-1.67364 6.025105,-3.34728 8.92608,-5.24407 -3.682008,-13.38912 -9.260809,-36.93166 -9.260809,-36.93166 l 0,0 z"
     id="path15"
     style="fill:#ffffff" /><g
     transform="matrix(1.1157601,0,0,1.1157601,69.493719,-29.86471)"
     id="g17"><polygon
       points="-156.6,213.1 -156.1,213.1 -155.3,210.6 -155.3,213.1 -154.7,213.1 -154.7,210 -155.6,210 -156.4,212.2 -157.2,210 -158.1,210 -158.1,213.1 -157.5,213.1 -157.5,210.6 "
       id="polygon19"
       style="fill:none" /><polygon
       points="-161.3,210.5 -160.3,210.5 -160.3,213.1 -159.6,213.1 -159.6,210.5 -158.6,210.5 -158.6,210 -161.3,210 "
       id="polygon21"
       style="fill:none" /></g><path
     d="m -1.357049,111.83683 c -4.4630402,3.34728 -6.9177125,7.81032 -6.8061367,12.38493 0,6.69457 5.4672248,13.16598 17.9637377,13.05439 3.124128,0 5.913529,-0.33472 8.368201,-0.78102 0.781032,-0.11159 1.450488,-0.22316 2.119944,-0.33474 l 1.450488,-6.24825 c -2.454672,0.78103 -5.467224,1.45049 -7.921897,1.45049 -6.6945602,0 -11.1576011,-3.90516 -11.1576011,-9.14923 0,-2.7894 1.1157603,-5.24408 3.2357052,-7.02929 2.2315197,-1.8968 5.4672239,-3.01256 9.4839609,-3.01256 3.235704,0 5.132496,0.89261 6.359832,2.11995 0.223152,0.22315 0.446304,0.55788 0.669456,0.78103 h 1.004184 l 2.008369,-7.36402 c -2.119945,-0.66945 -5.244073,-1.22733 -8.591353,-1.33891 -7.5871691,0.11158 -13.8354256,2.23152 -18.18689,5.46723"
     id="path23"
     style="fill:#ffffff" /><path
     d="m -11.845194,112.84101 c 0.892607,0 1.67364,0.33473 2.1199436,0.78103 0.4463044,0.33473 0.669456,0.78104 0.669456,1.22734 h 1.0041845 l 2.008368,-8.03347 H -33.156213 l -0.446304,1.56206 -0.111575,0.33473 c 0,0 3.012553,0.33473 2.008369,3.34728 l -6.806135,24.54672 11.492327,0 h 2.008368 l 0.55788,-2.11994 c 0,0 -2.566248,-0.55788 -1.896792,-2.90098 0,-0.11159 1.004184,-3.682 1.562065,-5.69038 0.223151,-0.8926 0.446304,-1.56206 0.446304,-1.56206 l 6.248257,0 c 1.004183,0 1.785216,0.22315 2.343095,0.4463 1.227336,0.44631 1.67364,1.22734 1.67364,1.22734 l 1.785217,-7.25244 h -10.488145 l 1.11576,-4.12831 0.446304,-1.56207 9.372385,-0.22315 z"
     id="path25"
     style="fill:#ffffff" /><path
     d="m 29.772658,107.37379 c -0.446303,-0.33473 -0.892608,-0.55788 -1.450488,-0.55788 -0.55788,0 -1.004184,0.22315 -1.450488,0.55788 -0.334728,0.33472 -0.55788,0.8926 -0.55788,1.45048 0,0.55788 0.223152,1.00419 0.55788,1.45049 0.334728,0.33473 0.892608,0.55788 1.450488,0.55788 0.55788,0 1.004185,-0.22315 1.450488,-0.55788 0.334728,-0.4463 0.55788,-0.89261 0.55788,-1.45049 0,-0.55788 -0.223152,-1.11576 -0.55788,-1.45048 m -0.223152,2.56624 c -0.334728,0.33473 -0.781032,0.55788 -1.227336,0.55788 -0.446304,0 -0.892608,-0.22315 -1.227336,-0.55788 -0.334728,-0.33472 -0.55788,-0.78103 -0.55788,-1.22733 0,-0.44631 0.223152,-0.89261 0.55788,-1.22734 0.334728,-0.33473 0.781032,-0.55788 1.227336,-0.55788 0.446304,0 0.892608,0.22315 1.227336,0.55788 0.334728,0.33473 0.446305,0.78103 0.446305,1.22734 0.111574,0.55788 -0.111575,0.89261 -0.446305,1.22733"
     id="path27"
     style="fill:#ffffff" /><path
     d="m 29.214778,108.26639 c 0,-0.22315 -0.111576,-0.4463 -0.334728,-0.55788 -0.111576,0 -0.334728,-0.11157 -0.55788,-0.11157 h -0.781032 v 2.23152 h 0.334728 v -0.89261 h 0.334728 c 0.223152,0 0.334728,0 0.446304,0.11158 0.111576,0.11157 0.223152,0.22315 0.223152,0.55788 v 0.22315 l 0,0.11157 c 0,0 0,0 0,0 0,0 0,0 0,0 h 0.334728 l 0,0 c 0,0 0,0 0,-0.11157 v -0.22315 -0.11158 c 0,-0.11157 0,-0.22315 -0.111576,-0.33473 -0.111576,-0.11157 -0.223152,-0.22315 -0.334728,-0.22315 0.111576,0 0.223152,0 0.334728,-0.11157 0.111576,-0.22315 0.111576,-0.33473 0.111576,-0.55788 m -0.55788,0.4463 c -0.111576,0 -0.223152,0 -0.334728,0 h -0.334728 v -0.78103 h 0.334728 c 0.223152,0 0.334728,0 0.446304,0.11158 0.111576,0 0.111576,0.11157 0.111576,0.33472 0,0.11158 -0.111576,0.22316 -0.223152,0.33473"
     id="path29"
     style="fill:#ffffff" /><path
     d="M 7.5690318,168.85217 C -13.295683,162.49233 -56.029293,164.0544 -56.029293,164.0544 l 34.92329,82.3431 c 0,0 3.235704,-1.67365 3.682008,-0.78104 18.9679227,-17.74059 33.695956,-39.94421 42.510461,-64.82565 -0.669456,-0.55789 3.34728,-5.5788 -17.5174342,-11.93864 z"
     id="path31"
     style="fill:#ffffff" /><g
     transform="matrix(1.1157601,0,0,1.1157601,69.493719,-29.86471)"
     id="g33"><polygon
       points="-155,210 -154.7,210.3 -154.7,210 "
       id="polygon35"
       style="fill:none" /><g
       id="g37"><polygon
         points="-155,210 -154.7,210.3 -154.7,210 "
         id="polygon39"
         style="fill:none" /><path
         d="m -119.2,265.2 c -1.4,-7.4 -7,-31.7 -7,-31.7 0,0 7.4,-1.9 9.1,-6.2 1.7,-4.2 -2.2,-10.7 -2.4,-13.3 -0.8,-7.7 -3.8,-39.1 -8.8,-45.6 -2.9,-3.8 -16.1,-11.3 -17.1,-11.2 -4.8,0.2 -14.3,20.9 -22.2,22.8 -5.3,1.3 -9,-3.9 -8.2,-3.5 0,0 0,0 0,0 0,0 0,-0.6 -0.9,-3.4 -0.9,-2.8 -2.7,-5.7 -3.1,-6.4 -0.3,-0.7 -1.3,-2.1 -1.4,-2.3 0,-0.2 -0.4,-1.1 -0.7,-2.8 -0.5,-3.3 -0.3,-5.5 -0.2,-5.7 0,-0.2 0.1,-0.8 0.1,-0.9 0,-0.1 0,-0.3 -0.2,-0.4 -0.2,0 -0.6,-0.1 -1,0.3 -0.9,0.9 -1,1.1 -1,1.3 0,0.1 0.1,0.4 0,0.8 -0.1,1 -0.3,1.8 -0.7,2.6 -0.5,0.8 -0.8,1 -1.4,1 -0.7,-0.1 -1.2,-0.6 -1.3,-1.9 -0.1,-1.4 -0.4,-1.8 -0.6,-2.1 -0.3,-0.3 -0.9,-0.5 -1.1,-0.5 -0.2,0 -0.4,0.2 -1.8,0.5 -1.4,0.4 -3.7,0.5 -4,0.5 -0.3,0 -1.6,0.1 -1.6,0.1 0.3,1 -5.2,-0.5 -6.1,0.2 -1.9,1.5 -2.8,11.2 -3.7,16.3 0,0 0,0 0,0 l -30.7,3.1 -10.8,25 c 0,0 3.3,49.5 3.3,50.3 0,0.8 68,-14.8 68,-14.8 l 25.7,-0.6 c 0,0 0,0 0,0.1 0.2,1.5 3,25.1 3.6,28.8 l 1.9,13.5 c 0.2,1.1 0.3,2.3 0.5,3.4 3,-0.7 5.9,-1.5 8.8,-2.3 -0.2,-1.5 -0.5,-3.1 -0.7,-4.6 -0.4,-1.9 -0.6,-3.8 -1,-5.6 l -0.8,-4.6 c -0.7,-4.4 -5,-29.6 -5,-29.6 l 4.5,-2.8 5.2,1.6 c 0.1,0.6 0.3,1.3 0.4,2.1 1.1,5.2 2.5,13.1 4.8,23.7 l 1.7,10.3 c 0,0.4 0.6,3.4 1.1,6.3 2.7,-1.1 5.4,-2.2 8.1,-3.4 l -1.3,-8.4 z"
         id="path41"
         style="fill:#ffffff" /></g></g><g
     transform="matrix(1.1157601,0,0,1.1157601,69.493719,-29.86471)"
     id="Layer_1_1_"><g
       id="g44"><path
         d="m -36.4,125.2 c 0,0 0,0 0,0 0,0 0,0 0,0 0,0 0,0 0,0 0,0 0,0 0,0"
         id="path46"
         style="fill:#a3080c" /><path
         d="m -42.5,181.2 c -4.3,-2.3 -8,-3.8 -11.9,-4.6 -4.4,-1 -14.9,-3.1 -29.1,-4.4 -14.1,-1.3 -25.7,-2.4 -27.3,-2.6 -1.5,-0.1 -2,-1.5 -3.3,-2.1 -4.8,-2.4 -13.8,-4.6 -19.5,-6.6 -1.4,-0.5 -2.3,-1.7 -4.3,-4.1 -1.2,-1.4 -2,-2.1 -3,-3 -0.1,-0.1 -0.3,-0.3 -0.5,-0.5 -0.7,2.6 -1.4,5.1 -2.3,7.6 0.9,1 2.4,3 3.1,6.6 0.9,5 2.6,12 -0.4,30.3 -1.7,10 -3.7,16 -4.2,17.4 -0.5,1.4 0.3,2.2 1.3,0.9 2.2,-2.9 5,-11.1 7.4,-20.5 2.4,-9.3 3.2,-17.2 3.6,-22.3 v 0 c 0,-0.5 0.1,-0.9 0.1,-1.3 l 0,-0.2 c 0,-0.4 0,-0.8 0.1,-1.2 0,-0.2 0,-0.4 0.1,-0.5 0,0 0,-0.1 0,-0.1 0,-0.1 0,-0.1 0.1,-0.2 0,0 0,0 0,0 0,-0.1 0.1,-0.2 0.2,-0.2 0,0 0,0 0,0 0,0 0.1,-0.1 0.1,-0.1 0,0 0.1,0 0.1,0 0,0 0,0 0.1,0 0.1,0 0.1,0 0.1,0 0,0 0,0 0.1,0 0,0 0.1,0 0.1,0 0,0 0,0 0,0 0.2,0 0.4,0.1 0.5,0.2 0.5,0.2 2.6,0.8 3.7,5.9 0,0.2 0.1,0.4 0.1,0.6 0,0.1 0,0.2 0,0.2 0.1,0.2 0.1,0.4 0.1,0.6 l 0,0 c 0.9,4 2.6,10.9 5,25 1.1,6.1 2.2,13.4 3.6,22.5 0.1,0.5 0.1,0.9 0.2,1.3 0,0 0,0.1 0,0.1 0,0.4 0.1,0.7 0.1,1 0,0 0,0.1 0,0.1 0,0.1 0,0.3 0,0.4 0,0.1 0,0.2 -0.1,0.3 0,0 0,0.1 0,0.1 0,0.2 -0.1,0.3 -0.2,0.5 0,0 0,0 0,0.1 -0.1,0.1 -0.2,0.2 -0.3,0.3 0,0 -0.1,0 -0.1,0.1 -0.1,0.1 -0.3,0.1 -0.4,0.2 0,0 -0.1,0 -0.2,0 -0.1,0 -0.3,0.1 -0.4,0.1 -0.1,0 -0.2,0 -0.3,0.1 -0.2,0 -0.4,0.1 -0.7,0.1 -0.4,0.1 -1.1,0.2 -1.5,0.2 -0.8,0.1 -1.6,0.1 -2.6,0.2 -9.2,0.8 -27.3,2.7 -41.7,4.5 -0.3,0 -0.6,0.1 -0.8,0.1 -1.1,0.2 -1.8,0 -1.9,-1.1 -0.1,-1 -1.8,-11.1 -6.9,-19.6 -0.5,-0.8 -1,-1.6 -1.5,-2.3 -0.6,-0.8 0.3,-1.5 1.1,-1.2 2.3,0.8 8.7,3.7 17.9,10.3 2.3,1.7 2.9,2.2 3.5,2.6 0.1,0.1 0.2,0.1 0.3,0.2 0,0 0.1,0 0.1,0 0.1,0 0.1,0 0.2,0.1 0,0 0.1,0 0.1,0 0.1,0 0.2,0 0.3,0 0,0 0.1,0 0.1,0 0.1,0 0.2,0 0.3,-0.1 0.2,-0.1 0.3,-0.4 0.1,-0.8 -0.6,-1.6 -3.6,-4.8 -11.5,-12 -1.1,-1 -1.1,-1.5 0,-1.6 1.2,-0.1 4.3,0 6,0 1.7,-0.1 5.4,-0.2 4.7,-5.1 -0.6,-3.8 -1,-7.7 -1.1,-8.9 -0.1,-1 -0.2,-2.7 -2,-3.4 -7.7,1.6 -15.4,2.5 -23.1,3 -0.3,1.2 -0.4,2.3 -0.3,3.6 0,0.3 0,0.6 -0.3,0.7 -1.9,0.7 -4.1,-1.4 -5.8,-2.6 -0.6,-0.4 -1.2,-0.9 -1.8,-1.3 -6.6,0.2 -13.3,0.2 -20,0.2 1.4,0.6 2.3,1 2.6,1.2 0.3,0.4 0.9,1.1 -0.2,1.4 -1.1,0.3 -4.3,0.4 -7.7,1.7 -0.2,0.1 -0.4,0.2 -0.5,0.2 -1.2,0.5 -1.7,1.1 -2,1.6 0,0.1 -0.1,0.2 -0.1,0.3 0,0.1 0,0.2 0,0.3 0,0.1 0,0.3 0,0.4 0,0.1 0,0.2 0,0.3 0,0.2 0,0.3 0,0.5 0,0.3 0.1,0.6 0.1,0.9 0.2,1.8 0.5,3.1 0.7,5.6 0.2,2.5 0.1,4.7 1.3,5.7 1.2,1 2.8,1.6 7.2,0.8 4.1,-0.8 5.5,-1.2 6,-1.2 0.5,0 1.6,-0.2 0.9,1.1 -0.1,0.1 -0.2,0.3 -0.3,0.5 -1,1.7 -3.3,5.5 -4,8 -0.9,2.8 -1,3.6 -1.1,4.1 -0.1,0.5 0.3,1.4 1.1,0.4 0.9,-1 2.5,-4.9 6.8,-9.8 0.6,-0.7 1.1,-1.2 1.6,-1.8 0,0 0,0 0,0 0.4,-0.4 0.7,-0.8 1.1,-1.1 0.1,-0.1 0.2,-0.2 0.3,-0.3 0.3,-0.3 0.6,-0.5 0.8,-0.8 0.1,-0.1 0.1,-0.1 0.2,-0.2 0.6,-0.6 1.2,-1 1.7,-1.4 0,0 0.1,-0.1 0.1,-0.1 0.2,-0.1 0.4,-0.3 0.5,-0.4 0,0 0.1,-0.1 0.1,-0.1 0.2,-0.1 0.3,-0.2 0.5,-0.3 0,0 0.1,0 0.1,-0.1 0,0 0,0 0,0 0.2,-0.1 0.3,-0.2 0.5,-0.2 1.2,-0.6 1.5,0.2 1.1,2.1 -0.3,1.4 -1.4,6.2 -5.6,15.9 -0.3,0.7 -0.6,1.3 -0.8,1.9 -0.1,0.1 -0.1,0.3 -0.2,0.4 -0.1,0.2 -0.2,0.5 -0.3,0.7 0,0 0,0 0,0.1 -0.2,0.3 -0.3,0.7 -0.5,1 0,0 0,0 0,0 0,0 0,0.1 -0.1,0.1 -0.1,0.1 -0.1,0.2 -0.2,0.3 -0.1,0.1 -0.1,0.3 -0.2,0.4 0,0 0,0 0,0 0,0 0,0.1 -0.1,0.1 -0.1,0.1 -0.2,0.3 -0.2,0.3 0,0 0,0 0,0.1 0,0 0,0 0,0 -0.1,0.1 -0.1,0.2 -0.1,0.2 0,0 0,0.1 0,0.1 0,0 0,0 0,0 -0.1,0.1 -0.1,0.2 -0.2,0.3 0,0 0,0 0,0 -0.1,0.1 -0.2,0.2 -0.2,0.3 0,0 0,0 0,0 -0.1,0.1 -0.1,0.2 -0.2,0.3 0,0 0,0 0,0 -0.1,0.1 -0.2,0.2 -0.2,0.3 0,0 0,0 0,0 0,0 -0.1,0.1 -0.1,0.1 h 0 c 0,0 0,0.1 -0.1,0.1 0,0 0,0 -0.1,0 -0.1,0.1 -0.2,0.1 -0.2,0.2 0,0 0,0 0,0 -0.1,0.1 -0.1,0.1 -0.2,0.2 0,0 0,0 -0.1,0 0,0 0,0 0,0 0,0 0,0 0,0 -0.1,0 -0.1,0.1 -0.2,0.1 0,0 0,0 0,0 -0.1,0 -0.2,0.1 -0.2,0.1 0,0 0,0 -0.1,0 -0.1,0 -0.2,0.1 -0.3,0.1 -0.9,0.2 -1.8,0.3 -2.4,0.4 -0.1,0 -0.6,0.1 -0.7,0.1 -0.2,0 -0.5,0.1 -0.7,0.1 0,0 0,0 0,0 -6.3,1.1 -23.6,4 -31.5,5.6 -5.3,1.1 -4.8,-1.6 -6.1,-6.4 -0.6,-2 -2.5,-19.9 -1.5,-31.2 0.3,-3.7 0.5,-4.8 1.2,-5.2 0.7,-0.4 1.7,-1.1 2,-1.2 0.3,-0.1 1.2,-0.3 1.6,0.4 0.4,0.8 8.2,16.5 13.2,22.1 4.5,5.1 7.6,8.7 11.4,11.2 0.3,0.2 0.5,0.3 0.7,0.3 0,0 0,0 0.1,0 0.1,0 0.2,0 0.2,0.1 0.1,0 0.1,0 0.2,0 0,0 0,0 0.1,0 0.1,0 0.2,-0.1 0.3,-0.2 0,0 0,0 0,0 0.1,-0.1 0.1,-0.2 0.1,-0.3 0,0 0,0 0,-0.1 0.1,-0.6 -0.2,-1.5 -0.7,-2.1 -0.8,-0.9 -4.3,-4.5 -8.8,-10.9 -5.9,-8.4 -9.9,-20.7 -10.9,-24.6 -0.7,-2.6 -1.1,-6.7 -1,-9.9 0,0 0,0 0,0 0,-0.1 0,-0.3 0,-0.4 0,-0.1 0,-0.2 0,-0.3 0,-0.2 0,-0.4 0,-0.6 0,-0.3 0,-0.6 0.1,-0.9 0,-0.1 0,-0.2 0,-0.3 0,-0.2 0.1,-0.4 0.1,-0.6 0,-0.1 0,-0.2 0.1,-0.3 0.1,-0.3 0.1,-0.5 0.2,-0.7 0.9,-2.6 1.7,-2.3 2.5,-1.5 0.4,0.4 2.4,2.2 5.6,4.6 -3.6,-7 -10.4,-10.9 -16.4,-15.5 -0.6,1.6 -2.7,8.5 -4.3,15.7 -0.3,1.4 -0.8,3.1 -2.5,4 -1.7,0.8 -5.5,2.9 -6.9,3.7 -1.4,0.8 -2.1,1.2 -3.7,3.2 -0.7,0.9 -1.2,1.4 -1.7,2 -0.3,0.3 -0.4,0.5 -1.7,1.2 -1.2,0.6 -18.7,6.8 -37.2,18.1 -0.5,0.3 -0.9,0.5 -1.3,0.8 1.1,1.7 2.2,3.4 3.4,5 4.2,-2.1 14.1,-7.1 15.7,-7.9 1.2,-0.6 2.8,-0.9 4,-0.9 0.7,0 1.4,0 1.8,0.1 0.8,0.2 2.3,0.5 3.6,0.8 0.1,0 0.2,0.1 0.4,0.1 0.1,0 0.2,0 0.2,0.1 0.5,0.1 1.1,0.3 1.5,0.4 0,0 0,0 0.1,0 0.2,0.1 0.4,0.1 0.5,0.1 1.2,0.4 1.8,2.6 1.2,4.6 -0.1,0.4 -0.5,1.7 -1,3.5 -0.3,1 -0.6,2 -0.9,3.3 -0.3,1.2 -0.7,2.6 -1.1,4 -1.4,5 -3,10.9 -4.4,16.3 3.7,3.4 7.6,6.5 11.6,9.5 0.5,-3.5 0.9,-7.1 1.3,-9.8 1,-6.9 6.5,-32.5 8,-38.3 1.1,-4.2 1.7,-6.2 3.2,-6.8 0.4,-0.2 1,-0.5 1.2,-0.6 0.3,-0.1 0.9,-0.3 0.7,0.8 -0.2,1.3 -1.4,6.8 -3.1,24.4 -1.2,12.2 -1.2,23 -0.8,29.5 0.2,2.8 0.2,6.7 4.5,5 5,-2 21.8,-8 30.9,-10.8 14.5,-4.5 41.8,-10.5 68,-14.3 l 7.3,-1 c 0,0 4.3,25.2 5,29.6 l 0.8,4.6 -0.8,-4.6 c -0.7,-4.4 -5,-29.6 -5,-29.6 1,-0.1 2.1,-0.3 3.1,-0.4 2.4,-0.3 4.6,-0.6 6.6,-0.8 l 7.7,-1 c 3.6,-0.5 6.7,-0.9 9.3,-1.2 0,0 5,22.9 6.8,31.1 0.1,0.5 0.2,1 0.3,1.4 l 0.9,4.2 c 0,0 0,0 0,0 l -0.9,-4.2 c -1.5,-6.5 -7.2,-32.6 -7.2,-32.6 l 7.8,-1 c 2.3,-0.3 5.3,-0.7 6.2,-0.7 1.8,-0.1 2.6,-1.1 1.2,-1.5 -1,-0.3 -3.4,-0.5 -4.6,-0.6 -0.5,0 -1.3,0 -1.8,0 -1.8,0 -2.3,-0.4 -2.7,-3.1 -1.1,-7.9 -5.5,-27.3 -8.6,-37.6 -3,-9.9 -3.8,-12.7 -4.5,-14.9 -0.6,-1.9 0.6,-2 1.2,-2 2.2,0.1 5.3,1.3 6.2,3.2 1.9,4.2 15.3,39.1 20.6,52.1 3.4,8.2 7.3,18.1 11,26.8 2.4,-2 4.7,-4 6.9,-6.1 -6.9,-15.2 -22.3,-49.6 -30.4,-67 -0.3,-0.6 -0.7,-1.6 -0.9,-2.2 -0.1,-0.2 -0.1,-0.4 -0.1,-0.5 0,-1.1 1.5,-1.3 2.2,-1.2 2.9,0.3 28.9,2 36,2.7 4.7,0.4 9.4,1.2 12.5,1.7 0.7,0.1 1.4,0.3 1.9,0.4 0.7,0.1 1.2,0.2 1.5,0.3 2.3,0.6 6.4,2.2 10.2,4.3 1.6,0.8 3.3,2 5.3,3.5 0.6,-1.6 1.1,-3.3 1.7,-4.9 -1.9,-0.8 -3.4,-1.7 -4.9,-2.5 z m -140.3,54.5 c -0.7,0.2 -3.6,0.6 -4.1,0.6 -0.4,0 -0.8,-0.4 -0.6,-0.7 0.2,-0.3 2.2,-2.9 3.3,-7.5 0.2,-0.7 0.7,-1.3 1,-0.2 0.2,0.8 1.1,4.7 1.4,6.1 0,0.2 0.2,1.4 -1,1.7 z"
         id="path48" /><polygon
         points="-161.3,210.5 -160.3,210.5 -160.3,213.1 -159.6,213.1 -159.6,210.5 -158.6,210.5 -158.6,210 -161.3,210 "
         id="polygon50" /><polygon
         points="-156.6,213.1 -156.1,213.1 -155.3,210.6 -155.3,213.1 -154.7,213.1 -154.7,210 -155.6,210 -156.4,212.2 -157.2,210 -158.1,210 -158.1,213.1 -157.5,213.1 -157.5,210.6 "
         id="polygon52" /></g></g><g
     transform="matrix(1.1157601,0,0,1.1157601,141.06973,-29.86471)"
     id="g68"><path
       d="m -71.2,299.3 h -1.6 v 5.2 c 0,0.3 -0.1,0.5 -0.2,0.7 -0.1,0.1 -0.3,0.2 -0.5,0.2 -0.2,0 -0.4,-0.1 -0.5,-0.2 -0.1,-0.1 -0.2,-0.4 -0.2,-0.7 v -5.2 h -1.6 c -0.2,0 -0.4,-0.1 -0.6,-0.2 -0.1,-0.1 -0.2,-0.3 -0.2,-0.4 0,-0.2 0.1,-0.3 0.2,-0.4 0.1,-0.1 0.3,-0.2 0.5,-0.2 h 4.6 c 0.3,0 0.4,0.1 0.6,0.2 0.1,0.1 0.2,0.3 0.2,0.4 0,0.1 -0.1,0.3 -0.2,0.4 0,0.1 -0.2,0.2 -0.5,0.2 z"
       id="path70" /><path
       d="m -67.1,304.2 -1.1,-4.6 v 4.9 c 0,0.3 -0.1,0.5 -0.2,0.6 -0.1,0.1 -0.3,0.2 -0.5,0.2 -0.2,0 -0.4,-0.1 -0.5,-0.2 -0.1,-0.1 -0.2,-0.3 -0.2,-0.6 v -5.7 c 0,-0.3 0.1,-0.5 0.2,-0.6 0.2,-0.1 0.4,-0.2 0.7,-0.2 h 0.4 c 0.3,0 0.5,0 0.6,0.1 0.1,0 0.2,0.1 0.3,0.3 0.1,0.2 0.1,0.3 0.2,0.6 l 1,3.9 1,-3.9 c 0.1,-0.3 0.1,-0.5 0.2,-0.6 0.1,-0.1 0.1,-0.2 0.3,-0.3 0.1,0 0.3,-0.1 0.6,-0.1 h 0.4 c 0.3,0 0.5,0.1 0.7,0.2 0.2,0.1 0.2,0.3 0.2,0.6 v 5.7 c 0,0.3 -0.1,0.5 -0.2,0.6 -0.1,0.1 -0.3,0.2 -0.5,0.2 -0.2,0 -0.3,-0.1 -0.5,-0.2 -0.2,-0.1 -0.2,-0.3 -0.2,-0.6 v -4.9 l -1.1,4.6 c -0.1,0.3 -0.1,0.5 -0.2,0.7 0,0.1 -0.1,0.3 -0.3,0.4 -0.2,0.1 -0.3,0.2 -0.5,0.2 -0.2,0 -0.3,0 -0.4,-0.1 -0.1,-0.1 -0.2,-0.2 -0.3,-0.3 -0.1,-0.1 -0.1,-0.2 -0.2,-0.4 0.1,-0.3 0.1,-0.4 0.1,-0.5 z"
       id="path72" /></g><g
     transform="matrix(1.1157601,0,0,1.1157601,69.493719,-29.86471)"
     id="g74"><path
       d="m -194.2,181.7 c -4.5,0 -9,0 -13.4,0 -0.3,-0.2 -0.6,-0.2 -0.9,-0.2 -3.1,-0.1 -6.3,-0.4 -9.4,-0.3 -1.8,0 -3.6,-0.5 -5.4,-0.4 -0.2,0 -0.5,0 -0.7,-0.2 -1.2,-1.1 -2.9,-1.4 -3.9,-2.7 -0.2,-0.2 -0.4,-0.5 -0.7,-0.5 -2.5,-0.5 -4.3,-2.4 -6.7,-2.9 -0.2,0 -0.4,-0.1 -0.5,-0.3 -1.1,-1.3 -2.6,-2 -4,-3 -1.1,-0.8 -2.1,-1.1 -3.4,-1.1 -2.1,0 -2.2,-0.1 -2.5,-2.1 -0.1,-0.7 -0.4,-1.3 -1,-1.8 -2.4,-2.2 -4.8,-4.4 -6.8,-6.9 -2,-2.5 -4.1,-5 -5.7,-7.8 -1.2,-2.1 -2.4,-4.1 -3.3,-6.4 -0.9,-2.3 -2.1,-4.6 -2.9,-7 -0.8,-2.4 -1.6,-4.8 -1.9,-7.3 -0.4,-2.5 -0.7,-5 -0.6,-7.6 0,-0.3 -0.1,-0.5 -0.2,-0.7 0,-2.5 0,-5.1 0,-7.6 0.3,-0.4 0.2,-0.9 0.2,-1.4 0.1,-2.1 0,-4.2 0.2,-6.3 0.3,-3.1 1,-6 2.1,-8.8 2.2,-5.5 5,-10.7 8.5,-15.6 2.7,-3.7 6,-6.9 9.2,-10 1.9,-1.8 4.1,-3.1 6.2,-4.7 3.3,-2.5 7,-4.5 10.7,-6.3 1.4,-0.7 1.5,-1 0.9,-2.5 -0.5,-1.4 -1.3,-2.5 -2.3,-3.6 -3,-3.4 -6.6,-6.2 -9.9,-9.3 -1.8,-1.6 -3.6,-3.2 -5.2,-4.9 -2.3,-2.4 -4.3,-5.1 -5.8,-8.1 -0.5,-0.9 -1.1,-1.8 -1.5,-2.8 -1.5,-3.2 -2.1,-6.7 -3.1,-10 -0.2,-0.6 -0.2,-1.1 -0.2,-1.7 0,-3.3 0,-6.6 0,-9.9 0,-1.6 0.5,-3.2 0.8,-4.8 0.6,-3.2 1.7,-6.2 3.2,-9 1.2,-2.2 2.3,-4.5 3.7,-6.6 2.2,-3.3 5,-6.1 7.9,-8.8 3.2,-3.1 6.8,-5.7 10.8,-7.9 0.8,-0.5 1.7,-0.7 2.6,-1.1 0.6,-0.3 1.2,-0.6 1.2,-1.4 -0.1,-0.8 -0.3,-1.6 -1.1,-1.9 -1.2,-0.4 -1.3,-1.4 -1.5,-2.3 -0.3,-1.2 0.2,-1.8 1.5,-1.9 1,-0.1 1.8,-0.3 2.2,-1.2 0.1,-0.3 0.5,-0.4 0.7,-0.6 0.6,0 1.1,0 1.7,0 1.1,0.5 2.2,0.6 3.4,0.5 0.8,-0.1 1.4,0.2 2,0.9 0.7,0.9 1.7,1.6 2.2,2.7 0.4,0.9 1.5,0.7 2.3,0.6 2.8,-0.4 5.5,-0.9 8.3,-0.8 2.3,0 4.7,0.5 7,0.7 2.6,0.3 5.1,1 7.4,1.8 4.1,1.4 8,3.1 11.7,5.5 3.1,2 5.9,4.3 8.4,7 2.9,3.2 5.5,6.6 7.5,10.5 1.4,2.9 2.3,6 3.5,9 0.4,0.9 0.3,2 0.5,3 0.3,1.8 0.8,3.5 0.7,5.3 -0.1,1.9 -0.1,3.7 0,5.6 0.1,2.9 -0.6,5.6 -1.2,8.4 -0.8,4.4 -2.4,8.4 -4.4,12.4 -1.3,2.6 -2.6,5.1 -4.2,7.6 -1.8,2.8 -3.6,5.6 -5.3,8.5 -0.8,1.2 -1.1,2.7 -1.4,4.1 -0.3,1.2 0.1,1.9 1.4,2.3 1.8,0.5 3.6,1.2 5.4,1.6 1.8,0.5 3.6,1.1 5.3,1.9 3.8,1.8 7.7,3.6 11.2,6 2.3,1.6 4.6,3.2 6.6,5.3 1.5,1.6 3.1,3.3 4.8,4.7 4,3.5 6.9,7.9 9,12.6 2.3,5.1 4.5,10.3 5.4,15.9 0.5,2.8 0.5,5.8 0.4,8.7 0,0.5 -0.1,1 0.2,1.4 0,1.1 0,2.1 0,3.2 -0.4,0.6 -0.3,1.3 -0.2,1.9 0.3,3.9 -0.6,7.7 -1.8,11.3 -0.8,2.4 -1.6,4.9 -2.9,7.2 -1.2,1.9 -1.8,4.1 -3,6 -2,3.3 -4.1,6.5 -6.9,9.3 -1.3,1.2 -2.3,2.7 -3.5,4 -3.3,3.6 -7.3,6.3 -11.3,9.1 -2.5,1.8 -5,3.6 -7.8,4.9 -2.2,1 -4.2,2.3 -6.6,2.9 -0.3,0.1 -0.6,0.1 -0.8,0.3 -2.7,1.7 -5.8,2.5 -8.8,3.7 -2.7,1.1 -5.5,1.6 -8.2,2.1 -1.5,0.3 -3.2,0.3 -4.8,0.4 -0.4,0 -0.9,-0.1 -1.3,0.2 z"
       id="path76"
       style="fill:#fff1e2" /></g><g
     transform="matrix(1.1157601,0,0,1.1157601,69.493719,-29.86471)"
     id="g78"><path
       d="m -203.9,129.2 6.9,-1.2 c 1.3,-1.4 3.2,-2.1 5.4,-2.1 0.9,0 1.8,0.1 2.6,0.2 l 0.3,0 c 0.8,0.1 1.5,0.1 2.1,0.1 1.2,0 2.8,-0.2 3.4,-1 0.4,-0.5 0.8,-1.8 -0.1,-5.1 -1.7,-1.7 -1.9,-3.9 -1.9,-5.6 -0.2,-0.4 -0.5,-0.8 -0.8,-1.3 -1.2,-1.7 -2.6,-3.8 -2.5,-6.6 l -2.1,-3.2 h -2.6 l -2.2,-4.8 h 7.4 l 4.5,6.8 -0.1,0.9 c -0.2,1.4 0.5,2.6 1.7,4.3 0.5,0.7 0.9,1.4 1.3,2.2 l 0.3,0.5 0,0.6 c 0,1.8 0.1,2.4 0.7,2.9 l 0.6,0.5 0.2,0.7 c 1.4,4.5 1.3,7.8 -0.4,10.1 -1.8,2.5 -5.1,3.4 -10,2.8 l -0.3,0 c -0.7,-0.1 -1.4,-0.2 -2,-0.2 -1.2,0 -1.7,0.3 -2.1,0.9 l -0.6,0.8 -12.4,2.2 2.7,-5.4 z"
       id="path80" /><path
       d="m -207.1,77 0.2,-0.6 c -1.3,0.4 -2.5,0.3 -3.4,-0.9 -3.8,0 -7.6,0 -11.3,0 0.2,-0.2 0.3,-0.5 0.2,-0.8 -2.8,0.6 -5.6,0.7 -8.4,-0.1 -2.1,0.8 -4.1,1.5 -6.2,2.3 -1.1,1 -2.2,2 -3.3,3 0,1.1 0,2.3 0,3.4 9.3,0.2 18.5,-1.1 27.8,1 3.9,0.9 8.6,0.6 10.8,-4.3 -2.1,-0.9 -4.2,-2 -6.4,-3 z"
       id="path82" /><path
       d="m -150.8,79.8 0,0 c -8,-2.1 -16.1,-2.2 -24.1,0.1 -0.5,0.1 -0.9,0.2 -1.4,0.3 -0.2,3.4 1.3,4.7 4.7,4.8 6.9,0.4 13.8,1.2 20.6,1.8 2.5,-0.4 3.8,-1.8 3.8,-3.1 0.1,-1.4 0.2,-3.3 -3.6,-3.9 z"
       id="path84" /><path
       d="m -172.4,102.3 c 4.1,0.7 8.3,0.5 12.2,-0.5 0.8,-0.2 1.8,-0.8 1.6,-1.6 -0.1,-0.6 -0.8,-0.8 -1.3,-1.2 -1.1,-0.8 -1.4,-2.2 -2.2,-3.2 -1.5,-2 -5.1,-2 -6.6,0.1 -0.7,1 -1,2.4 -1.8,3.4 -0.4,0.5 -1,0.9 -1.2,1.5 -0.2,0.6 0.3,1.5 0.9,1.3"
       id="path86"
       style="fill:#ffffff" /><path
       d="m -161.1,93.7 c -2,-1 -4.1,-1 -5.6,1 -1.1,-0.1 -2.2,-0.1 -3.3,-0.2 -1,-1.5 -2.1,-1.5 -3.2,0 -5.3,-0.5 -4.8,3.4 -5.3,6.7 1.8,2 4.5,1.3 6.7,2 2.4,-1.8 7.2,-1.9 5,-7 1.3,0.3 2.5,0.7 3,2.1 0.9,2.4 2.6,4 5.3,3.5 0.6,-0.1 1.1,-1.7 1.2,-2.6 0.1,-2.8 -1.6,-4.5 -3.8,-5.5 z"
       id="path88" /><path
       d="m -227.6,99.4 c 5.6,0.6 11.3,0.9 16.9,0.8 -0.4,-2.1 -3.1,-2.6 -4.3,-4.4 -1.2,-1.7 -0.8,-4.6 -2.7,-5.5 -1.6,-0.7 -3.3,0.6 -4.5,1.8 -1.9,2.1 -3.4,5.3 -5.4,7.3 z"
       id="path90"
       style="fill:#ffffff" /><path
       d="m -216.8,89.7 c -4.8,0.1 -9.5,0.1 -14.3,0.2 -2.3,-2.5 -3,-0.9 -3.4,1.4 l -0.1,0.1 c -4.6,-0.5 -7.8,4.5 -12.6,3.4 -0.1,1.3 0.3,2.3 1.4,3.1 5.3,1.7 10.4,4.5 16.3,3.1 -0.1,-2.5 -3.8,-3 -5.5,-4.6 1.7,1.6 5.5,2.1 5.5,4.6 0.5,0 0.9,-0.1 1.4,-0.1 5,-0.8 7.9,-4.6 11.1,-8 v 0 c 3.9,1.6 0.5,10.4 8.2,8.3 0.6,-1.6 1.2,-3.2 1.8,-4.8 -2.5,-3.5 -2.7,-10.3 -9.8,-6.7 z"
       id="path92" /><path
       d="m -220,154.9 c 8.8,-2.2 17.8,-3.7 26.8,-4.4 2,-0.2 4,-0.3 5.9,0.1 2.8,0.6 5.2,2.2 7.6,3.9 2,1.4 4.1,2.9 4.7,5.2 -2.8,-0.1 -4.8,2.7 -7.4,3.9 -1.7,0.8 -3.7,1 -5.6,1.1 -5.1,0.3 -10.4,0.5 -15.4,-0.6 -2.6,-0.6 -5,-1.5 -7.4,-2.7 -3.2,-1.6 -6.4,-3.8 -9.2,-6.5 z"
       id="path94" /><path
       d="m -202.2,151.5 v 7 h 6.5 v -7.7 c -2.2,0.2 -4.4,0.4 -6.5,0.7 z"
       id="path96"
       style="fill:#ffffff" /><path
       d="m -193.1,150.5 c -0.6,0.1 -1.2,0.1 -1.8,0.2 v 7.8 h 6.5 v -8.1 c -1.6,-0.1 -3.2,0 -4.7,0.1 z"
       id="path98"
       style="fill:#ffffff" /></g><g
     transform="matrix(1.1157601,0,0,1.1157601,69.493719,-29.86471)"
     id="g100"><path
       d="m -240.7,-7.4 c 3.4,2 7.7,2.1 11.2,0.3 l -3.5,-5.5 -7.7,5.2"
       id="path102"
       style="fill:#ffffff" /><path
       d="m -191.4,-6.5 c -2.7,-0.4 -5.4,-1 -8.1,-1.6 -0.2,-1.4 0,-2.7 1,-3.7 1,-1 2.7,-1.2 3.7,-0.2 0.3,0.3 0.5,0.7 0.7,1 0.8,1.5 1.9,3.1 2.7,4.5 z"
       id="path104"
       style="fill:#ffffff" /><g
       id="g106"><g
         id="g108"><path
           d="m -241,-7.9 c 0.9,-1.1 1.7,-2.3 2.7,-3.2 3.3,-2.6 7.3,-2.6 11.2,-3 1.4,-0.2 4.5,4.2 4,5.5 -0.1,0.4 -0.6,0.8 -1,0.9 -2.1,0.6 -4.2,1.3 -6.4,1.5 -2.8,0.3 -3.5,-1.8 -3.5,-4.7 -2.3,1.5 -4.2,2.8 -6.1,4 -0.3,-0.4 -0.6,-0.7 -0.9,-1 z"
           id="path110" /><path
           d="m -215.1,29 c -2.2,1.2 -10.4,1.9 -11.5,0.8 0.3,-0.2 0.5,-0.5 0.8,-0.5 2.2,0.4 3.9,-0.8 5.7,-1.9 2.2,-1.3 4.1,-0.7 5,1.6 z"
           id="path112" /><path
           d="m -223,-21.4 c -3.2,0.2 -5.7,0.3 -8.6,0.5 1.3,-2.8 6,-3 8.6,-0.5 z"
           id="path114" /><path
           d="m -172.2,33.8 c -3,0.4 -3.9,-0.9 -2.8,-3.7 0.3,-0.8 0.8,-1.6 1.6,-2 3.1,-1.7 4.5,-4.7 5.8,-7.8 0.3,-0.7 0.2,-1.6 1.3,-1.8 0.6,0.5 1.6,-9.1 -0.3,-13.7 -3.3,-8.1 -2.4,-17.1 -7.6,-23.7 -3.4,-4.7 -14.4,-7 -16.3,-6.8 -4.1,0.5 -8.3,-0.3 -12.3,2.1 -1.6,1 -3.3,1.1 -4.3,3.2 -0.9,1.9 -1.5,3.5 0.2,5.3 0.4,0.4 0.3,1.4 0.1,2 -0.5,1.9 -1.5,3.7 -1.5,5.6 0,2.7 0.9,5.4 1.3,8.1 0.2,1.1 0.4,2.4 0,3.2 -1.9,3.6 -4,7 -6.3,10.4 -0.3,0.5 -1.6,0.5 -2.4,0.4 -0.5,-0.1 -1,-0.7 -1.5,-1 -1.3,-0.7 -2.7,-0.5 -3.2,0.8 -0.3,0.7 0.3,2.3 1,2.7 0.9,0.5 2.2,0.4 3.3,0.1 1.7,-0.5 2.8,-0.2 3.3,1.6 0.2,0.5 0.5,0.9 0.4,0.8 1.7,0.2 2.9,0.1 3.9,0.6 1.7,0.8 3.3,2 4.9,3.1 0.4,0.2 0.5,0.8 1.1,1.8 -1.4,-0.2 -2.1,-0.5 -2.8,-0.5 -1.5,0 -3.2,-0.3 -4.4,0.4 -1.1,0.6 -1.5,2.3 -2.3,3.5 0.9,0.4 1.7,1 2.6,1.3 1.1,0.4 2.4,0.4 3.5,0.8 1.6,0.6 2.1,1.6 0.9,3.1 -2.1,2.5 -4.2,4.7 -7.9,4 -0.7,-0.1 -1.5,-0.1 -2.1,0.1 -0.6,0.2 -1.1,0.9 -1.6,1.3 0.5,0.4 1,1.1 1.5,1.2 2.3,0.3 4.5,0.6 6.8,0.5 3.7,-0.1 6.3,1 7.8,4.1 0.2,0.4 0,1.4 -0.2,1.5 -0.7,0.3 -1.3,0.7 -1.9,1.1 9.3,-0.1 18.6,-1.2 26.6,-5.6 -0.9,-0.1 -1.6,-0.5 -1.6,-1.7 0,-1.4 1,-2.1 2.4,-2.1 0.6,0 1.2,0.1 1.8,0.2 0.4,-1.4 0.8,-3 1.2,-4.5 0,0 0,0 0,0 z m -27.4,-50.5 c 1.6,-1.2 3.4,-2.3 5.1,-3.5 0.1,0.2 0.2,0.4 0.3,0.5 0.2,0 0.5,0 0.7,0 1.5,0.3 3.3,0.3 3.4,2.3 0.1,1.9 -1.7,2.3 -3.1,2.6 -1.7,0.3 -3.4,0.5 -5.2,0.5 -0.6,0 -1.4,-0.4 -1.7,-0.9 -0.2,-0.2 0.2,-1.2 0.5,-1.5 z m 18.8,17.9 c -0.1,4.1 -1.2,8 -2.7,11.9 -1.1,2.8 -1.8,5.7 -2.4,8.6 -0.8,3.7 -1,7.6 -2.3,11.1 -0.9,2.7 -3,4.9 -4.7,7.3 -0.3,0.4 -0.9,0.5 -1.4,0.7 -0.3,-0.5 -0.7,-1 -0.7,-1.6 -0.4,-2.5 -0.8,-5 -3.5,-6.7 2.2,-1.5 2.4,-3.4 1.7,-5.7 -0.2,-0.7 0.3,-1.7 0.6,-2.4 2.5,-4.9 2.2,-9.6 -0.7,-14.4 -2.7,-4.5 -5.1,-9.3 -7.5,-14 -1.3,-2.5 -0.5,-4.2 1.8,-5.3 1.4,0.7 2.8,1.9 3.5,1.6 0.9,-0.3 1.3,-2 1.9,-3 1,1.4 1.5,3.1 2.7,3.7 1.2,0.7 2.9,0.3 4.4,0.4 1.4,0.1 2.9,0.1 4.2,0.4 3.8,0.7 5.2,2.7 5.1,7.4 z"
           id="path116" /></g><g
         id="g118"><path
           d="m -244.8,38.8 c 0,0 0.3,0.1 0.9,0.3 0.3,0.1 0.6,0.2 1.1,0.4 0.4,0.2 0.9,0.4 1.4,0.7 1,0.6 2.3,1.3 3.5,2.3 1.3,1 2.7,2.2 4.1,3.5 1.4,1.3 2.9,2.8 4.5,4.1 1.6,1.3 3.5,2.5 5.3,3.4 2,0.9 4.1,1.6 6.4,2.1 2.3,0.4 4.6,0.6 7,0.6 2.4,0 4.7,-0.4 7,-0.9 0.6,-0.1 1.1,-0.3 1.7,-0.4 l 0.8,-0.2 0.1,0 c -0.1,0 0,0 0,0 l 0,0 0.1,0 0.2,-0.1 0.4,-0.1 c 0.6,-0.2 1.2,-0.4 1.7,-0.6 0.5,-0.2 1,-0.4 1.6,-0.6 4.2,-1.8 7.9,-4.1 10.9,-6.3 1.5,-1.1 2.9,-2.2 4.1,-3.2 1.2,-1 2.2,-1.9 3.1,-2.6 1.7,-1.5 2.7,-2.4 2.7,-2.4 0,0 -0.2,0.3 -0.4,0.8 -0.3,0.5 -0.7,1.3 -1.3,2.3 -0.6,1 -1.4,2.2 -2.3,3.4 -1,1.3 -2.1,2.7 -3.5,4.2 -1.4,1.5 -3,3 -4.8,4.4 -1.8,1.4 -3.9,2.8 -6.2,4.1 -1.1,0.6 -2.5,1.2 -3.6,1.7 -1.2,0.5 -2.5,1 -3.9,1.3 -2.7,0.7 -5.5,1.1 -8.3,1.2 -2.8,0 -5.6,-0.2 -8.4,-0.9 -2.7,-0.7 -5.3,-1.7 -7.6,-3.1 -2.4,-1.4 -4.3,-3 -5.9,-4.8 -1.6,-1.7 -2.9,-3.5 -4,-5 -1.1,-1.6 -2.1,-3 -3.1,-4.2 -1,-1.2 -1.8,-2.2 -2.6,-3 -0.8,-0.8 -1.4,-1.4 -1.9,-1.7 -0.5,-0.5 -0.8,-0.7 -0.8,-0.7 z"
           id="path120" /></g></g></g><g
     transform="matrix(1.1157601,0,0,1.1157601,69.493719,-29.86471)"
     id="g122"><path
       d="m -100.3,129.1 c -1,-1.1 -2.2,-1.9 -3.6,-2.5 -1.4,-0.5 -3,-0.8 -4.9,-0.8 -1.8,0 -3.4,0.3 -4.9,0.8 -1.5,0.5 -2.8,1.4 -3.9,2.4 -1.1,1 -1.9,2.3 -2.5,3.7 -0.6,1.4 -0.9,3.1 -0.9,4.8 0,2.6 0.7,4.7 2.1,6.2 1.4,1.5 3.4,2.3 5.9,2.3 0.3,0 0.5,0 0.7,0 0.2,0 0.4,0 0.7,-0.1 l 1.2,-4.3 c 0.2,-0.8 0.4,-1.4 0.5,-1.8 0.1,-0.4 0.2,-0.7 0.2,-1 0,-0.3 0.1,-0.4 0.1,-0.6 0,-0.1 0,-0.3 0,-0.5 0,-0.4 -0.1,-0.8 -0.4,-1.2 -0.2,-0.3 -0.7,-0.8 -1.4,-1.2 h 12.8 c -0.3,0.4 -0.5,0.7 -0.7,1 -0.2,0.3 -0.3,0.5 -0.5,0.8 -0.1,0.3 -0.3,0.7 -0.4,1.1 -0.1,0.4 -0.3,1 -0.5,1.8 l -1.1,3.8 c -0.4,1.4 -0.6,2.6 -0.6,3.4 0,0.3 0.1,0.6 0.2,1 -1.6,0.4 -3.5,0.8 -5.6,1 -2.1,0.2 -4.3,0.4 -6.6,0.4 -5.3,0 -9.5,-1 -12.4,-3 -2.9,-2 -4.4,-4.9 -4.4,-8.7 0,-2.6 0.7,-5.1 2.2,-7.4 1.5,-2.3 3.5,-4.2 6.2,-5.6 3.7,-2.1 8.3,-3.1 13.8,-3.1 1.8,0 3.5,0.1 5,0.3 1.5,0.2 3,0.5 4.6,0.9 l -0.9,6.1 z"
       id="path124"
       style="fill:#ffffff" /></g></svg>