<?xml version="1.0" encoding="UTF-8" standalone="no"?>
<!-- Generator: Adobe Illustrator 18.1.1, SVG Export Plug-In . SVG Version: 6.00 Build 0)  -->

<svg
   xmlns:dc="http://purl.org/dc/elements/1.1/"
   xmlns:cc="http://creativecommons.org/ns#"
   xmlns:rdf="http://www.w3.org/1999/02/22-rdf-syntax-ns#"
   xmlns:svg="http://www.w3.org/2000/svg"
   xmlns="http://www.w3.org/2000/svg"
   xmlns:sodipodi="http://sodipodi.sourceforge.net/DTD/sodipodi-0.dtd"
   xmlns:inkscape="http://www.inkscape.org/namespaces/inkscape"
   version="1.1"
   id="Layer_1"
   x="0px"
   y="0px"
   viewBox="0 0 900 900"
   enable-background="new 0 0 900 900"
   xml:space="preserve"
   inkscape:version="0.48.4 r9939"
   width="100%"
   height="100%"
   sodipodi:docname="gourd.svg"><metadata
     id="metadata13"><rdf:RDF><cc:Work
         rdf:about=""><dc:format>image/svg+xml</dc:format><dc:type
           rdf:resource="http://purl.org/dc/dcmitype/StillImage" /></cc:Work></rdf:RDF></metadata><defs
     id="defs11" /><sodipodi:namedview
     pagecolor="#ffffff"
     bordercolor="#666666"
     borderopacity="1"
     objecttolerance="10"
     gridtolerance="10"
     guidetolerance="10"
     inkscape:pageopacity="0"
     inkscape:pageshadow="2"
     inkscape:window-width="1280"
     inkscape:window-height="745"
     id="namedview9"
     showgrid="false"
     inkscape:zoom="0.26222222"
     inkscape:cx="-211.11349"
     inkscape:cy="396"
     inkscape:window-x="0"
     inkscape:window-y="27"
     inkscape:window-maximized="1"
     inkscape:current-layer="Layer_1" /><g
     id="g3138"><path
       d="m 587.84094,343.40909 c 20.22728,-27.61363 32.27273,-61.5909 32.61364,-98.40908 C 621.47731,151.02274 545.22731,73.295467 451.25004,72.613648 356.59095,71.93183 279.5455,148.52274 279.5455,243.06819 c 0,37.61363 12.15909,72.38636 32.72727,100.56818 11.25,15.34091 7.04545,36.93181 -8.97727,47.04545 -77.5,48.75 -129.09091,135.11363 -129.09091,233.40908 -0.11363,151.93182 123.75,275.90909 275.79545,275.90909 152.27272,0 275.79544,-123.52273 275.79544,-275.79545 0,-98.52272 -51.70454,-184.99999 -129.43181,-233.74999 -16.02273,-10.11364 -19.77273,-31.70455 -8.52273,-47.04546 z"
       id="path5"
       inkscape:connector-curvature="0"
       style="fill:#ffc107" /><path
       d="M 526.70458,39.431831 543.75004,9.8863777 C 532.84095,3.6363779 520.22731,1.44e-5 506.81822,1.44e-5 c -40.79545,0 -73.86364,33.0681806 -73.86364,73.8636336 h 34.09091 c 0,-21.931817 17.84091,-39.772726 39.77273,-39.772726 7.27273,0 13.97727,1.931819 19.88636,5.340909 z"
       id="path7"
       inkscape:connector-curvature="0"
       style="fill:#ffc107" /></g></svg>