<?xml version="1.0" encoding="utf-8"?>
<!-- Generator: Adobe Illustrator 18.1.1, SVG Export Plug-In . SVG Version: 6.00 Build 0)  -->
<svg version="1.1" id="Layer_1" xmlns="http://www.w3.org/2000/svg" xmlns:xlink="http://www.w3.org/1999/xlink" x="0px" y="0px"
	 viewBox="0 0 900 900" enable-background="new 0 0 900 900" xml:space="preserve">
<g>
	<path fill="#FFC107" d="M571.3,356.2c17.8-24.3,28.4-54.2,28.7-86.6c0.9-82.7-66.2-151.1-148.9-151.7
		c-83.3-0.6-151.1,66.8-151.1,150c0,33.1,10.7,63.7,28.8,88.5c9.9,13.5,6.2,32.5-7.9,41.4c-68.2,42.9-113.6,118.9-113.6,205.4
		C207.2,736.9,316.2,846,450,846c134,0,242.7-108.7,242.7-242.7c0-86.7-45.5-162.8-113.9-205.7C564.7,388.7,561.4,369.7,571.3,356.2
		z"/>
	<path fill="#FFC107" d="M517.5,88.7l15-26c-9.6-5.5-20.7-8.7-32.5-8.7c-35.9,0-65,29.1-65,65h30c0-19.3,15.7-35,35-35
		C506.4,84,512.3,85.7,517.5,88.7z"/>
</g>
</svg>
