<?xml version="1.0" encoding="utf-8"?>
<!-- Generator: Adobe Illustrator 18.1.1, SVG Export Plug-In . SVG Version: 6.00 Build 0)  -->
<svg version="1.1" id="Layer_1" xmlns="http://www.w3.org/2000/svg" xmlns:xlink="http://www.w3.org/1999/xlink" x="0px" y="0px"
	 viewBox="0 0 1000 1000" enable-background="new 0 0 1000 1000" xml:space="preserve">
<g>
	<path fill="#555555" d="M164.1,701c-9.4-10.8-14.1-27.9-14.1-51.5V716h42C180.3,713.9,171,708.9,164.1,701z"/>
	<path fill="#555555" d="M375.7,517.2V716h147.9c-19.1-2.8-36.9-7.5-53.5-13.9V399.6h-67.5c-22.9,0-34.3,12-34.3,35.9
		c0,8.4,0.8,18.5,2.5,30.3l66.7-1c2,8.1,3,16.9,3,26.5c0,9.6-1,18.6-3,27L375.7,517.2z"/>
	<path fill="#555555" d="M633.5,283H150v63.5l3.5-3.5h29.3c14.8,0,25.3,3.5,31.6,10.4c6.2,6.9,9.3,18.6,9.3,35.1v247.4
		c0,15.8,7.1,23.7,21.2,23.7h57.5V517.7l-43.4,0.5c-2-8.4-3-17.4-3-27c0-9.6,1-18.4,3-26.5l39.4,0.5c-1.7-12.8-2.5-24.6-2.5-35.3
		c0-25.3,8-46,24-62.4c16-16.3,37-24.5,63.1-24.5l90.5,0l0,0h28.3c15.2,0,25.9,3.5,32.3,10.4c6.4,6.9,9.6,18.6,9.6,35.1v87.9
		c18.5-12.1,38.2-18.2,59.1-18.2c29,0,51.1,11.6,66.4,34.8c15.3,23.2,23,54.8,23,94.7c0,39.9-11.2,71.8-33.6,95.7
		c-15.7,16.7-35,27.6-57.8,32.6h32.7H850V499.5C850,379.9,753.1,283,633.5,283z"/>
	<path fill="#555555" d="M615.4,586.4c0-44.4-11.4-67-34.3-67.7c-14.1,0-26.6,5.9-37.4,17.7v126.3c9.1,1.7,17.7,2.5,25.8,2.5
		C600.1,665.2,615.4,638.9,615.4,586.4z"/>
</g>
</svg>
