<?xml version="1.0" encoding="UTF-8" standalone="no"?>
<!-- Created with Inkscape (http://www.inkscape.org/) -->

<svg
   xmlns:dc="http://purl.org/dc/elements/1.1/"
   xmlns:cc="http://creativecommons.org/ns#"
   xmlns:rdf="http://www.w3.org/1999/02/22-rdf-syntax-ns#"
   xmlns:svg="http://www.w3.org/2000/svg"
   xmlns="http://www.w3.org/2000/svg"
   version="1.1"
   width="100%"
   height="100%"
   viewBox="0 0 1000 1000"
   id="Layer_1"
   xml:space="preserve"><metadata
     id="metadata17"><rdf:RDF><cc:Work
         rdf:about=""><dc:format>image/svg+xml</dc:format><dc:type
           rdf:resource="http://purl.org/dc/dcmitype/StillImage" /><dc:title></dc:title></cc:Work></rdf:RDF></metadata><defs
     id="defs15" /><g
     transform="matrix(1.4285714,0,0,1.4285714,-214.2857,-213.57141)"
     id="g3"><path
       d="M 164.1,701 C 154.7,690.2 150,673.1 150,649.5 V 716 h 42 c -11.7,-2.1 -21,-7.1 -27.9,-15 z"
       id="path5"
       style="fill:#555555" /><path
       d="M 375.7,517.2 V 716 h 147.9 c -19.1,-2.8 -36.9,-7.5 -53.5,-13.9 V 399.6 h -67.5 c -22.9,0 -34.3,12 -34.3,35.9 0,8.4 0.8,18.5 2.5,30.3 l 66.7,-1 c 2,8.1 3,16.9 3,26.5 0,9.6 -1,18.6 -3,27 l -61.8,-1.1 z"
       id="path7"
       style="fill:#555555" /><path
       d="M 633.5,283 H 150 v 63.5 l 3.5,-3.5 h 29.3 c 14.8,0 25.3,3.5 31.6,10.4 6.2,6.9 9.3,18.6 9.3,35.1 v 247.4 c 0,15.8 7.1,23.7 21.2,23.7 h 57.5 V 517.7 l -43.4,0.5 c -2,-8.4 -3,-17.4 -3,-27 0,-9.6 1,-18.4 3,-26.5 l 39.4,0.5 c -1.7,-12.8 -2.5,-24.6 -2.5,-35.3 0,-25.3 8,-46 24,-62.4 16,-16.3 37,-24.5 63.1,-24.5 l 90.5,0 0,0 h 28.3 c 15.2,0 25.9,3.5 32.3,10.4 6.4,6.9 9.6,18.6 9.6,35.1 v 87.9 c 18.5,-12.1 38.2,-18.2 59.1,-18.2 29,0 51.1,11.6 66.4,34.8 15.3,23.2 23,54.8 23,94.7 0,39.9 -11.2,71.8 -33.6,95.7 -15.7,16.7 -35,27.6 -57.8,32.6 H 633.5 850 V 499.5 C 850,379.9 753.1,283 633.5,283 z"
       id="path9"
       style="fill:#555555" /><path
       d="m 615.4,586.4 c 0,-44.4 -11.4,-67 -34.3,-67.7 -14.1,0 -26.6,5.9 -37.4,17.7 v 126.3 c 9.1,1.7 17.7,2.5 25.8,2.5 30.6,0 45.9,-26.3 45.9,-78.8 z"
       id="path11"
       style="fill:#555555" /></g></svg>