<?xml version="1.0" encoding="UTF-8" standalone="no"?>
<!-- Created with Inkscape (http://www.inkscape.org/) -->

<svg
   xmlns:dc="http://purl.org/dc/elements/1.1/"
   xmlns:cc="http://creativecommons.org/ns#"
   xmlns:rdf="http://www.w3.org/1999/02/22-rdf-syntax-ns#"
   xmlns:svg="http://www.w3.org/2000/svg"
   xmlns="http://www.w3.org/2000/svg"
   version="1.1"
   width="100%"
   height="100%"
   viewBox="0 0 300 300"
   id="Layer_1"
   xml:space="preserve"><metadata
     id="metadata25"><rdf:RDF><cc:Work
         rdf:about=""><dc:format>image/svg+xml</dc:format><dc:type
           rdf:resource="http://purl.org/dc/dcmitype/StillImage" /><dc:title></dc:title></cc:Work></rdf:RDF></metadata><defs
     id="defs23" /><g
     transform="matrix(1.4691479,0,0,1.4691479,-73.016651,-61.924585)"
     id="g3002"><g
       id="g3"><path
         d="m 49.7,166.1 h 42.8 c 5.8,0 9.4,0.5 12.2,1.9 3.8,1.9 7,6.8 7,12.5 0,4.8 -2,10 -7.9,11.7 v 0.1 c 3,0.9 5.5,3.5 5.8,7.9 l 0.9,11.2 c 0.2,2.3 1.2,4.5 2.5,6 H 90.7 c -0.7,-1.5 -0.7,-3.7 -1.1,-9.7 -0.2,-3.8 -1.5,-6.1 -5.3,-6.1 H 70 v 15.8 H 49.7 V 166.1 z M 70,188.8 h 14.4 c 4,0 5.6,-1.6 5.6,-4.8 0,-3.9 -2.5,-4.8 -5.9,-4.8 H 70 v 9.6 z"
         id="path5"
         style="fill:#00a0e4" /><path
         d="m 162.1,197 h -22.8 v 20.5 H 119 v -51.4 h 20.3 V 184 h 22.8 v -17.9 h 20.3 v 51.4 H 162.1 V 197 z"
         id="path7"
         style="fill:#00a0e4" /><path
         d="m 192.3,166.1 h 41.9 c 14.4,0 19.7,6.5 19.7,17.9 0,9.9 -5.2,17.5 -19.6,17.5 h -21.7 v 16 h -20.3 v -51.4 z m 20.3,22.9 h 13.1 c 5.1,0 7.1,-1.6 7.1,-5.3 0,-3.9 -1.9,-5.5 -7.1,-5.5 H 212.6 V 189 z"
         id="path9"
         style="fill:#00a0e4" /></g><g
       id="g11"><rect
         width="77"
         height="12.9"
         x="111.5"
         y="140.39999"
         id="rect13"
         style="fill:#00a0e4" /></g><path
       d="m 192.5,101.1 c -1.7,-0.3 -13.9,-2.4 -17.5,-2.4 -1.2,0 -3.1,0.1 -5.4,0.4 -6,0.4 -15.5,0.9 -19.6,0.9 -4.1,0 -13.6,-0.6 -19.6,-0.9 -2.3,-0.3 -4.2,-0.4 -5.4,-0.4 -3.5,0 -15.8,2.1 -17.5,2.4 -4.3,0.6 -7.5,4.7 -7.5,9.5 0,0.2 0,4 0.4,8.4 0.7,8.5 2.2,11.2 3.2,12.4 1,1.2 4,4.8 18.7,5.8 0.3,0 0.6,0 0.9,0 0,0 0,0 0,0 4.9,0 13.2,-2.5 17.1,-5.2 2.7,-1.8 5.6,-6.2 7.5,-10.8 l 0,0 c 0.4,-0.8 1.2,-1.3 2.1,-1.3 1,0 1.8,0.6 2.2,1.5 1.9,4.5 4.8,8.8 7.4,10.6 3.9,2.7 12.2,5.2 17.1,5.2 0,0 0,0 0,0 0.3,0 0.6,0 0.9,0 14.8,-1 17.7,-4.6 18.7,-5.8 1,-1.3 2.5,-3.9 3.2,-12.4 0.4,-4.3 0.4,-8.2 0.4,-8.4 0.2,-4.8 -3,-8.9 -7.3,-9.5 z m -67.5,0.8 c 3.5,0 12.1,0.5 16.9,2.1 h -32 c 3.9,-0.7 12.5,-2.1 15.1,-2.1 z m 21.9,10.9 c 0,0.4 0,0.8 -0.1,1.3 h -43.4 c 0,-1 -0.1,-1.9 -0.1,-2.5 h 43.6 c 0,0.4 0,0.8 0,1.2 z m -43,8.9 h 40.2 c -0.4,0.9 -0.9,1.7 -1.4,2.5 h -38.5 c -0.1,-0.7 -0.2,-1.6 -0.3,-2.5 z m -0.3,-2.5 c -0.1,-0.9 -0.1,-1.7 -0.2,-2.5 h 42.7 c -0.2,0.8 -0.5,1.7 -0.9,2.5 H 103.6 z M 103.4,109 c 0.2,-1 0.6,-1.8 1.1,-2.5 h 41 c 0.4,0.7 0.7,1.6 0.9,2.5 h -43 z m 19.2,25 c -2.8,-0.2 -8.2,-0.7 -12.2,-2.1 h 22.8 c -3.7,1.3 -8,2.2 -10.6,2.1 z m 16,-4.6 c 0,0 0,0 0,0 l -32.5,0 c 0,0 0,0 0,0 -0.5,-0.6 -0.9,-1.4 -1.2,-2.5 h 36.2 c -0.9,1 -1.7,1.9 -2.5,2.5 z m 17.3,-7.7 h 40.2 c -0.1,0.9 -0.2,1.7 -0.4,2.5 h -38.5 c -0.4,-0.7 -0.8,-1.6 -1.3,-2.5 z m 40.6,-2.5 h -41.6 c -0.3,-0.9 -0.6,-1.7 -0.9,-2.5 h 42.7 c -0.1,0.8 -0.2,1.6 -0.2,2.5 z m -43.2,-5.1 c -0.1,-0.5 -0.1,-0.9 -0.1,-1.3 0,-0.4 0,-0.8 0,-1.3 h 43.6 c 0,0.6 0,1.5 -0.1,2.5 h -43.4 z m 42.3,-7.6 c 0.5,0.7 0.9,1.6 1.1,2.5 h -43.1 c 0.2,-0.9 0.5,-1.8 0.9,-2.5 h 41.1 z M 175,101.9 c 2.6,0 11.3,1.4 15.1,2.1 h -32 c 4.9,-1.7 13.5,-2.1 16.9,-2.1 z m -16,24.9 h 36.2 c -0.3,1.1 -0.7,2 -1.2,2.5 0,0 0,0 0,0 h -32.5 c 0,0 0,0 0,0 -0.8,-0.5 -1.7,-1.4 -2.5,-2.5 z m 18.5,7.2 c -2.6,0.2 -6.9,-0.7 -10.6,-2.1 h 22.8 c -4,1.4 -9.4,1.9 -12.2,2.1 z"
       id="path15"
       style="fill:#00a0e4" /><g
       id="g17"><path
         d="M 134.4,89.5 99.3,71.1 H 135 l 15,10 15.1,-10.1 h 35.7 l -35.1,18.5 v 7.2 h -31.2 v -7.2 z"
         id="path19"
         style="fill:#00a0e4" /></g></g></svg>