<svg xmlns="http://www.w3.org/2000/svg" viewBox="0 0 300 300" width="300" height="300">
<rect width="300" height="300" fill="#00A0E4"/>
<g>
	<path fill="#FFF" d="M49.7,166.1h42.8c5.8,0,9.4,0.5,12.2,1.9c3.8,1.9,7,6.8,7,12.5c0,4.8-2,10-7.9,11.7v0.1
		c3,0.9,5.5,3.5,5.8,7.9l0.9,11.2c0.2,2.3,1.2,4.5,2.5,6H90.7c-0.7-1.5-0.7-3.7-1.1-9.7c-0.2-3.8-1.5-6.1-5.3-6.1H70v15.8H49.7
		V166.1z M70,188.8h14.4c4,0,5.6-1.6,5.6-4.8c0-3.9-2.5-4.8-5.9-4.8H70V188.8z"/>
	<path fill="#FFF" d="M162.1,197h-22.8v20.5h-20.3v-51.4h20.3v17.9h22.8v-17.9h20.3v51.4h-20.3V197z"/>
	<path fill="#FFF" d="M192.3,166.1h41.9c14.4,0,19.7,6.5,19.7,17.9c0,9.9-5.2,17.5-19.6,17.5h-21.7v16h-20.3V166.1z M212.6,189
		h13.1c5.1,0,7.1-1.6,7.1-5.3c0-3.9-1.9-5.5-7.1-5.5h-13.1V189z"/>
</g>
<g>
	<rect x="111.5" y="140.4" fill="#FFF" width="77" height="12.9"/>
</g>
<path fill="#FFF" d="M192.5,101.1c-1.7-0.3-13.9-2.4-17.5-2.4c-1.2,0-3.1,0.1-5.4,0.4c-6,0.4-15.5,0.9-19.6,0.9
	c-4.1,0-13.6-0.6-19.6-0.9c-2.3-0.3-4.2-0.4-5.4-0.4c-3.5,0-15.8,2.1-17.5,2.4c-4.3,0.6-7.5,4.7-7.5,9.5c0,0.2,0,4,0.4,8.4
	c0.7,8.5,2.2,11.2,3.2,12.4c1,1.2,4,4.8,18.7,5.8c0.3,0,0.6,0,0.9,0c0,0,0,0,0,0c4.9,0,13.2-2.5,17.1-5.2c2.7-1.8,5.6-6.2,7.5-10.8
	l0,0c0.4-0.8,1.2-1.3,2.1-1.3c1,0,1.8,0.6,2.2,1.5c1.9,4.5,4.8,8.8,7.4,10.6c3.9,2.7,12.2,5.2,17.1,5.2c0,0,0,0,0,0
	c0.3,0,0.6,0,0.9,0c14.8-1,17.7-4.6,18.7-5.8c1-1.3,2.5-3.9,3.2-12.4c0.4-4.3,0.4-8.2,0.4-8.4C200,105.8,196.8,101.7,192.5,101.1z
	 M125,101.9c3.5,0,12.1,0.5,16.9,2.1h-32C113.8,103.3,122.4,101.9,125,101.9z M146.9,112.8c0,0.4,0,0.8-0.1,1.3h-43.4
	c0-1-0.1-1.9-0.1-2.5h43.6C146.9,112,146.9,112.4,146.9,112.8z M103.9,121.7h40.2c-0.4,0.9-0.9,1.7-1.4,2.5h-38.5
	C104.1,123.5,104,122.6,103.9,121.7z M103.6,119.2c-0.1-0.9-0.1-1.7-0.2-2.5h42.7c-0.2,0.8-0.5,1.7-0.9,2.5H103.6z M103.4,109
	c0.2-1,0.6-1.8,1.1-2.5h41c0.4,0.7,0.7,1.6,0.9,2.5H103.4z M122.6,134c-2.8-0.2-8.2-0.7-12.2-2.1h22.8
	C129.5,133.2,125.2,134.1,122.6,134z M138.6,129.4C138.6,129.4,138.6,129.4,138.6,129.4l-32.5,0c0,0,0,0,0,0
	c-0.5-0.6-0.9-1.4-1.2-2.5h36.2C140.2,127.9,139.4,128.8,138.6,129.4z M155.9,121.7h40.2c-0.1,0.9-0.2,1.7-0.4,2.5h-38.5
	C156.8,123.5,156.4,122.6,155.9,121.7z M196.5,119.2h-41.6c-0.3-0.9-0.6-1.7-0.9-2.5h42.7C196.6,117.5,196.5,118.3,196.5,119.2z
	 M153.3,114.1c-0.1-0.5-0.1-0.9-0.1-1.3c0-0.4,0-0.8,0-1.3h43.6c0,0.6,0,1.5-0.1,2.5H153.3z M195.6,106.5c0.5,0.7,0.9,1.6,1.1,2.5
	h-43.1c0.2-0.9,0.5-1.8,0.9-2.5H195.6z M175,101.9c2.6,0,11.3,1.4,15.1,2.1h-32C163,102.3,171.6,101.9,175,101.9z M159,126.8h36.2
	c-0.3,1.1-0.7,2-1.2,2.5c0,0,0,0,0,0h-32.5c0,0,0,0,0,0C160.7,128.8,159.8,127.9,159,126.8z M177.5,134c-2.6,0.2-6.9-0.7-10.6-2.1
	h22.8C185.7,133.3,180.3,133.8,177.5,134z"/>
<g>
	<path fill="#FFF" d="M134.4,89.5L99.3,71.1h35.7L150,81.1l15.1-10.1h35.7l-35.1,18.5v7.2h-31.2V89.5z"/>
</g>
</svg>
