<?xml version="1.0" encoding="utf-8"?>
<!-- Generator: Adobe Illustrator 18.0.0, SVG Export Plug-In . SVG Version: 6.00 Build 0)  -->
<!DOCTYPE svg PUBLIC "-//W3C//DTD SVG 1.1//EN" "http://www.w3.org/Graphics/SVG/1.1/DTD/svg11.dtd">
<svg version="1.1" id="Layer_1" xmlns="http://www.w3.org/2000/svg" xmlns:xlink="http://www.w3.org/1999/xlink" x="0px" y="0px"
	 viewBox="0 0 400 400" enable-background="new 0 0 400 400" xml:space="preserve">
<circle fill="#F7941E" cx="200" cy="200" r="200"/>
<circle opacity="0.2" cx="65.8" cy="236.3" r="41.2"/>
<path opacity="0.2" d="M65.8,277.5c-16.9,0-31.4,10.2-37.7,24.7c18.9,31.7,46.2,57.7,78.9,74.9v-58.4
	C107,295.9,88.6,277.5,65.8,277.5z"/>
<circle opacity="0.2" cx="318.2" cy="236.3" r="41.2"/>
<path opacity="0.2" d="M337.2,345.5c8.2-8.7,15.7-18,22.2-28c-0.6-22.2-18.8-40-41.2-40c-22.8,0-41.2,18.4-41.2,41.2v65.9
	C299.4,375.3,319.8,361.9,337.2,345.5z"/>
<circle opacity="0.2" cx="192" cy="160.8" r="66.7"/>
<path opacity="0.2" d="M192,227.5c-36.8,0-66.7,29.8-66.7,66.7v91.4c23.1,9.3,48.3,14.4,74.7,14.4c20.4,0,40.1-3.1,58.6-8.7v-97.2
	C258.7,257.3,228.8,227.5,192,227.5z"/>
<circle fill="#EEEEEE" cx="200" cy="152.8" r="66.7"/>
<path fill="#EEEEEE" d="M200,219.5c-36.8,0-66.7,29.8-66.7,66.7v102.5C154.2,396,176.6,400,200,400l0,0c23.4,0,45.8-4,66.6-11.4
	V286.1C266.7,249.3,236.8,219.5,200,219.5z"/>
<circle fill="#EEEEEE" cx="73.8" cy="228.3" r="41.2"/>
<circle fill="#EEEEEE" cx="326.2" cy="228.3" r="41.2"/>
<path fill="#EEEEEE" d="M367.4,309.5c-0.6-22.2-18.8-40-41.2-40c-22.8,0-41.2,18.4-41.2,41.2v70.4
	C318.6,365.3,347.2,340.3,367.4,309.5z"/>
<path fill="#EEEEEE" d="M73.8,269.5c-22.4,0-40.5,17.8-41.2,40c20.2,30.8,48.7,55.8,82.4,71.6v-70.4
	C115,287.9,96.6,269.5,73.8,269.5z"/>
</svg>
