<?xml version="1.0" encoding="UTF-8" standalone="no"?>
<!-- Generator: Adobe Illustrator 18.1.1, SVG Export Plug-In . SVG Version: 6.00 Build 0)  -->

<svg
   xmlns:dc="http://purl.org/dc/elements/1.1/"
   xmlns:cc="http://creativecommons.org/ns#"
   xmlns:rdf="http://www.w3.org/1999/02/22-rdf-syntax-ns#"
   xmlns:svg="http://www.w3.org/2000/svg"
   xmlns="http://www.w3.org/2000/svg"
   xmlns:sodipodi="http://sodipodi.sourceforge.net/DTD/sodipodi-0.dtd"
   xmlns:inkscape="http://www.inkscape.org/namespaces/inkscape"
   version="1.1"
   id="Layer_1"
   x="0px"
   y="0px"
   viewBox="0 0 500 500"
   enable-background="new 0 0 600 600"
   xml:space="preserve"
   inkscape:version="0.48.4 r9939"
   width="100%"
   height="100%"
   sodipodi:docname="seal.svg"><metadata
     id="metadata3049"><rdf:RDF><cc:Work
         rdf:about=""><dc:format>image/svg+xml</dc:format><dc:type
           rdf:resource="http://purl.org/dc/dcmitype/StillImage" /></cc:Work></rdf:RDF></metadata><defs
     id="defs3047" /><sodipodi:namedview
     pagecolor="#ffffff"
     bordercolor="#666666"
     borderopacity="1"
     objecttolerance="10"
     gridtolerance="10"
     guidetolerance="10"
     inkscape:pageopacity="0"
     inkscape:pageshadow="2"
     inkscape:window-width="1280"
     inkscape:window-height="745"
     id="namedview3045"
     showgrid="false"
     fit-margin-top="0"
     fit-margin-left="0"
     fit-margin-right="0"
     fit-margin-bottom="0"
     inkscape:zoom="0.39333333"
     inkscape:cx="250"
     inkscape:cy="250"
     inkscape:window-x="0"
     inkscape:window-y="27"
     inkscape:window-maximized="1"
     inkscape:current-layer="Layer_1" /><g
     id="g3107"><circle
       transform="translate(-50,-50)"
       style="fill:#64b5f6"
       sodipodi:ry="250"
       sodipodi:rx="250"
       sodipodi:cy="300"
       sodipodi:cx="300"
       id="circle2991"
       r="250"
       cy="300"
       cx="300" /><g
       transform="translate(-50,-50)"
       id="g2993"><path
         style="fill:#ffc107"
         inkscape:connector-curvature="0"
         id="path2995"
         d="m 349,262.1 c 7.2,-9.8 11.5,-21.9 11.6,-35 0.4,-33.4 -26.7,-61.1 -60.2,-61.3 -33.7,-0.2 -61,27 -61,60.6 0,13.4 4.3,25.7 11.7,35.7 4,5.5 2.5,13.1 -3.2,16.7 -27.6,17.3 -45.9,48 -45.9,83 0,54 44,98.1 98.1,98.1 54.2,0 98.1,-43.9 98.1,-98.1 0,-35 -18.4,-65.8 -46,-83.1 -5.9,-3.5 -7.2,-11.1 -3.2,-16.6 z" /><path
         style="fill:#ffc107"
         inkscape:connector-curvature="0"
         id="path2997"
         d="m 327.3,154 6.1,-10.5 c -3.9,-2.2 -8.3,-3.5 -13.1,-3.5 -14.5,0 -26.3,11.8 -26.3,26.3 h 12.1 c 0,-7.8 6.3,-14.1 14.1,-14.1 2.6,-0.1 5,0.6 7.1,1.8 z" /></g><g
       transform="translate(-50,-50)"
       id="g2999"><path
         style="fill:#ffffff"
         inkscape:connector-curvature="0"
         id="path3001"
         d="m 141.9,209.7 c -1,1.7 -2,3 -3.2,3.9 -1.2,0.9 -2.4,1.6 -3.6,1.9 -1.2,0.3 -2.6,0.3 -4.2,0.1 -1.6,-0.2 -3,-0.7 -4.5,-1.3 -1.5,-0.6 -3.2,-1.5 -5,-2.5 l -9.2,-5.3 c -8.9,-5.1 -11.4,-11.2 -7.3,-18.3 1,-1.7 2.1,-3 3.3,-4 1.2,-1 2.5,-1.5 4,-1.8 1.4,-0.2 2.9,-0.1 4.4,0.2 1.5,0.4 3.2,1 4.9,1.9 0.3,0.1 0.6,0.3 1.1,0.6 l -3,5.2 -1.1,-0.6 c -0.9,-0.5 -1.6,-0.9 -2.3,-1.1 -0.7,-0.3 -1.3,-0.5 -2.1,-0.6 -0.7,-0.1 -1.3,-0.2 -1.9,0 -0.6,0.1 -1.1,0.4 -1.7,0.8 -0.5,0.4 -1,1 -1.5,1.8 -0.6,1.1 -0.9,2.1 -0.9,3 0,0.9 0.2,1.8 0.7,2.6 0.5,0.8 1.2,1.5 2,2.2 0.8,0.7 1.8,1.3 3,2 l 11.7,6.7 c 0.9,0.5 1.7,0.9 2.4,1.3 0.7,0.3 1.5,0.7 2.3,0.9 0.8,0.2 1.5,0.5 2.2,0.5 0.7,0.1 1.3,0 2,-0.1 0.6,-0.1 1.2,-0.4 1.8,-0.8 0.6,-0.4 1,-1 1.4,-1.8 0.5,-0.9 0.8,-1.7 0.8,-2.5 0,-0.8 -0.1,-1.6 -0.4,-2.3 -0.3,-0.7 -0.8,-1.4 -1.5,-2.1 -0.7,-0.7 -1.4,-1.3 -2.2,-1.8 -0.8,-0.5 -1.7,-1.1 -2.7,-1.7 l -1.3,-0.7 -3,5.2 -3.9,-2.2 5.9,-10.4 18.2,10.4 -2.2,3.9 -4.7,-0.9 c 2.2,2.7 2.7,5.2 1.3,7.7 z" /><path
         style="fill:#ffffff"
         inkscape:connector-curvature="0"
         id="path3003"
         d="m 156.9,182.7 c 0.7,2.2 0,4.6 -1.9,7.2 -1.9,2.6 -4.1,3.8 -6.4,3.8 -2.3,0 -4.9,-1.1 -7.7,-3.2 l -7.2,-5.4 c -2.8,-2.1 -4.5,-4.3 -5.2,-6.6 -0.7,-2.2 0,-4.6 1.9,-7.2 1.9,-2.6 4.1,-3.8 6.4,-3.8 2.3,0 4.9,1.1 7.7,3.2 l 7.2,5.4 c 2.8,2.1 4.6,4.3 5.2,6.6 z m -6.7,5 c 0.3,-0.2 0.6,-0.4 0.8,-0.8 0.3,-0.3 0.4,-0.7 0.5,-1 0.1,-0.3 0.1,-0.6 0.1,-0.9 0,-0.3 -0.1,-0.6 -0.3,-0.9 -0.2,-0.3 -0.4,-0.6 -0.5,-0.8 -0.1,-0.2 -0.4,-0.5 -0.8,-0.8 -0.4,-0.3 -0.7,-0.6 -0.9,-0.8 -0.2,-0.2 -0.6,-0.4 -1,-0.8 l -7.2,-5.4 c -0.5,-0.3 -0.8,-0.6 -1,-0.8 -0.2,-0.2 -0.6,-0.4 -1,-0.7 -0.4,-0.3 -0.8,-0.5 -1,-0.6 -0.2,-0.1 -0.6,-0.2 -0.9,-0.3 -0.4,-0.1 -0.7,-0.1 -1,-0.1 -0.3,0.1 -0.6,0.2 -0.8,0.4 -0.3,0.2 -0.6,0.4 -0.8,0.8 -0.3,0.3 -0.4,0.7 -0.5,1 -0.1,0.3 -0.1,0.6 -0.1,0.9 0,0.3 0.1,0.6 0.3,0.9 0.2,0.3 0.4,0.6 0.5,0.8 0.2,0.2 0.4,0.5 0.8,0.8 0.4,0.3 0.7,0.6 0.9,0.8 0.2,0.2 0.6,0.4 1,0.8 l 7.2,5.4 c 0.5,0.4 0.8,0.6 1,0.8 0.2,0.2 0.6,0.4 1,0.7 0.4,0.3 0.8,0.5 1,0.6 0.3,0.1 0.6,0.2 0.9,0.3 0.4,0.1 0.7,0.1 1,0.1 0.3,-0.1 0.5,-0.2 0.8,-0.4 z" /><path
         style="fill:#ffffff"
         inkscape:connector-curvature="0"
         id="path3005"
         d="m 165.9,176.7 c -0.9,0.9 -2,1.4 -3.2,1.3 -1.2,-0.1 -2.3,-0.6 -3.3,-1.5 l -18.4,-17.8 4.2,-4.3 17.1,16.5 c 0.4,0.4 0.9,0.6 1.5,0.6 0.6,0 1,-0.2 1.5,-0.7 0.2,-0.2 0.4,-0.5 0.6,-0.8 0.2,-0.3 0.3,-0.6 0.3,-1 0.1,-0.4 0.1,-0.6 0.2,-0.8 0.1,-0.2 0.1,-0.5 0.1,-0.9 0,-0.4 0,-0.7 0,-0.8 l -17.1,-16.5 4.2,-4.3 21.6,20.8 -4.2,4.3 -2.3,-2.2 c 0,0.8 -0.1,1.4 -0.1,1.7 0,0.3 -0.1,0.9 -0.2,1.6 -0.1,0.7 -0.2,1.2 -0.4,1.7 -0.2,0.4 -0.4,0.9 -0.8,1.5 -0.4,0.6 -0.8,1.1 -1.3,1.6 z" /><path
         style="fill:#ffffff"
         inkscape:connector-curvature="0"
         id="path3007"
         d="m 178.4,163.8 -19.4,-22.9 4.6,-3.9 2.6,3.1 c -0.3,-1.3 -0.3,-2.7 0,-4.1 0.3,-1.4 1,-2.6 2.1,-3.5 0,0 0.3,-0.2 0.8,-0.5 l 4.3,5.1 c -1.1,0.4 -2.1,0.9 -3,1.6 -1,0.8 -1.5,1.7 -1.6,2.8 -0.1,1.1 0.2,2.1 1,3 l 13,15.5 -4.4,3.8 z" /><path
         style="fill:#ffffff"
         inkscape:connector-curvature="0"
         id="path3009"
         d="m 195.9,150.5 c -1.1,0.7 -2.3,1.1 -3.5,1 -1.2,-0.1 -2.4,-0.5 -3.6,-1.2 -1.2,-0.8 -2.2,-1.6 -3.2,-2.6 -1,-1 -2,-2.1 -2.9,-3.4 -0.4,-0.6 -1.4,-2.1 -3,-4.5 -0.6,-0.9 -1,-1.7 -1.5,-2.4 -0.5,-0.7 -0.8,-1.5 -1.2,-2.3 -0.4,-0.8 -0.7,-1.6 -0.9,-2.3 -0.2,-0.7 -0.3,-1.4 -0.4,-2.2 -0.1,-0.7 0,-1.4 0.2,-2.1 0.2,-0.7 0.5,-1.2 0.9,-1.8 0.4,-0.6 1,-1.1 1.7,-1.6 0.6,-0.4 1.1,-0.7 1.7,-0.8 0.6,-0.1 1.2,-0.3 1.9,-0.2 0.7,0 1.2,0.1 1.6,0.1 0.4,0.1 1,0.2 1.7,0.3 l -8.4,-12.4 5,-3.4 23.5,34.8 -5,3.4 -1.5,-2.3 c -0.2,1.3 -0.6,2.4 -1,3.4 -0.4,1 -1,1.9 -2.1,2.5 z m -1.5,-4.9 c 1.2,-0.8 2.3,-1.9 3.2,-3.3 L 187,126.7 c -1.6,0.1 -3,0.6 -4.4,1.5 -0.5,0.3 -0.8,0.7 -1,1.2 -0.2,0.5 -0.2,1 0,1.6 0.1,0.6 0.3,1.1 0.6,1.7 0.3,0.5 0.6,1.1 1,1.8 1.9,2.9 3.5,5.2 4.7,6.9 0.6,0.8 1.1,1.5 1.6,2.1 0.5,0.6 1.1,1.1 1.6,1.6 0.5,0.5 1.2,0.8 1.7,0.9 0.5,0.1 1.1,0 1.6,-0.4 z" /><path
         style="fill:#ffffff"
         inkscape:connector-curvature="0"
         id="path3011"
         d="m 228.1,132.7 c -3.5,1.5 -6.6,1.7 -9.3,0.4 -2.7,-1.2 -4.9,-3.6 -6.7,-7 l 4.9,-3.8 c 2.7,5.4 5.7,7.3 9.1,5.8 2.7,-1.2 3.5,-3.2 2.3,-5.9 -0.4,-0.8 -0.8,-1.5 -1.3,-2.1 -0.5,-0.6 -1.1,-1.1 -1.9,-1.5 -0.7,-0.4 -1.3,-0.7 -1.9,-0.9 -0.5,-0.2 -1.2,-0.4 -2.1,-0.6 l -9.3,-2.5 c -1.7,-0.4 -3.2,-1.3 -4.7,-2.5 -1.4,-1.2 -2.6,-2.8 -3.4,-4.7 -1.2,-2.8 -1.3,-5.5 -0.3,-7.9 1,-2.4 3,-4.3 5.9,-5.6 3.1,-1.4 5.9,-1.7 8.4,-1 2.5,0.7 4.6,2.4 6.2,5 0.2,0.3 0.4,0.7 0.7,1.2 L 220,103 c -0.1,-0.2 -0.3,-0.6 -0.6,-1 -1,-1.6 -2.2,-2.8 -3.5,-3.5 -1.3,-0.7 -2.8,-0.7 -4.4,0.1 -1.3,0.6 -2.2,1.4 -2.6,2.4 -0.4,1 -0.3,2.2 0.3,3.6 0.9,2.2 2.7,3.6 5.1,4.2 l 9.3,2.5 c 5,1.4 8.3,4.1 10.1,8.2 1.2,2.8 1.3,5.4 0.3,7.8 -1,2.3 -3,4.1 -5.9,5.4 z" /><path
         style="fill:#ffffff"
         inkscape:connector-curvature="0"
         id="path3013"
         d="m 248.7,125.3 c -1.4,0.4 -2.7,0.5 -3.8,0.4 -1.2,-0.2 -2.2,-0.6 -3,-1.2 -0.8,-0.6 -1.6,-1.4 -2.3,-2.5 -0.7,-1.1 -1.3,-2.2 -1.8,-3.4 -0.5,-1.2 -1,-2.5 -1.5,-4.1 -0.4,-1.2 -0.8,-2.5 -1.1,-3.8 -0.4,-1.5 -0.7,-2.9 -0.9,-4.1 -0.2,-1.2 -0.2,-2.4 -0.2,-3.6 0,-1.2 0.3,-2.3 0.7,-3.1 0.4,-0.9 1.1,-1.7 2,-2.4 0.9,-0.7 2,-1.3 3.4,-1.7 1.2,-0.4 2.4,-0.5 3.4,-0.5 1,0 2,0.3 2.8,0.8 0.8,0.5 1.5,1 2.2,1.7 0.7,0.7 1.2,1.5 1.8,2.6 0.5,1.1 1,2.1 1.4,3.2 0.4,1.1 0.8,2.3 1.2,3.7 l 0.2,0.7 -11.5,3.4 0.4,1.4 c 0.1,0.2 0.1,0.5 0.3,0.9 0.1,0.6 0.3,1.1 0.5,1.7 0.2,0.6 0.4,1.2 0.6,1.7 0.2,0.6 0.4,1.1 0.7,1.6 0.3,0.5 0.6,0.9 0.9,1.2 0.3,0.3 0.7,0.6 1.1,0.7 0.4,0.1 0.9,0.1 1.3,0 0.6,-0.2 1.1,-0.4 1.4,-0.8 0.3,-0.3 0.5,-0.8 0.6,-1.3 0.1,-0.5 0,-1 0,-1.5 -0.1,-0.5 -0.2,-1.1 -0.4,-1.8 l -0.4,-1.2 5.7,-1.7 0.3,1.1 c 0.8,3.1 0.7,5.7 -0.2,7.6 -0.9,1.9 -3,3.4 -5.8,4.3 z m -8.1,-16.9 5.7,-1.7 -0.5,-1.7 c -0.2,-0.8 -0.5,-1.4 -0.7,-2 -0.2,-0.5 -0.5,-1.1 -0.9,-1.6 -0.4,-0.5 -0.8,-0.9 -1.3,-1 -0.5,-0.2 -1,-0.2 -1.6,0 -0.6,0.2 -1,0.5 -1.3,0.9 -0.3,0.4 -0.5,1 -0.5,1.6 0,0.6 0,1.3 0.1,1.9 0.1,0.6 0.2,1.3 0.5,2.1 l 0.5,1.5 z" /><path
         style="fill:#ffffff"
         inkscape:connector-curvature="0"
         id="path3015"
         d="m 265.7,121.1 c -1.6,0.3 -3.2,-0.2 -4.6,-1.4 -1.4,-1.2 -2.2,-2.7 -2.5,-4.5 -0.2,-1.4 -0.2,-2.8 0.1,-4 0.3,-1.3 0.6,-2.3 1.1,-3.1 0.4,-0.8 1.2,-1.7 2.3,-2.6 1.1,-1 2,-1.6 2.6,-2 0.6,-0.4 1.6,-1 3.1,-1.9 0.3,-0.2 0.5,-0.3 0.6,-0.4 L 268,99 c -0.3,-1.5 -0.7,-2.6 -1.2,-3.4 -0.6,-0.8 -1.4,-1 -2.5,-0.8 -1,0.2 -1.7,0.7 -2,1.4 -0.3,0.7 -0.4,1.8 -0.3,3 0,0.2 0.1,0.4 0.1,0.8 l -5.9,1 c -0.5,-2.8 -0.1,-5.2 1.2,-7.2 1.3,-1.9 3.3,-3.2 6.1,-3.6 2.8,-0.5 5.1,0 6.9,1.4 1.9,1.4 3,3.5 3.5,6.3 l 2.3,13.3 c 0.5,3.1 1.2,5.5 2,7.3 l -5.9,1 -1.5,-4.3 c -0.2,0.7 -0.4,1.2 -0.5,1.6 -0.1,0.4 -0.3,0.8 -0.6,1.4 -0.3,0.6 -0.6,1 -0.9,1.3 -0.3,0.3 -0.7,0.6 -1.3,0.9 -0.5,0.4 -1.1,0.6 -1.8,0.7 z m 2.1,-5.3 c 0.4,-0.1 0.8,-0.3 1.1,-0.6 0.4,-0.3 0.6,-0.6 0.8,-0.9 0.2,-0.3 0.4,-0.6 0.6,-1.1 0,-0.1 0.1,-0.1 0.1,-0.2 l -1.4,-8.2 c -0.2,0.2 -0.6,0.5 -1.1,1 -0.5,0.5 -0.9,0.8 -1.2,1.1 -0.3,0.3 -0.7,0.7 -1.1,1.1 -0.4,0.5 -0.7,0.9 -0.9,1.3 -0.2,0.4 -0.4,0.9 -0.5,1.4 -0.1,0.6 -0.1,1.1 0,1.7 0.5,2.6 1.6,3.7 3.6,3.4 z" /><path
         style="fill:#ffffff"
         inkscape:connector-curvature="0"
         id="path3017"
         d="m 281.9,118.4 -3.5,-41.9 6,-0.5 3.5,41.9 -6,0.5 z" /><path
         style="fill:#ffffff"
         inkscape:connector-curvature="0"
         id="path3019"
         d="m 317.2,115.8 c -1.5,1.8 -3.8,2.6 -7.1,2.4 -3.2,-0.2 -5.5,-1.2 -6.8,-3.2 -1.3,-2 -1.8,-4.7 -1.6,-8.2 l 0.5,-9 c 0.2,-3.5 1,-6.2 2.5,-8 1.5,-1.8 3.8,-2.6 7.1,-2.4 3.3,0.2 5.5,1.2 6.8,3.2 1.3,1.9 1.8,4.7 1.6,8.2 l -0.5,9 c -0.2,3.5 -1.1,6.2 -2.5,8 z m -7.9,-2.8 c 0.3,0.1 0.7,0.2 1.1,0.2 0.4,0 0.8,0 1.1,-0.1 0.3,-0.1 0.6,-0.2 0.8,-0.4 0.2,-0.2 0.4,-0.4 0.6,-0.8 0.2,-0.4 0.3,-0.6 0.4,-0.9 0.1,-0.3 0.2,-0.6 0.2,-1.1 0.1,-0.5 0.1,-0.9 0.1,-1.2 0,-0.3 0.1,-0.7 0.1,-1.3 l 0.5,-9 c 0,-0.6 0.1,-1 0.1,-1.3 0,-0.3 0,-0.7 0,-1.2 0,-0.5 0,-0.9 -0.1,-1.2 -0.1,-0.3 -0.2,-0.6 -0.3,-0.9 -0.1,-0.4 -0.3,-0.6 -0.5,-0.8 -0.2,-0.2 -0.5,-0.4 -0.8,-0.5 -0.3,-0.1 -0.7,-0.2 -1.1,-0.2 -0.4,0 -0.8,0 -1.1,0.1 -0.3,0.1 -0.6,0.2 -0.8,0.4 -0.2,0.2 -0.4,0.4 -0.6,0.8 -0.2,0.3 -0.3,0.6 -0.4,0.9 -0.1,0.3 -0.2,0.6 -0.2,1.1 -0.1,0.5 -0.1,0.9 -0.1,1.2 0,0.3 -0.1,0.7 -0.1,1.3 l -0.5,9 c 0,0.6 -0.1,1 -0.1,1.3 0,0.3 0,0.7 0,1.2 0,0.5 0,0.9 0.1,1.2 0.1,0.3 0.2,0.6 0.3,0.9 0.1,0.4 0.3,0.6 0.5,0.8 0.2,0.2 0.5,0.4 0.8,0.5 z" /><path
         style="fill:#ffffff"
         inkscape:connector-curvature="0"
         id="path3021"
         d="m 324.7,119.1 3.8,-25.2 -3,-0.5 0.7,-4.4 3,0.5 0.2,-1.1 c 0.2,-1.3 0.4,-2.3 0.6,-3.2 0.2,-0.9 0.5,-1.7 1,-2.4 0.4,-0.8 0.9,-1.4 1.5,-1.8 0.6,-0.4 1.3,-0.7 2.1,-0.9 0.9,-0.2 1.8,-0.2 3,0 1,0.1 2.2,0.4 3.6,0.8 l -0.7,4.4 c -0.2,0 -0.5,-0.1 -0.9,-0.3 -0.4,-0.2 -0.8,-0.2 -1,-0.3 -1,-0.2 -1.7,0.1 -2.1,0.6 -0.4,0.5 -0.7,1.5 -0.9,2.7 l -0.3,2.2 4.4,0.7 -0.7,4.4 -4.4,-0.7 -3.8,25.2 -6.1,-0.7 z" /><path
         style="fill:#ffffff"
         inkscape:connector-curvature="0"
         id="path3023"
         d="M 343.7,122.4 365,85 l 5.7,1.8 -4.1,42.8 -5.7,-1.8 1,-10.7 -7.2,-2.3 -5.3,9.3 -5.7,-1.7 z m 13.1,-11.6 5.7,1.8 2.6,-18.1 -8.3,16.3 z" /><path
         style="fill:#ffffff"
         inkscape:connector-curvature="0"
         id="path3025"
         d="m 364.6,138.6 16.5,-35.4 5.4,2.5 -1.3,2.7 c 0.7,-0.3 1.1,-0.4 1.4,-0.5 0.2,-0.1 0.7,-0.2 1.2,-0.4 0.6,-0.2 1.1,-0.2 1.4,-0.2 0.4,0 0.8,0 1.4,0.1 0.5,0.1 1.1,0.2 1.6,0.5 0.9,0.4 1.7,1 2.2,1.6 0.6,0.7 1,1.3 1.2,2 0.3,0.7 0.3,1.5 0.3,2.6 -0.1,1 -0.2,1.9 -0.4,2.7 -0.2,0.8 -0.5,1.8 -1,3 -0.5,1.2 -0.9,2.2 -1.2,3 -0.3,0.8 -0.8,1.8 -1.4,3.1 l -0.2,0.4 c -0.6,1.2 -1.1,2.3 -1.8,3.4 -0.7,1.1 -1.4,2.1 -2.2,3.1 -0.8,1 -1.7,1.8 -2.6,2.4 -0.9,0.6 -1.8,1 -2.9,1.1 -1.1,0.2 -2.1,0 -3.2,-0.5 -1.8,-0.9 -3.2,-2.6 -4.1,-5.4 l -4.9,10.6 -5.4,-2.4 z m 15.2,-7.8 c 0.6,0.3 1.2,0.3 1.8,0 0.6,-0.2 1.2,-0.7 1.7,-1.4 0.5,-0.7 1,-1.4 1.5,-2.2 0.5,-0.8 0.9,-1.6 1.4,-2.7 l 1.6,-3.6 c 0.3,-0.6 0.5,-1.2 0.7,-1.5 0.2,-0.4 0.4,-0.9 0.6,-1.6 0.3,-0.7 0.4,-1.2 0.6,-1.7 0.1,-0.4 0.2,-1 0.3,-1.5 0.1,-0.6 0.1,-1 0,-1.4 -0.1,-0.4 -0.3,-0.8 -0.5,-1.1 -0.3,-0.4 -0.6,-0.6 -1,-0.8 -0.2,-0.1 -0.4,-0.2 -0.6,-0.2 -0.2,-0.1 -0.4,-0.1 -0.7,-0.1 -0.2,0 -0.4,-0.1 -0.6,-0.1 -0.2,0 -0.4,0 -0.6,0 -0.2,0 -0.5,0 -0.6,0 -0.1,0 -0.3,0 -0.6,0.1 -0.3,0 -0.5,0.1 -0.5,0.1 l -7.8,16.8 c 0.6,1.2 1.8,2.2 3.3,2.9 z" /><path
         style="fill:#ffffff"
         inkscape:connector-curvature="0"
         id="path3027"
         d="m 384.5,148.2 20.8,-33 5.1,3.2 -1.6,2.5 c 0.7,-0.2 1.2,-0.3 1.4,-0.4 0.3,-0.1 0.7,-0.1 1.3,-0.2 0.6,-0.1 1.1,-0.1 1.4,-0.1 0.4,0 0.8,0.1 1.3,0.3 0.5,0.2 1,0.4 1.5,0.7 0.9,0.5 1.5,1.2 2,1.9 0.5,0.7 0.8,1.5 1,2.2 0.2,0.7 0.1,1.6 -0.1,2.6 -0.2,1 -0.4,1.9 -0.7,2.6 -0.3,0.8 -0.7,1.7 -1.3,2.9 -0.6,1.2 -1.2,2.1 -1.6,2.8 -0.4,0.7 -1,1.7 -1.8,2.9 l -0.2,0.4 c -0.7,1.1 -1.4,2.1 -2.2,3.1 -0.8,1 -1.6,1.9 -2.6,2.8 -1,0.9 -1.9,1.6 -2.9,2 -0.9,0.5 -2,0.7 -3,0.8 -1,0.1 -2.1,-0.3 -3.1,-0.9 -1.7,-1.1 -2.9,-3 -3.4,-5.8 l -6.2,9.9 -5.1,-3.2 z m 16.1,-5.8 c 0.5,0.3 1.1,0.4 1.7,0.3 0.6,-0.2 1.2,-0.6 1.9,-1.2 0.6,-0.6 1.2,-1.3 1.7,-2 0.5,-0.7 1.1,-1.5 1.7,-2.5 l 2.1,-3.4 c 0.4,-0.6 0.7,-1.1 0.9,-1.4 0.2,-0.4 0.5,-0.9 0.8,-1.5 0.3,-0.6 0.6,-1.2 0.8,-1.6 0.2,-0.4 0.3,-0.9 0.5,-1.5 0.1,-0.6 0.2,-1 0.2,-1.4 0,-0.4 -0.2,-0.8 -0.4,-1.2 -0.2,-0.4 -0.5,-0.7 -0.9,-1 -0.2,-0.1 -0.4,-0.2 -0.6,-0.3 -0.2,-0.1 -0.4,-0.2 -0.6,-0.2 -0.2,-0.1 -0.4,-0.1 -0.6,-0.1 -0.2,0 -0.4,-0.1 -0.6,-0.1 -0.3,0 -0.5,0 -0.6,0 -0.1,0 -0.3,0 -0.6,0 -0.3,0 -0.5,0 -0.5,0 l -9.9,15.7 c 0.6,1.3 1.7,2.5 3,3.4 z" /><path
         style="fill:#ffffff"
         inkscape:connector-curvature="0"
         id="path3029"
         d="m 408.9,153.5 18.6,-23.5 4.7,3.7 -2.5,3.1 c 1.2,-0.6 2.6,-0.8 4,-0.8 1.5,0 2.7,0.5 3.9,1.4 0,0 0.3,0.3 0.7,0.7 l -4.1,5.2 c -0.6,-1 -1.3,-1.9 -2.2,-2.6 -1,-0.8 -2,-1.1 -3.1,-1 -1.1,0.1 -2,0.7 -2.7,1.6 l -12.6,15.9 -4.7,-3.7 z" /><path
         style="fill:#ffffff"
         inkscape:connector-curvature="0"
         id="path3031"
         d="m 433.5,171.9 c -2.3,0.4 -4.6,-0.5 -6.9,-2.8 -2.3,-2.2 -3.3,-4.5 -3,-6.8 0.3,-2.3 1.7,-4.7 4.1,-7.3 l 6.3,-6.5 c 2.5,-2.5 4.8,-4 7.1,-4.4 2.3,-0.4 4.6,0.5 6.9,2.8 2.3,2.2 3.3,4.5 3,6.8 -0.3,2.3 -1.7,4.7 -4.1,7.3 l -6.3,6.5 c -2.5,2.5 -4.8,4 -7.1,4.4 z m -4.2,-7.3 c 0.1,0.3 0.4,0.6 0.7,0.9 0.3,0.3 0.6,0.5 0.9,0.6 0.3,0.1 0.6,0.2 0.9,0.2 0.3,0 0.6,-0.1 0.9,-0.2 0.3,-0.1 0.6,-0.3 0.9,-0.4 0.2,-0.1 0.5,-0.4 0.9,-0.7 0.4,-0.3 0.7,-0.6 0.9,-0.8 0.2,-0.2 0.5,-0.5 0.9,-0.9 l 6.3,-6.5 c 0.4,-0.4 0.7,-0.7 0.9,-0.9 0.2,-0.2 0.5,-0.5 0.8,-0.9 0.3,-0.4 0.6,-0.7 0.7,-0.9 0.1,-0.2 0.3,-0.5 0.4,-0.9 0.1,-0.4 0.2,-0.7 0.2,-0.9 0,-0.3 -0.1,-0.6 -0.3,-0.9 -0.1,-0.3 -0.4,-0.6 -0.7,-0.9 -0.3,-0.3 -0.6,-0.5 -0.9,-0.6 -0.3,-0.1 -0.6,-0.2 -0.9,-0.2 -0.3,0 -0.6,0.1 -0.9,0.2 -0.3,0.2 -0.6,0.3 -0.9,0.4 -0.2,0.1 -0.5,0.4 -0.9,0.7 -0.4,0.3 -0.7,0.6 -0.9,0.8 -0.2,0.2 -0.5,0.5 -0.9,0.9 l -6.3,6.5 c -0.4,0.4 -0.7,0.7 -0.9,0.9 -0.2,0.2 -0.5,0.5 -0.8,0.9 -0.3,0.4 -0.6,0.7 -0.7,0.9 -0.1,0.2 -0.3,0.5 -0.4,0.9 -0.1,0.4 -0.2,0.7 -0.2,0.9 0.1,0.3 0.1,0.6 0.3,0.9 z" /><path
         style="fill:#ffffff"
         inkscape:connector-curvature="0"
         id="path3033"
         d="m 438.8,181.4 18.8,-24.3 3.7,4.4 -14.7,17.6 19.8,-11.4 3.7,4.4 -27.4,14 -3.9,-4.7 z" /><path
         style="fill:#ffffff"
         inkscape:connector-curvature="0"
         id="path3035"
         d="m 450.7,197.7 c -0.9,-1.4 -1.1,-3 -0.5,-4.7 0.6,-1.8 1.6,-3.1 3.1,-4.1 1.2,-0.8 2.5,-1.3 3.7,-1.6 1.2,-0.3 2.3,-0.3 3.2,-0.3 0.9,0 2,0.4 3.3,1.1 1.3,0.7 2.3,1.2 2.9,1.6 0.6,0.4 1.6,1.1 3,2.1 0.2,0.2 0.4,0.3 0.6,0.4 l 1.8,-1.2 c 1.3,-0.8 2.1,-1.7 2.6,-2.5 0.5,-0.8 0.4,-1.7 -0.2,-2.7 -0.6,-0.9 -1.3,-1.3 -2.1,-1.3 -0.8,0 -1.8,0.3 -2.9,1 -0.2,0.1 -0.4,0.2 -0.7,0.4 l -3.3,-5 c 2.4,-1.5 4.8,-2.1 7.1,-1.7 2.3,0.4 4.2,1.8 5.7,4.1 1.5,2.3 2,4.7 1.4,6.9 -0.6,2.3 -2,4.2 -4.4,5.8 l -11.3,7.4 c -2.6,1.7 -4.6,3.3 -5.9,4.8 l -3.3,-5 3.3,-3.1 c -0.7,0.1 -1.2,0.1 -1.6,0.2 -0.4,0 -0.9,0 -1.5,0 -0.6,0 -1.2,-0.1 -1.6,-0.3 -0.4,-0.2 -0.9,-0.4 -1.4,-0.8 -0.5,-0.4 -0.7,-0.9 -1,-1.5 z m 5.7,-0.2 c 0.2,0.4 0.6,0.6 1,0.8 0.4,0.2 0.8,0.3 1.1,0.4 0.3,0 0.7,0.1 1.2,0.1 0.1,0 0.2,0 0.2,0 l 6.9,-4.5 c -0.3,-0.1 -0.7,-0.3 -1.3,-0.6 -0.6,-0.3 -1.1,-0.5 -1.5,-0.7 -0.4,-0.2 -0.9,-0.3 -1.5,-0.5 -0.6,-0.2 -1.1,-0.3 -1.6,-0.3 -0.5,0 -1,0 -1.5,0.1 -0.5,0.1 -1.1,0.3 -1.6,0.7 -2,1.3 -2.5,2.8 -1.4,4.5 z" /><path
         style="fill:#ffffff"
         inkscape:connector-curvature="0"
         id="path3037"
         d="m 459.6,211.4 37,-19.8 2.8,5.3 -37,19.8 -2.8,-5.3 z" /></g><g
       transform="translate(-50,-50)"
       id="g3039"><rect
         style="fill:#ffffff"
         id="rect3041"
         height="30.799999"
         width="10.4"
         y="496.89999"
         x="276" /><path
         style="fill:#ffffff"
         inkscape:connector-curvature="0"
         id="path3043"
         d="m 314.4,523.7 c 2.5,-1 4,-3.1 3.8,-5 0,-0.4 -0.2,-1.3 -1,-2.2 2.7,-0.5 4.5,-2.6 4.4,-4.6 -0.1,-1.6 -1.3,-2.7 -1.6,-3 2.2,-0.3 3.9,-2.1 4,-4.2 0.1,-1.8 -1.1,-3.5 -2.8,-4.2 1.5,-0.8 2.4,-2.4 2.4,-4 0,-2 -1.5,-3.9 -3.6,-4.4 h -14.8 c 0.5,-1 0.6,-2.9 0.6,-5.2 0,-4.6 -2.1,-10.4 -7,-10.4 -0.2,0 -1.4,-0.2 -2.1,0.5 -0.2,0.2 -0.2,0.4 -0.2,0.6 l 0.3,6.9 c 0,0.8 -0.2,1.5 -0.5,2.2 l -6.6,11.4 v 25.6 h 24.7 z" /></g></g></svg>