<?xml version="1.0" encoding="utf-8"?>
<!-- Generator: Adobe Illustrator 18.1.1, SVG Export Plug-In . SVG Version: 6.00 Build 0)  -->
<svg version="1.1" id="Layer_1" xmlns="http://www.w3.org/2000/svg" xmlns:xlink="http://www.w3.org/1999/xlink" x="0px" y="0px"
	 viewBox="0 0 600 600" enable-background="new 0 0 600 600" xml:space="preserve">
<circle fill="#64B5F6" cx="300" cy="300" r="250"/>
<g>
	<path fill="#FFC107" d="M349,262.1c7.2-9.8,11.5-21.9,11.6-35c0.4-33.4-26.7-61.1-60.2-61.3c-33.7-0.2-61,27-61,60.6
		c0,13.4,4.3,25.7,11.7,35.7c4,5.5,2.5,13.1-3.2,16.7c-27.6,17.3-45.9,48-45.9,83c0,54,44,98.1,98.1,98.1
		c54.2,0,98.1-43.9,98.1-98.1c0-35-18.4-65.8-46-83.1C346.3,275.2,345,267.6,349,262.1z"/>
	<path fill="#FFC107" d="M327.3,154l6.1-10.5c-3.9-2.2-8.3-3.5-13.1-3.5c-14.5,0-26.3,11.8-26.3,26.3h12.1c0-7.8,6.3-14.1,14.1-14.1
		C322.8,152.1,325.2,152.8,327.3,154z"/>
</g>
<g>
	<path fill="#FFFFFF" d="M141.9,209.7c-1,1.7-2,3-3.2,3.9s-2.4,1.6-3.6,1.9s-2.6,0.3-4.2,0.1s-3-0.7-4.5-1.3c-1.5-0.6-3.2-1.5-5-2.5
		l-9.2-5.3c-8.9-5.1-11.4-11.2-7.3-18.3c1-1.7,2.1-3,3.3-4c1.2-1,2.5-1.5,4-1.8c1.4-0.2,2.9-0.1,4.4,0.2c1.5,0.4,3.2,1,4.9,1.9
		c0.3,0.1,0.6,0.3,1.1,0.6l-3,5.2l-1.1-0.6c-0.9-0.5-1.6-0.9-2.3-1.1c-0.7-0.3-1.3-0.5-2.1-0.6c-0.7-0.1-1.3-0.2-1.9,0
		c-0.6,0.1-1.1,0.4-1.7,0.8c-0.5,0.4-1,1-1.5,1.8c-0.6,1.1-0.9,2.1-0.9,3c0,0.9,0.2,1.8,0.7,2.6c0.5,0.8,1.2,1.5,2,2.2
		c0.8,0.7,1.8,1.3,3,2l11.7,6.7c0.9,0.5,1.7,0.9,2.4,1.3c0.7,0.3,1.5,0.7,2.3,0.9s1.5,0.5,2.2,0.5c0.7,0.1,1.3,0,2-0.1
		c0.6-0.1,1.2-0.4,1.8-0.8s1-1,1.4-1.8c0.5-0.9,0.8-1.7,0.8-2.5c0-0.8-0.1-1.6-0.4-2.3c-0.3-0.7-0.8-1.4-1.5-2.1s-1.4-1.3-2.2-1.8
		c-0.8-0.5-1.7-1.1-2.7-1.7l-1.3-0.7l-3,5.2l-3.9-2.2l5.9-10.4l18.2,10.4l-2.2,3.9l-4.7-0.9C142.8,204.7,143.3,207.2,141.9,209.7z"
		/>
	<path fill="#FFFFFF" d="M156.9,182.7c0.7,2.2,0,4.6-1.9,7.2c-1.9,2.6-4.1,3.8-6.4,3.8c-2.3,0-4.9-1.1-7.7-3.2l-7.2-5.4
		c-2.8-2.1-4.5-4.3-5.2-6.6c-0.7-2.2,0-4.6,1.9-7.2c1.9-2.6,4.1-3.8,6.4-3.8c2.3,0,4.9,1.1,7.7,3.2l7.2,5.4
		C154.5,178.2,156.3,180.4,156.9,182.7z M150.2,187.7c0.3-0.2,0.6-0.4,0.8-0.8c0.3-0.3,0.4-0.7,0.5-1c0.1-0.3,0.1-0.6,0.1-0.9
		c0-0.3-0.1-0.6-0.3-0.9c-0.2-0.3-0.4-0.6-0.5-0.8s-0.4-0.5-0.8-0.8c-0.4-0.3-0.7-0.6-0.9-0.8s-0.6-0.4-1-0.8l-7.2-5.4
		c-0.5-0.3-0.8-0.6-1-0.8c-0.2-0.2-0.6-0.4-1-0.7s-0.8-0.5-1-0.6s-0.6-0.2-0.9-0.3c-0.4-0.1-0.7-0.1-1-0.1c-0.3,0.1-0.6,0.2-0.8,0.4
		c-0.3,0.2-0.6,0.4-0.8,0.8c-0.3,0.3-0.4,0.7-0.5,1c-0.1,0.3-0.1,0.6-0.1,0.9c0,0.3,0.1,0.6,0.3,0.9c0.2,0.3,0.4,0.6,0.5,0.8
		c0.2,0.2,0.4,0.5,0.8,0.8c0.4,0.3,0.7,0.6,0.9,0.8c0.2,0.2,0.6,0.4,1,0.8l7.2,5.4c0.5,0.4,0.8,0.6,1,0.8c0.2,0.2,0.6,0.4,1,0.7
		c0.4,0.3,0.8,0.5,1,0.6c0.3,0.1,0.6,0.2,0.9,0.3c0.4,0.1,0.7,0.1,1,0.1C149.7,188,149.9,187.9,150.2,187.7z"/>
	<path fill="#FFFFFF" d="M165.9,176.7c-0.9,0.9-2,1.4-3.2,1.3c-1.2-0.1-2.3-0.6-3.3-1.5L141,158.7l4.2-4.3l17.1,16.5
		c0.4,0.4,0.9,0.6,1.5,0.6s1-0.2,1.5-0.7c0.2-0.2,0.4-0.5,0.6-0.8c0.2-0.3,0.3-0.6,0.3-1c0.1-0.4,0.1-0.6,0.2-0.8s0.1-0.5,0.1-0.9
		c0-0.4,0-0.7,0-0.8l-17.1-16.5l4.2-4.3l21.6,20.8l-4.2,4.3l-2.3-2.2c0,0.8-0.1,1.4-0.1,1.7s-0.1,0.9-0.2,1.6
		c-0.1,0.7-0.2,1.2-0.4,1.7c-0.2,0.4-0.4,0.9-0.8,1.5C166.8,175.7,166.4,176.2,165.9,176.7z"/>
	<path fill="#FFFFFF" d="M178.4,163.8L159,140.9l4.6-3.9l2.6,3.1c-0.3-1.3-0.3-2.7,0-4.1c0.3-1.4,1-2.6,2.1-3.5c0,0,0.3-0.2,0.8-0.5
		l4.3,5.1c-1.1,0.4-2.1,0.9-3,1.6c-1,0.8-1.5,1.7-1.6,2.8c-0.1,1.1,0.2,2.1,1,3l13,15.5L178.4,163.8z"/>
	<path fill="#FFFFFF" d="M195.9,150.5c-1.1,0.7-2.3,1.1-3.5,1s-2.4-0.5-3.6-1.2c-1.2-0.8-2.2-1.6-3.2-2.6c-1-1-2-2.1-2.9-3.4
		c-0.4-0.6-1.4-2.1-3-4.5c-0.6-0.9-1-1.7-1.5-2.4s-0.8-1.5-1.2-2.3c-0.4-0.8-0.7-1.6-0.9-2.3c-0.2-0.7-0.3-1.4-0.4-2.2
		c-0.1-0.7,0-1.4,0.2-2.1s0.5-1.2,0.9-1.8c0.4-0.6,1-1.1,1.7-1.6c0.6-0.4,1.1-0.7,1.7-0.8s1.2-0.3,1.9-0.2c0.7,0,1.2,0.1,1.6,0.1
		c0.4,0.1,1,0.2,1.7,0.3l-8.4-12.4l5-3.4l23.5,34.8l-5,3.4l-1.5-2.3c-0.2,1.3-0.6,2.4-1,3.4S197,149.9,195.9,150.5z M194.4,145.6
		c1.2-0.8,2.3-1.9,3.2-3.3L187,126.7c-1.6,0.1-3,0.6-4.4,1.5c-0.5,0.3-0.8,0.7-1,1.2c-0.2,0.5-0.2,1,0,1.6c0.1,0.6,0.3,1.1,0.6,1.7
		c0.3,0.5,0.6,1.1,1,1.8c1.9,2.9,3.5,5.2,4.7,6.9c0.6,0.8,1.1,1.5,1.6,2.1s1.1,1.1,1.6,1.6s1.2,0.8,1.7,0.9S193.9,146,194.4,145.6z"
		/>
	<path fill="#FFFFFF" d="M228.1,132.7c-3.5,1.5-6.6,1.7-9.3,0.4c-2.7-1.2-4.9-3.6-6.7-7l4.9-3.8c2.7,5.4,5.7,7.3,9.1,5.8
		c2.7-1.2,3.5-3.2,2.3-5.9c-0.4-0.8-0.8-1.5-1.3-2.1c-0.5-0.6-1.1-1.1-1.9-1.5c-0.7-0.4-1.3-0.7-1.9-0.9c-0.5-0.2-1.2-0.4-2.1-0.6
		l-9.3-2.5c-1.7-0.4-3.2-1.3-4.7-2.5c-1.4-1.2-2.6-2.8-3.4-4.7c-1.2-2.8-1.3-5.5-0.3-7.9s3-4.3,5.9-5.6c3.1-1.4,5.9-1.7,8.4-1
		c2.5,0.7,4.6,2.4,6.2,5c0.2,0.3,0.4,0.7,0.7,1.2L220,103c-0.1-0.2-0.3-0.6-0.6-1c-1-1.6-2.2-2.8-3.5-3.5c-1.3-0.7-2.8-0.7-4.4,0.1
		c-1.3,0.6-2.2,1.4-2.6,2.4c-0.4,1-0.3,2.2,0.3,3.6c0.9,2.2,2.7,3.6,5.1,4.2l9.3,2.5c5,1.4,8.3,4.1,10.1,8.2
		c1.2,2.8,1.3,5.4,0.3,7.8C233,129.6,231,131.4,228.1,132.7z"/>
	<path fill="#FFFFFF" d="M248.7,125.3c-1.4,0.4-2.7,0.5-3.8,0.4c-1.2-0.2-2.2-0.6-3-1.2c-0.8-0.6-1.6-1.4-2.3-2.5
		c-0.7-1.1-1.3-2.2-1.8-3.4c-0.5-1.2-1-2.5-1.5-4.1c-0.4-1.2-0.8-2.5-1.1-3.8c-0.4-1.5-0.7-2.9-0.9-4.1c-0.2-1.2-0.2-2.4-0.2-3.6
		s0.3-2.3,0.7-3.1c0.4-0.9,1.1-1.7,2-2.4c0.9-0.7,2-1.3,3.4-1.7c1.2-0.4,2.4-0.5,3.4-0.5c1,0,2,0.3,2.8,0.8s1.5,1,2.2,1.7
		s1.2,1.5,1.8,2.6c0.5,1.1,1,2.1,1.4,3.2c0.4,1.1,0.8,2.3,1.2,3.7l0.2,0.7l-11.5,3.4l0.4,1.4c0.1,0.2,0.1,0.5,0.3,0.9
		c0.1,0.6,0.3,1.1,0.5,1.7c0.2,0.6,0.4,1.2,0.6,1.7c0.2,0.6,0.4,1.1,0.7,1.6c0.3,0.5,0.6,0.9,0.9,1.2s0.7,0.6,1.1,0.7
		c0.4,0.1,0.9,0.1,1.3,0c0.6-0.2,1.1-0.4,1.4-0.8c0.3-0.3,0.5-0.8,0.6-1.3c0.1-0.5,0-1,0-1.5c-0.1-0.5-0.2-1.1-0.4-1.8l-0.4-1.2
		l5.7-1.7l0.3,1.1c0.8,3.1,0.7,5.7-0.2,7.6S251.5,124.4,248.7,125.3z M240.6,108.4l5.7-1.7l-0.5-1.7c-0.2-0.8-0.5-1.4-0.7-2
		c-0.2-0.5-0.5-1.1-0.9-1.6c-0.4-0.5-0.8-0.9-1.3-1c-0.5-0.2-1-0.2-1.6,0c-0.6,0.2-1,0.5-1.3,0.9c-0.3,0.4-0.5,1-0.5,1.6
		s0,1.3,0.1,1.9c0.1,0.6,0.2,1.3,0.5,2.1L240.6,108.4z"/>
	<path fill="#FFFFFF" d="M265.7,121.1c-1.6,0.3-3.2-0.2-4.6-1.4c-1.4-1.2-2.2-2.7-2.5-4.5c-0.2-1.4-0.2-2.8,0.1-4
		c0.3-1.3,0.6-2.3,1.1-3.1c0.4-0.8,1.2-1.7,2.3-2.6c1.1-1,2-1.6,2.6-2c0.6-0.4,1.6-1,3.1-1.9c0.3-0.2,0.5-0.3,0.6-0.4L268,99
		c-0.3-1.5-0.7-2.6-1.2-3.4c-0.6-0.8-1.4-1-2.5-0.8c-1,0.2-1.7,0.7-2,1.4s-0.4,1.8-0.3,3c0,0.2,0.1,0.4,0.1,0.8l-5.9,1
		c-0.5-2.8-0.1-5.2,1.2-7.2c1.3-1.9,3.3-3.2,6.1-3.6c2.8-0.5,5.1,0,6.9,1.4c1.9,1.4,3,3.5,3.5,6.3l2.3,13.3c0.5,3.1,1.2,5.5,2,7.3
		l-5.9,1l-1.5-4.3c-0.2,0.7-0.4,1.2-0.5,1.6s-0.3,0.8-0.6,1.4c-0.3,0.6-0.6,1-0.9,1.3c-0.3,0.3-0.7,0.6-1.3,0.9
		C267,120.8,266.4,121,265.7,121.1z M267.8,115.8c0.4-0.1,0.8-0.3,1.1-0.6c0.4-0.3,0.6-0.6,0.8-0.9c0.2-0.3,0.4-0.6,0.6-1.1
		c0-0.1,0.1-0.1,0.1-0.2l-1.4-8.2c-0.2,0.2-0.6,0.5-1.1,1s-0.9,0.8-1.2,1.1c-0.3,0.3-0.7,0.7-1.1,1.1c-0.4,0.5-0.7,0.9-0.9,1.3
		s-0.4,0.9-0.5,1.4c-0.1,0.6-0.1,1.1,0,1.7C264.7,115,265.8,116.1,267.8,115.8z"/>
	<path fill="#FFFFFF" d="M281.9,118.4l-3.5-41.9l6-0.5l3.5,41.9L281.9,118.4z"/>
	<path fill="#FFFFFF" d="M317.2,115.8c-1.5,1.8-3.8,2.6-7.1,2.4c-3.2-0.2-5.5-1.2-6.8-3.2s-1.8-4.7-1.6-8.2l0.5-9
		c0.2-3.5,1-6.2,2.5-8c1.5-1.8,3.8-2.6,7.1-2.4s5.5,1.2,6.8,3.2c1.3,1.9,1.8,4.7,1.6,8.2l-0.5,9C319.5,111.3,318.6,114,317.2,115.8z
		 M309.3,113c0.3,0.1,0.7,0.2,1.1,0.2c0.4,0,0.8,0,1.1-0.1s0.6-0.2,0.8-0.4c0.2-0.2,0.4-0.4,0.6-0.8s0.3-0.6,0.4-0.9
		c0.1-0.3,0.2-0.6,0.2-1.1c0.1-0.5,0.1-0.9,0.1-1.2s0.1-0.7,0.1-1.3l0.5-9c0-0.6,0.1-1,0.1-1.3c0-0.3,0-0.7,0-1.2
		c0-0.5,0-0.9-0.1-1.2c-0.1-0.3-0.2-0.6-0.3-0.9c-0.1-0.4-0.3-0.6-0.5-0.8c-0.2-0.2-0.5-0.4-0.8-0.5c-0.3-0.1-0.7-0.2-1.1-0.2
		c-0.4,0-0.8,0-1.1,0.1s-0.6,0.2-0.8,0.4c-0.2,0.2-0.4,0.4-0.6,0.8c-0.2,0.3-0.3,0.6-0.4,0.9c-0.1,0.3-0.2,0.6-0.2,1.1
		c-0.1,0.5-0.1,0.9-0.1,1.2c0,0.3-0.1,0.7-0.1,1.3l-0.5,9c0,0.6-0.1,1-0.1,1.3s0,0.7,0,1.2c0,0.5,0,0.9,0.1,1.2s0.2,0.6,0.3,0.9
		c0.1,0.4,0.3,0.6,0.5,0.8C308.7,112.7,309,112.9,309.3,113z"/>
	<path fill="#FFFFFF" d="M324.7,119.1l3.8-25.2l-3-0.5l0.7-4.4l3,0.5l0.2-1.1c0.2-1.3,0.4-2.3,0.6-3.2c0.2-0.9,0.5-1.7,1-2.4
		c0.4-0.8,0.9-1.4,1.5-1.8c0.6-0.4,1.3-0.7,2.1-0.9c0.9-0.2,1.8-0.2,3,0c1,0.1,2.2,0.4,3.6,0.8l-0.7,4.4c-0.2,0-0.5-0.1-0.9-0.3
		s-0.8-0.2-1-0.3c-1-0.2-1.7,0.1-2.1,0.6s-0.7,1.5-0.9,2.7l-0.3,2.2l4.4,0.7l-0.7,4.4l-4.4-0.7l-3.8,25.2L324.7,119.1z"/>
	<path fill="#FFFFFF" d="M343.7,122.4L365,85l5.7,1.8l-4.1,42.8l-5.7-1.8l1-10.7l-7.2-2.3l-5.3,9.3L343.7,122.4z M356.8,110.8
		l5.7,1.8l2.6-18.1L356.8,110.8z"/>
	<path fill="#FFFFFF" d="M364.6,138.6l16.5-35.4l5.4,2.5l-1.3,2.7c0.7-0.3,1.1-0.4,1.4-0.5c0.2-0.1,0.7-0.2,1.2-0.4
		c0.6-0.2,1.1-0.2,1.4-0.2c0.4,0,0.8,0,1.4,0.1c0.5,0.1,1.1,0.2,1.6,0.5c0.9,0.4,1.7,1,2.2,1.6c0.6,0.7,1,1.3,1.2,2
		c0.3,0.7,0.3,1.5,0.3,2.6c-0.1,1-0.2,1.9-0.4,2.7s-0.5,1.8-1,3s-0.9,2.2-1.2,3s-0.8,1.8-1.4,3.1l-0.2,0.4c-0.6,1.2-1.1,2.3-1.8,3.4
		s-1.4,2.1-2.2,3.1c-0.8,1-1.7,1.8-2.6,2.4c-0.9,0.6-1.8,1-2.9,1.1c-1.1,0.2-2.1,0-3.2-0.5c-1.8-0.9-3.2-2.6-4.1-5.4l-4.9,10.6
		L364.6,138.6z M379.8,130.8c0.6,0.3,1.2,0.3,1.8,0c0.6-0.2,1.2-0.7,1.7-1.4c0.5-0.7,1-1.4,1.5-2.2s0.9-1.6,1.4-2.7l1.6-3.6
		c0.3-0.6,0.5-1.2,0.7-1.5c0.2-0.4,0.4-0.9,0.6-1.6c0.3-0.7,0.4-1.2,0.6-1.7c0.1-0.4,0.2-1,0.3-1.5c0.1-0.6,0.1-1,0-1.4
		c-0.1-0.4-0.3-0.8-0.5-1.1c-0.3-0.4-0.6-0.6-1-0.8c-0.2-0.1-0.4-0.2-0.6-0.2c-0.2-0.1-0.4-0.1-0.7-0.1c-0.2,0-0.4-0.1-0.6-0.1
		c-0.2,0-0.4,0-0.6,0s-0.5,0-0.6,0s-0.3,0-0.6,0.1c-0.3,0-0.5,0.1-0.5,0.1l-7.8,16.8C377.1,129.1,378.3,130.1,379.8,130.8z"/>
	<path fill="#FFFFFF" d="M384.5,148.2l20.8-33l5.1,3.2l-1.6,2.5c0.7-0.2,1.2-0.3,1.4-0.4c0.3-0.1,0.7-0.1,1.3-0.2
		c0.6-0.1,1.1-0.1,1.4-0.1c0.4,0,0.8,0.1,1.3,0.3c0.5,0.2,1,0.4,1.5,0.7c0.9,0.5,1.5,1.2,2,1.9c0.5,0.7,0.8,1.5,1,2.2
		c0.2,0.7,0.1,1.6-0.1,2.6c-0.2,1-0.4,1.9-0.7,2.6c-0.3,0.8-0.7,1.7-1.3,2.9c-0.6,1.2-1.2,2.1-1.6,2.8c-0.4,0.7-1,1.7-1.8,2.9
		l-0.2,0.4c-0.7,1.1-1.4,2.1-2.2,3.1c-0.8,1-1.6,1.9-2.6,2.8c-1,0.9-1.9,1.6-2.9,2c-0.9,0.5-2,0.7-3,0.8s-2.1-0.3-3.1-0.9
		c-1.7-1.1-2.9-3-3.4-5.8l-6.2,9.9L384.5,148.2z M400.6,142.4c0.5,0.3,1.1,0.4,1.7,0.3c0.6-0.2,1.2-0.6,1.9-1.2
		c0.6-0.6,1.2-1.3,1.7-2c0.5-0.7,1.1-1.5,1.7-2.5l2.1-3.4c0.4-0.6,0.7-1.1,0.9-1.4c0.2-0.4,0.5-0.9,0.8-1.5c0.3-0.6,0.6-1.2,0.8-1.6
		s0.3-0.9,0.5-1.5c0.1-0.6,0.2-1,0.2-1.4c0-0.4-0.2-0.8-0.4-1.2s-0.5-0.7-0.9-1c-0.2-0.1-0.4-0.2-0.6-0.3c-0.2-0.1-0.4-0.2-0.6-0.2
		c-0.2-0.1-0.4-0.1-0.6-0.1s-0.4-0.1-0.6-0.1c-0.3,0-0.5,0-0.6,0c-0.1,0-0.3,0-0.6,0c-0.3,0-0.5,0-0.5,0l-9.9,15.7
		C398.2,140.3,399.3,141.5,400.6,142.4z"/>
	<path fill="#FFFFFF" d="M408.9,153.5l18.6-23.5l4.7,3.7l-2.5,3.1c1.2-0.6,2.6-0.8,4-0.8c1.5,0,2.7,0.5,3.9,1.4c0,0,0.3,0.3,0.7,0.7
		l-4.1,5.2c-0.6-1-1.3-1.9-2.2-2.6c-1-0.8-2-1.1-3.1-1c-1.1,0.1-2,0.7-2.7,1.6l-12.6,15.9L408.9,153.5z"/>
	<path fill="#FFFFFF" d="M433.5,171.9c-2.3,0.4-4.6-0.5-6.9-2.8c-2.3-2.2-3.3-4.5-3-6.8c0.3-2.3,1.7-4.7,4.1-7.3l6.3-6.5
		c2.5-2.5,4.8-4,7.1-4.4c2.3-0.4,4.6,0.5,6.9,2.8c2.3,2.2,3.3,4.5,3,6.8s-1.7,4.7-4.1,7.3l-6.3,6.5
		C438.1,170,435.8,171.5,433.5,171.9z M429.3,164.6c0.1,0.3,0.4,0.6,0.7,0.9c0.3,0.3,0.6,0.5,0.9,0.6s0.6,0.2,0.9,0.2
		c0.3,0,0.6-0.1,0.9-0.2s0.6-0.3,0.9-0.4c0.2-0.1,0.5-0.4,0.9-0.7c0.4-0.3,0.7-0.6,0.9-0.8c0.2-0.2,0.5-0.5,0.9-0.9l6.3-6.5
		c0.4-0.4,0.7-0.7,0.9-0.9c0.2-0.2,0.5-0.5,0.8-0.9c0.3-0.4,0.6-0.7,0.7-0.9c0.1-0.2,0.3-0.5,0.4-0.9c0.1-0.4,0.2-0.7,0.2-0.9
		c0-0.3-0.1-0.6-0.3-0.9c-0.1-0.3-0.4-0.6-0.7-0.9c-0.3-0.3-0.6-0.5-0.9-0.6s-0.6-0.2-0.9-0.2c-0.3,0-0.6,0.1-0.9,0.2
		c-0.3,0.2-0.6,0.3-0.9,0.4c-0.2,0.1-0.5,0.4-0.9,0.7c-0.4,0.3-0.7,0.6-0.9,0.8c-0.2,0.2-0.5,0.5-0.9,0.9l-6.3,6.5
		c-0.4,0.4-0.7,0.7-0.9,0.9c-0.2,0.2-0.5,0.5-0.8,0.9c-0.3,0.4-0.6,0.7-0.7,0.9c-0.1,0.2-0.3,0.5-0.4,0.9c-0.1,0.4-0.2,0.7-0.2,0.9
		C429.1,164,429.1,164.3,429.3,164.6z"/>
	<path fill="#FFFFFF" d="M438.8,181.4l18.8-24.3l3.7,4.4l-14.7,17.6l19.8-11.4l3.7,4.4l-27.4,14L438.8,181.4z"/>
	<path fill="#FFFFFF" d="M450.7,197.7c-0.9-1.4-1.1-3-0.5-4.7c0.6-1.8,1.6-3.1,3.1-4.1c1.2-0.8,2.5-1.3,3.7-1.6s2.3-0.3,3.2-0.3
		s2,0.4,3.3,1.1c1.3,0.7,2.3,1.2,2.9,1.6s1.6,1.1,3,2.1c0.2,0.2,0.4,0.3,0.6,0.4l1.8-1.2c1.3-0.8,2.1-1.7,2.6-2.5
		c0.5-0.8,0.4-1.7-0.2-2.7c-0.6-0.9-1.3-1.3-2.1-1.3c-0.8,0-1.8,0.3-2.9,1c-0.2,0.1-0.4,0.2-0.7,0.4l-3.3-5c2.4-1.5,4.8-2.1,7.1-1.7
		c2.3,0.4,4.2,1.8,5.7,4.1c1.5,2.3,2,4.7,1.4,6.9c-0.6,2.3-2,4.2-4.4,5.8l-11.3,7.4c-2.6,1.7-4.6,3.3-5.9,4.8l-3.3-5l3.3-3.1
		c-0.7,0.1-1.2,0.1-1.6,0.2c-0.4,0-0.9,0-1.5,0c-0.6,0-1.2-0.1-1.6-0.3s-0.9-0.4-1.4-0.8S451,198.3,450.7,197.7z M456.4,197.5
		c0.2,0.4,0.6,0.6,1,0.8s0.8,0.3,1.1,0.4c0.3,0,0.7,0.1,1.2,0.1c0.1,0,0.2,0,0.2,0l6.9-4.5c-0.3-0.1-0.7-0.3-1.3-0.6
		c-0.6-0.3-1.1-0.5-1.5-0.7c-0.4-0.2-0.9-0.3-1.5-0.5c-0.6-0.2-1.1-0.3-1.6-0.3c-0.5,0-1,0-1.5,0.1s-1.1,0.3-1.6,0.7
		C455.8,194.3,455.3,195.8,456.4,197.5z"/>
	<path fill="#FFFFFF" d="M459.6,211.4l37-19.8l2.8,5.3l-37,19.8L459.6,211.4z"/>
</g>
<g>
	<rect x="276" y="496.9" fill="#FFFFFF" width="10.4" height="30.8"/>
	<path fill="#FFFFFF" d="M314.4,523.7c2.5-1,4-3.1,3.8-5c0-0.4-0.2-1.3-1-2.2c2.7-0.5,4.5-2.6,4.4-4.6c-0.1-1.6-1.3-2.7-1.6-3
		c2.2-0.3,3.9-2.1,4-4.2c0.1-1.8-1.1-3.5-2.8-4.2c1.5-0.8,2.4-2.4,2.4-4c0-2-1.5-3.9-3.6-4.4h-14.8c0.5-1,0.6-2.9,0.6-5.2
		c0-4.6-2.1-10.4-7-10.4c-0.2,0-1.4-0.2-2.1,0.5c-0.2,0.2-0.2,0.4-0.2,0.6l0.3,6.9c0,0.8-0.2,1.5-0.5,2.2l-6.6,11.4v25.6H314.4z"/>
</g>
</svg>
