<?xml version="1.0" encoding="UTF-8" standalone="no"?>
<!-- Created with Inkscape (http://www.inkscape.org/) -->

<svg
   xmlns:dc="http://purl.org/dc/elements/1.1/"
   xmlns:cc="http://creativecommons.org/ns#"
   xmlns:rdf="http://www.w3.org/1999/02/22-rdf-syntax-ns#"
   xmlns:svg="http://www.w3.org/2000/svg"
   xmlns="http://www.w3.org/2000/svg"
   version="1.1"
   width="100%"
   height="100%"
   viewBox="0 0 600 600"
   id="Layer_1"
   xml:space="preserve"><metadata
     id="metadata41"><rdf:RDF><cc:Work
         rdf:about=""><dc:format>image/svg+xml</dc:format><dc:type
           rdf:resource="http://purl.org/dc/dcmitype/StillImage" /><dc:title></dc:title></cc:Work></rdf:RDF></metadata><defs
     id="defs39" /><g
     transform="matrix(1.0080645,0,0,1.0080645,4.8e-6,-177.57056)"
     id="g3018"><path
       d="M 575.2,600 H 20 C 9,600 0,591 0,580 V 367.5 c 0,-11 9,-20 20,-20 h 555.2 c 11,0 20,9 20,20 V 580 c 0,11 -8.9,20 -20,20 z"
       id="path3" /><polygon
       points="500.8,232.5 575.2,126.3 500.8,20 94.4,20 20,126.3 94.4,232.5 "
       transform="translate(0,347.5)"
       id="polygon5"
       style="fill:#ffffff" /><g
       transform="translate(0,347.5)"
       id="g7"><path
         d="m 142.4,71.7 v 21 h -6.8 v -21 L 115.7,41.3 h 8.1 l 15.4,24.5 15,-24.5 h 7.8 l -19.6,30.4 z"
         id="path9" /><path
         d="m 190.6,80.9 c -1.7,8.2 -7.6,12.7 -15.9,12.7 -11.9,0 -17.5,-8.2 -17.9,-19.6 0,-11.2 7.3,-19.4 17.5,-19.4 13.2,0 17.2,12.3 16.8,21.3 h -27.9 c -0.2,6.5 3.5,12.2 11.6,12.2 5,0 8.6,-2.4 9.6,-7.3 h 6.2 z M 184.7,70.5 C 184.4,64.7 180,60 174,60 c -6.4,0 -10.2,4.8 -10.7,10.5 h 21.4 z"
         id="path11" /><path
         d="m 212.1,97.7 c -2.8,7.3 -5.3,9.9 -10.8,9.9 -1.4,0 -2.9,-0.1 -4.2,-0.6 v -5.6 c 1.2,0.4 2.4,0.9 3.6,0.9 2.5,0 3.9,-1.2 5,-3.4 l 2.5,-6.3 -14.8,-37 h 6.9 l 10.9,30.5 h 0.1 l 10.4,-30.5 h 6.5 l -16.1,42.1 z"
         id="path13" /><path
         d="m 266.5,92.6 c -1.1,0.6 -2.4,1 -4.4,1 -3.2,0 -5.2,-1.7 -5.2,-5.8 -3.4,4 -7.9,5.8 -13.1,5.8 -6.8,0 -12.3,-3 -12.3,-10.4 0,-8.4 6.3,-10.2 12.6,-11.4 6.8,-1.3 12.5,-0.9 12.5,-5.5 0,-5.3 -4.4,-6.2 -8.3,-6.2 -5.2,0 -9,1.6 -9.3,7.1 h -6.1 c 0.4,-9.2 7.5,-12.5 15.8,-12.5 6.7,0 14,1.5 14,10.2 V 84 c 0,2.9 0,4.2 1.9,4.2 0.5,0 1.1,-0.1 1.9,-0.4 v 4.8 z m -9.9,-19.1 c -2.4,1.7 -7,1.8 -11.1,2.5 -4,0.7 -7.5,2.2 -7.5,6.7 0,4 3.5,5.5 7.2,5.5 8.1,0 11.4,-5 11.4,-8.4 v -6.3 z"
         id="path15" /><path
         d="m 323,56.3 c -0.8,-7.3 -5.7,-10.5 -12.7,-10.5 -5.8,0 -11.5,2.1 -11.5,8.8 0,6.3 8.2,7.3 16.5,9.1 8.2,1.9 16.4,4.8 16.4,14.8 0,10.9 -10.7,15.3 -20.1,15.3 -11.5,0 -21.2,-5.6 -21.2,-18.1 h 6.5 c 0,8.6 7.2,12.4 15,12.4 6.2,0 13,-1.9 13,-9.4 0,-7.1 -8.2,-8.3 -16.4,-10.1 C 300.3,66.8 292,64.4 292,55 c 0,-10.4 9.3,-15 18.6,-15 10.5,0 18.5,5 18.9,16.3 H 323 z"
         id="path17" /><path
         d="m 347.4,55.5 h 7.4 v 5.4 h -7.4 V 84 c 0,2.8 0.8,3.3 4.6,3.3 h 2.8 v 5.4 h -4.7 c -6.3,0 -8.9,-1.3 -8.9,-8.1 V 60.9 h -6.3 v -5.4 h 6.3 V 44.3 h 6.1 v 11.2 z"
         id="path19" /><path
         d="m 361.3,55.5 h 5.8 v 7.8 h 0.1 c 3,-6 7.1,-8.9 13.7,-8.7 v 6.5 c -9.9,0 -13.5,5.6 -13.5,15 v 16.6 h -6.1 V 55.5 z"
         id="path21" /><path
         d="m 416,80.9 c -1.7,8.2 -7.6,12.7 -15.9,12.7 -11.9,0 -17.5,-8.2 -17.9,-19.6 0,-11.2 7.3,-19.4 17.5,-19.4 13.2,0 17.2,12.3 16.8,21.3 h -27.9 c -0.2,6.5 3.5,12.2 11.6,12.2 5,0 8.6,-2.4 9.6,-7.3 H 416 z M 410.1,70.5 C 409.8,64.7 405.4,60 399.4,60 393,60 389.2,64.8 388.7,70.5 h 21.4 z"
         id="path23" /><path
         d="m 454.6,80.9 c -1.7,8.2 -7.6,12.7 -15.9,12.7 -11.9,0 -17.5,-8.2 -17.9,-19.6 0,-11.2 7.3,-19.4 17.5,-19.4 13.2,0 17.2,12.3 16.8,21.3 h -27.9 c -0.2,6.5 3.5,12.2 11.6,12.2 5,0 8.6,-2.4 9.6,-7.3 h 6.2 z M 448.7,70.5 C 448.4,64.7 444.1,60 438,60 c -6.4,0 -10.2,4.8 -10.7,10.5 h 21.4 z"
         id="path25" /><path
         d="m 470,55.5 h 7.4 v 5.4 H 470 V 84 c 0,2.8 0.8,3.3 4.6,3.3 h 2.8 v 5.4 h -4.7 c -6.3,0 -8.9,-1.3 -8.9,-8.1 V 60.9 h -6.3 v -5.4 h 6.3 V 44.3 h 6.1 v 11.2 z"
         id="path27" /></g><g
       transform="translate(0,347.5)"
       id="g29"><path
         d="m 176,156.1 h 15.2 v 40.6 h -5.3 v -4.2 h -4.5 v 7.6 H 176 v -44 z m 5.4,30.8 h 4.5 v -25.5 h -4.5 v 25.5 z m 11.9,-36.7 h 22.9 v 32.9 h -8.4 v 6 h 9.8 v 5.6 h -9.8 v 6.7 c 3.8,-0.6 7.6,-1.2 11.3,-2 v 5.5 c -5.1,1.2 -13.1,2.8 -24,4.9 -0.4,0.7 -0.9,1.1 -1.4,1.1 -0.5,0 -0.7,-0.4 -0.8,-1.1 l -1.6,-6.5 c 3.7,-0.3 7.4,-0.8 11,-1.3 v -7.4 H 193 V 189 h 9.3 v -6 h -8.8 v -32.8 z m 5.1,13.5 h 3.7 v -8.2 h -3.7 v 8.2 z m 3.7,14.1 v -8.7 h -3.7 v 8.7 h 3.7 z m 5.6,-22.2 v 8.2 h 3.4 v -8.2 h -3.4 z m 3.4,22.2 v -8.7 h -3.4 v 8.7 h 3.4 z M 235,150.3 c 0.5,0 1,0.2 1.5,0.6 l 3,2.1 c 0.4,0.3 0.6,0.6 0.6,0.8 0,0.6 -0.4,1.1 -1.3,1.5 l -9.3,10.8 c 1.4,1.4 2.8,2.9 4.1,4.4 l -2.7,2.5 h 3 l 1.6,-0.6 c 0.6,0 1.1,0.2 1.5,0.6 l 3.2,2.3 c 0.4,0.3 0.6,0.6 0.6,0.8 0,0.6 -0.4,1.1 -1.3,1.7 l -4.4,8.6 -5.2,-1.8 2.9,-6.2 h -3.6 v 27.1 c 0,2.3 -0.7,4 -2,5.1 -1.1,1.1 -3.9,1.7 -8.4,1.7 l -2.4,-6 h 4.4 c 1.5,0 2.4,-0.6 2.5,-1.9 v -25.9 h -5.5 V 173 h 10 c -3.2,-3.6 -6.2,-6.4 -9.1,-8.6 l 4.1,-3.9 c 1,0.8 2,1.5 2.9,2.3 l 4.6,-6.1 h -11.9 v -5.3 h 15 l 1.6,-1.1 z"
         id="path31" /><path
         d="m 266.2,157.5 h 18.7 v 34.6 h -12.5 v 6.3 h -6.2 v -40.9 z m 6.2,28.7 h 6.6 v -22.8 h -6.6 v 22.8 z m 16.8,-34.3 h 37.1 v 5.9 h -8.9 v 15.6 H 328 v 6.2 h -10.5 v 25.5 c 0,2.6 -1,4.5 -2.9,5.6 -1.6,1.2 -5.7,1.8 -12.3,1.8 l -2.7,-6.6 h 7.3 c 2.5,0 3.9,-0.7 4.1,-2 v -24.3 h -2.8 c -2.1,6.8 -4.4,11.9 -6.8,15.3 -3.5,4.9 -8,9.2 -13.4,13.1 l -6.1,-4.1 c 6,-3.8 10.5,-7.7 13.3,-11.7 2.5,-3.4 4.6,-7.6 6.4,-12.6 h -8.2 c -0.4,1.5 -0.9,2.9 -1.4,4.2 l -6.2,-1.6 c 2.3,-6.8 4,-13.4 5.1,-19.8 l 6.2,1.8 c -0.6,3.2 -1.2,6.3 -2,9.2 h 16 v -15.6 h -21.8 v -5.9 z"
         id="path33" /><path
         d="m 368.7,163.3 5.6,2 c 0.7,0.2 1.1,0.4 1.1,0.8 0,0.2 -0.2,0.5 -0.7,0.8 -0.7,0.2 -1.9,2 -3.8,5.3 -0.8,1.4 -1.7,2.8 -2.5,4.1 v 36.1 h -6.2 v -28.1 c -0.8,1 -1.7,1.9 -2.5,2.7 l -6,-3.4 c 6.1,-5.5 11.1,-12.3 15,-20.3 z m -2.5,-13.5 5.6,2 c 0.7,0.2 1.1,0.4 1.1,0.8 0,0.2 -0.2,0.5 -0.7,0.8 -0.5,0.1 -1.5,1.4 -3,3.9 -2.4,3.8 -5.4,7.4 -8.9,10.8 l -6,-3.4 c 4.8,-4.2 8.8,-9.1 11.9,-14.9 z m 7.4,36.3 h 9 v -7.9 l 5.8,0.4 c 1.1,0.1 1.6,0.4 1.6,1 0,0.3 -0.4,0.8 -1.3,1.5 v 4.9 h 9 v 5.6 h -9 v 8.3 c 3.6,-0.6 6.9,-1.3 10.1,-2.2 l -1.2,5.5 -22.2,4.4 c -0.7,1.1 -1.3,1.7 -1.7,1.7 -0.6,0 -1,-0.4 -1.1,-1.3 l -0.5,-7 c 3.7,0 7.1,-0.1 10.4,-0.4 v -9 h -9 v -5.5 z m 2.3,-28.2 h 7.3 v -9.6 l 5.8,0.5 c 1.1,0 1.6,0.4 1.6,0.9 0,0.3 -0.4,0.8 -1.3,1.5 v 6.6 h 7.3 v 5.6 h -7.3 v 7.3 h 9.3 v 5.6 h -24.8 v -5.6 h 9.3 v -7.3 h -7.3 v -5.5 z m 23.9,9 h 19.4 v 5.6 h -4.8 v 32.8 c 0,2.4 -0.7,4.2 -2.2,5.3 -1.2,1.2 -4.2,1.8 -9.1,1.8 l -2.5,-6.3 h 4.9 c 1.7,0 2.6,-0.7 2.7,-2 v -31.6 h -8.4 v -5.6 z m 1.7,-14.2 h 16 v 5.9 h -16 v -5.9 z"
         id="path35" /></g></g></svg>