<?xml version="1.0" encoding="utf-8"?>
<!-- Generator: Adobe Illustrator 18.1.1, SVG Export Plug-In . SVG Version: 6.00 Build 0)  -->
<svg version="1.1" id="Layer_1" xmlns="http://www.w3.org/2000/svg" xmlns:xlink="http://www.w3.org/1999/xlink" x="0px" y="0px"
	 viewBox="0 0 600 600" enable-background="new 0 0 600 600" xml:space="preserve">
<path fill="#231F20" d="M180,300v90c0,16.6-13.4,30-30,30s-30-13.4-30-30v-90H60v90c0,49.7,40.3,90,90,90h30c0,33.1-26.9,60-60,60
	H60v60h60c66.3,0,120-53.7,120-120v-90v-90H180z"/>
<path fill="#231F20" d="M480,70h-10h-40h-10c0-5.5,4.5-10,10-10h40C475.5,60,480,64.5,480,70z M540,130H430c-5.5,0-10-4.5-10-10h10
	h110V90c0-49.7-40.3-90-90-90c-49.7,0-90,40.3-90,90c0,49.7,40.3,90,90,90h90V130z"/>
<path fill="#231F20" d="M180,0v90c0,16.6-13.4,30-30,30s-30-13.4-30-30V0H60v90c0,49.7,40.3,90,90,90h30c0,33.1-26.9,60-60,60H60v60
	h60c66.3,0,120-53.7,120-120V90V0H180z"/>
<path fill="#231F20" d="M450,300c-49.7,0-90,40.3-90,90c0,49.7,40.3,90,90,90h90v-90C540,340.3,499.7,300,450,300z M450,420
	c-16.6,0-30-13.4-30-30c0-16.6,13.4-30,30-30s30,13.4,30,30l0,30L450,420z"/>
</svg>
