<?xml version="1.0" encoding="utf-8"?>
<!-- Generator: Adobe Illustrator 18.1.1, SVG Export Plug-In . SVG Version: 6.00 Build 0)  -->
<svg version="1.1" id="Layer_1" xmlns="http://www.w3.org/2000/svg" xmlns:xlink="http://www.w3.org/1999/xlink" x="0px" y="0px"
	 viewBox="0 0 141.5 119" enable-background="new 0 0 141.5 119" xml:space="preserve">
<path fill="#9D2133" d="M0,59.6C0,84,16.3,105,39.4,113.8c9.6,3.3,20.2,5.2,31.3,5.2c11,0,21.6-1.9,31.1-5.1h0.1
	c23.2-8.8,39.6-29.8,39.6-54.3v-0.1c0-24.6-16.3-45.6-39.6-54.3h-0.1C92.3,1.8,81.8,0,70.7,0C59.5,0,49,1.8,39.4,5.1
	C16.3,13.9,0,34.9,0,59.4V59.6z"/>
<path fill="#FFFFFF" d="M106.3,21H93.6c0,11.3-10.2,20.5-22.8,20.5c-12.6,0-22.8-9.2-22.8-20.5H35.2c0,15.6,12.5,28.5,28.9,31.3V98
	h13.3V52.4C93.8,49.6,106.3,36.6,106.3,21z"/>
</svg>
