<?xml version="1.0" encoding="UTF-8" standalone="no"?>
<!-- Created with Inkscape (http://www.inkscape.org/) -->

<svg
   xmlns:dc="http://purl.org/dc/elements/1.1/"
   xmlns:cc="http://creativecommons.org/ns#"
   xmlns:rdf="http://www.w3.org/1999/02/22-rdf-syntax-ns#"
   xmlns:svg="http://www.w3.org/2000/svg"
   xmlns="http://www.w3.org/2000/svg"
   version="1.1"
   width="100%"
   height="100%"
   viewBox="0 0 150 150"
   id="Layer_1"
   xml:space="preserve"><metadata
     id="metadata11"><rdf:RDF><cc:Work
         rdf:about=""><dc:format>image/svg+xml</dc:format><dc:type
           rdf:resource="http://purl.org/dc/dcmitype/StillImage" /><dc:title></dc:title></cc:Work></rdf:RDF></metadata><defs
     id="defs9" /><g
     transform="matrix(1.0600707,0,0,1.0600707,0,-20.936398)"
     id="g2988"><path
       d="m 0,90.6 c 0,24.4 16.3,45.4 39.4,54.2 9.6,3.3 20.2,5.2 31.3,5.2 11,0 21.6,-1.9 31.1,-5.1 h 0.1 c 23.2,-8.8 39.6,-29.8 39.6,-54.3 v -0.1 c 0,-24.6 -16.3,-45.6 -39.6,-54.3 h -0.1 C 92.3,32.8 81.8,31 70.7,31 59.5,31 49,32.8 39.4,36.1 16.3,44.9 0,65.9 0,90.4 v 0.2 z"
       id="path3"
       style="fill:#9d2133" /><path
       d="M 106.3,52 H 93.6 C 93.6,63.3 83.4,72.5 70.8,72.5 58.2,72.5 48,63.3 48,52 H 35.2 c 0,15.6 12.5,28.5 28.9,31.3 V 129 H 77.4 V 83.4 C 93.8,80.6 106.3,67.6 106.3,52 z"
       id="path5"
       style="fill:#ffffff" /></g></svg>