<?xml version="1.0" encoding="utf-8"?>
<!-- Generator: Adobe Illustrator 18.1.0, SVG Export Plug-In . SVG Version: 6.00 Build 0)  -->
<!DOCTYPE svg PUBLIC "-//W3C//DTD SVG 1.1//EN" "http://www.w3.org/Graphics/SVG/1.1/DTD/svg11.dtd">
<svg version="1.1" id="Layer_1" xmlns="http://www.w3.org/2000/svg" xmlns:xlink="http://www.w3.org/1999/xlink" x="0px" y="0px"
	 viewBox="0 0 128 128" enable-background="new 0 0 128 128" xml:space="preserve">
<rect y="51" fill="#58B69B" width="26" height="77"/>
<path fill="#58B69B" d="M96,118c6.2-2.5,10-7.7,9.5-12.5c-0.1-1-0.5-3.2-2.5-5.5c6.7-1.3,11.2-6.4,11-11.5c-0.1-4-3.2-6.8-4-7.5
	c5.6-0.7,9.8-5.3,10-10.5c0.2-4.4-2.6-8.7-7-10.5c3.7-2.1,6-5.9,6-10c0-5-3.7-9.6-9-11H73c1.2-2.5,1.5-7.1,1.5-13
	c0-11.4-5.2-26-17.5-26c-0.5,0-3.5-0.4-5.4,1.3C51.2,1.7,51,2.2,51,2.8l0.7,17.3c0.1,1.9-0.4,3.8-1.3,5.4L34,54v64H96z"/>
</svg>
